{"glyphs":{"0":{"ha":906,"x_min":56,"x_max":850,"o":"m 453 246 q 531 308 500 246 q 561 488 561 369 l 561 517 l 360 343 q 399 270 375 294 q 453 246 424 246 m 56 443 q 108 731 56 614 q 249 906 160 849 q 453 964 339 964 q 656 906 565 964 q 798 731 746 847 q 850 443 850 614 q 798 156 850 272 q 656 -19 746 39 q 453 -78 565 -78 q 249 -20 339 -78 q 108 155 160 38 q 56 443 56 272 m 343 488 q 344 436 343 453 l 549 614 q 510 699 535 669 q 453 728 485 728 q 374 666 404 728 q 343 488 343 604 z "},"1":{"ha":608,"x_min":69,"x_max":497,"o":"m 497 969 l 497 -76 l 221 -76 l 221 836 q 177 704 221 753 q 69 640 133 656 l 69 932 l 497 969 z "},"2":{"ha":789,"x_min":56,"x_max":733,"o":"m 682 678 q 617 474 682 599 q 454 215 551 350 l 733 215 l 733 -78 l 56 -78 l 56 215 q 308 432 199 325 q 439 607 417 539 q 449 660 449 636 q 383 719 449 719 q 251 683 329 719 q 56 549 176 647 l 56 900 q 218 943 132 925 q 376 961 304 961 q 599 894 517 961 q 682 678 682 828 z "},"3":{"ha":767,"x_min":56,"x_max":711,"o":"m 501 553 q 649 471 588 538 q 711 261 711 404 q 682 119 711 199 q 591 -19 653 39 q 436 -78 529 -78 l 56 -78 l 56 214 l 332 214 q 414 243 382 214 q 446 308 446 272 q 433 346 446 329 q 397 371 421 363 q 321 379 374 379 l 253 379 l 81 379 l 69 572 q 306 628 203 586 q 432 738 410 669 l 325 738 q 171 715 238 738 q 68 658 104 692 l 68 964 l 419 964 l 629 964 q 652 904 643 940 q 661 826 661 868 q 642 710 661 769 q 501 553 615 629 z "},"4":{"ha":872,"x_min":56,"x_max":817,"o":"m 817 128 q 731 168 767 126 q 696 300 696 210 l 696 -78 l 442 -78 l 442 128 l 56 128 l 211 964 l 440 964 l 349 419 l 442 419 l 442 749 l 696 749 l 696 419 l 817 419 l 817 128 z "},"5":{"ha":768,"x_min":56,"x_max":713,"o":"m 406 596 q 556 563 488 596 q 669 458 625 531 q 713 272 713 386 q 683 127 713 210 q 591 -17 653 44 q 436 -78 529 -78 q 56 -49 260 -78 l 56 244 q 317 218 210 225 q 415 241 381 214 q 450 307 450 268 q 436 353 450 332 q 397 383 422 374 q 300 394 371 394 q 81 379 207 394 l 100 964 l 311 964 l 663 964 l 663 688 q 565 754 629 726 q 413 782 500 782 l 357 782 l 346 597 l 406 596 z "},"6":{"ha":847,"x_min":56,"x_max":793,"o":"m 444 192 q 503 225 479 192 q 528 306 528 258 q 503 386 528 353 q 444 419 479 419 q 385 386 410 419 q 360 306 360 353 q 384 225 360 258 q 444 192 408 192 m 60 496 q 167 841 79 719 q 435 963 256 963 q 592 951 522 963 q 704 922 663 939 l 704 675 q 597 740 658 714 q 471 767 535 767 q 372 719 411 767 q 333 560 333 671 q 443 596 404 589 q 503 601 474 601 q 705 529 617 601 q 792 269 793 457 q 757 124 792 206 q 649 -18 722 42 q 467 -78 575 -78 q 226 -8 318 -78 q 95 172 135 61 q 56 413 56 282 q 60 496 56 454 z "},"7":{"ha":768,"x_min":56,"x_max":713,"o":"m 713 964 l 474 -78 l 185 -78 l 393 782 l 350 782 q 183 751 260 782 q 56 675 106 719 l 56 964 l 438 963 l 438 964 l 713 964 z "},"8":{"ha":847,"x_min":56,"x_max":792,"o":"m 424 132 q 477 171 458 132 q 496 269 496 210 q 477 366 496 328 q 424 404 458 404 q 370 366 389 404 q 351 269 351 328 q 370 171 351 210 q 424 132 389 132 m 56 240 q 90 395 56 324 q 190 511 125 467 q 118 599 143 547 q 93 711 93 650 q 131 849 93 788 q 244 945 169 910 q 424 981 318 981 q 603 945 529 981 q 716 849 678 910 q 754 711 754 788 q 729 599 754 650 q 656 511 704 547 q 756 394 721 465 q 792 240 792 324 q 749 69 792 146 q 624 -51 707 -7 q 424 -94 540 -94 q 223 -51 306 -94 q 98 69 140 -7 q 56 240 56 146 m 371 668 q 385 590 371 621 q 424 558 399 558 q 463 590 449 558 q 476 668 476 621 q 463 747 476 715 q 424 778 449 778 q 385 747 399 778 q 371 668 371 715 z "},"9":{"ha":854,"x_min":51,"x_max":803,"o":"m 411 467 q 471 500 446 467 q 496 581 496 533 q 471 661 496 628 q 411 694 446 694 q 351 661 375 694 q 326 581 326 628 q 351 500 326 533 q 411 467 376 467 m 56 596 q 81 743 51 660 q 182 890 111 826 q 363 961 253 954 l 393 963 q 638 881 546 963 q 767 675 731 800 q 799 411 803 550 q 708 60 790 188 q 447 -76 626 -67 q 407 -78 433 -78 q 251 -61 329 -78 q 115 -21 174 -44 l 99 279 q 241 166 165 208 q 381 124 317 124 q 488 174 449 124 q 528 332 528 225 q 421 290 460 299 q 338 281 385 281 q 147 350 229 281 q 56 596 64 419 z "}," ":{"ha":278,"x_min":0,"x_max":0,"o":""}," ":{"ha":278,"x_min":0,"x_max":0,"o":""},"A":{"ha":921,"x_min":0,"x_max":921,"o":"m 479 375 q 457 244 474 314 q 451 218 454 233 q 444 183 447 203 l 519 183 l 479 375 m 0 -74 q 178 249 110 79 q 278 558 246 419 q 335 847 310 696 q 350 932 339 869 l 589 932 l 921 -74 l 610 -74 l 558 68 l 400 68 q 315 -74 351 -25 l 0 -74 z "},"B":{"ha":838,"x_min":83,"x_max":782,"o":"m 440 224 q 453 275 453 249 q 440 322 453 303 q 404 342 428 340 q 360 344 381 344 l 360 183 q 440 224 419 183 m 83 932 l 475 932 q 597 897 544 932 q 676 806 649 863 q 703 683 703 749 q 653 517 703 594 l 657 521 q 749 426 715 485 q 782 293 782 367 q 768 200 782 246 q 647 13 729 71 q 444 -59 565 -44 q 83 -74 322 -74 l 83 932 m 360 560 q 389 574 375 563 q 410 604 403 586 q 419 656 419 628 q 411 698 419 681 q 389 715 403 715 l 360 715 l 360 560 z "},"C":{"ha":908,"x_min":56,"x_max":853,"o":"m 540 265 q 697 314 611 258 q 853 450 783 369 l 853 113 q 723 -21 813 33 q 507 -75 633 -75 q 449 -72 490 -75 q 226 24 315 -58 q 97 221 138 106 q 56 454 56 336 q 57 497 56 483 q 115 716 63 615 q 253 878 168 817 q 442 946 339 940 q 479 947 454 947 q 649 917 582 947 q 746 843 717 888 l 742 596 q 681 649 725 621 q 579 686 638 676 q 549 689 560 689 q 456 668 501 689 q 378 607 410 647 q 342 513 346 567 q 340 486 340 504 q 389 338 340 401 q 540 265 438 275 z "},"D":{"ha":851,"x_min":83,"x_max":796,"o":"m 458 374 q 465 471 465 411 q 455 590 465 535 q 424 669 444 646 q 381 685 410 685 q 329 675 358 685 l 329 267 q 399 273 375 267 q 437 302 422 279 q 458 374 451 325 m 83 932 q 368 961 239 961 q 592 919 519 961 q 747 724 699 858 q 796 431 796 589 q 788 306 796 365 q 767 203 779 246 q 653 21 729 79 q 460 -54 576 -37 q 136 -71 344 -71 l 83 -71 l 83 932 z "},"E":{"ha":797,"x_min":83,"x_max":714,"o":"m 714 640 l 369 640 l 369 532 l 628 532 l 628 340 l 369 340 l 369 232 l 714 232 l 714 -72 l 83 -72 l 83 944 l 714 944 l 714 640 z "},"F":{"ha":728,"x_min":83,"x_max":714,"o":"m 714 640 l 369 640 l 369 450 l 628 450 l 628 258 l 369 258 l 369 -72 l 83 -72 l 83 944 l 714 944 l 714 640 z "},"G":{"ha":910,"x_min":56,"x_max":854,"o":"m 854 538 l 854 113 q 724 -21 814 33 q 508 -75 635 -75 q 450 -72 492 -75 q 226 24 315 -58 q 97 224 138 107 q 56 458 56 340 q 107 694 56 585 q 247 872 158 804 q 443 946 335 940 q 490 947 460 947 q 669 925 590 947 q 793 869 747 903 l 789 631 q 676 672 736 654 q 568 689 617 689 q 467 669 517 689 q 382 610 417 650 q 342 513 347 571 l 340 489 q 389 340 340 404 q 542 265 438 275 q 668 292 594 260 l 668 344 l 519 344 l 519 538 l 854 538 z "},"H":{"ha":975,"x_min":83,"x_max":892,"o":"m 892 944 l 892 -72 l 606 -72 l 606 340 l 369 340 l 369 -72 l 83 -72 l 83 944 l 369 944 l 369 532 l 606 532 l 606 944 l 892 944 z "},"I":{"ha":454,"x_min":83,"x_max":371,"o":"m 371 944 l 371 -72 l 83 -72 l 83 944 l 371 944 z "},"J":{"ha":563,"x_min":-42,"x_max":479,"o":"m 479 944 l 479 22 q 404 -231 479 -133 q 212 -372 329 -329 q -42 -412 94 -414 l -42 -197 q 122 -129 51 -182 q 193 22 193 -76 l 193 944 l 479 944 z "},"K":{"ha":974,"x_min":83,"x_max":918,"o":"m 572 585 q 678 427 603 504 q 899 344 753 350 l 899 -75 q 607 60 753 -36 q 371 303 461 157 l 371 -72 l 83 -72 l 83 944 l 371 944 l 371 685 l 621 944 l 918 944 l 572 585 z "},"L":{"ha":763,"x_min":83,"x_max":679,"o":"m 679 264 l 679 -72 l 83 -72 l 83 944 l 369 944 l 369 264 l 679 264 z "},"M":{"ha":1121,"x_min":83,"x_max":1038,"o":"m 1038 -72 l 751 -72 l 751 249 l 638 -72 l 483 -72 l 369 249 l 369 -72 l 83 -72 l 83 944 l 275 944 l 560 140 l 846 944 l 1038 944 l 1038 -72 z "},"N":{"ha":926,"x_min":83,"x_max":843,"o":"m 843 944 l 843 -72 l 551 -72 l 368 358 l 368 -72 l 83 -72 l 83 944 l 275 944 l 558 271 l 558 944 l 843 944 z "},"O":{"ha":946,"x_min":56,"x_max":890,"o":"m 474 193 q 532 253 510 193 q 554 436 554 314 q 532 619 554 558 q 474 681 510 681 q 415 619 438 681 q 393 436 393 558 q 415 253 393 314 q 474 193 438 193 m 56 436 q 111 717 56 603 q 261 888 167 831 q 474 944 356 944 q 686 888 592 944 q 835 717 781 831 q 890 436 890 603 q 835 156 890 269 q 686 -15 781 42 q 474 -72 592 -72 q 261 -15 356 -72 q 111 156 167 42 q 56 436 56 269 z "},"P":{"ha":861,"x_min":83,"x_max":806,"o":"m 432 550 q 443 610 443 581 q 433 661 443 640 q 407 682 424 682 l 371 682 l 371 494 q 432 550 417 504 m 83 932 l 542 932 q 683 892 622 932 q 774 785 743 851 q 806 642 806 719 q 749 449 806 536 q 583 315 689 361 q 369 253 476 268 l 369 -74 l 83 -74 l 83 932 z "},"Q":{"ha":958,"x_min":56,"x_max":917,"o":"m 390 431 q 413 253 390 311 q 472 194 436 194 q 530 253 507 194 q 553 431 553 313 q 530 606 553 547 q 472 664 507 664 q 413 606 436 664 q 390 431 390 547 m 56 429 q 110 710 56 596 q 260 881 165 825 q 472 938 354 938 q 683 881 589 938 q 833 710 778 824 q 889 429 889 596 q 856 208 889 304 q 765 44 824 111 q 917 -19 840 3 l 917 -337 q 731 -255 817 -331 q 576 -67 646 -179 q 472 -79 517 -79 q 260 -23 354 -79 q 110 148 165 33 q 56 429 56 263 z "},"R":{"ha":922,"x_min":83,"x_max":839,"o":"m 369 493 q 432 549 415 503 q 443 610 443 579 q 433 661 443 640 q 407 682 424 682 l 369 682 l 369 493 m 83 931 l 540 931 q 681 891 621 931 q 773 785 742 851 q 804 643 804 719 q 746 447 804 538 q 638 343 708 389 q 839 253 717 256 l 839 -87 q 585 33 710 -54 q 389 254 460 121 q 369 251 375 251 l 369 -74 l 83 -74 l 83 931 z "},"S":{"ha":847,"x_min":56,"x_max":792,"o":"m 417 525 q 680 438 568 507 q 792 233 792 369 q 789 197 792 222 q 683 -17 772 50 q 469 -83 594 -83 q 404 -79 438 -83 q 219 -22 311 -68 q 58 81 126 24 l 58 424 q 204 313 110 360 q 419 267 299 267 q 499 283 472 267 q 526 321 526 299 q 508 359 526 342 q 456 386 489 376 q 376 404 426 394 q 233 442 289 422 q 129 506 176 463 q 64 624 82 550 q 56 689 56 657 q 100 828 56 767 q 222 923 144 889 q 390 957 299 957 q 593 934 503 957 q 732 881 683 911 l 732 549 q 624 644 686 606 q 444 692 563 682 q 383 694 400 694 q 298 678 326 694 q 269 618 269 661 q 417 525 269 542 z "},"T":{"ha":803,"x_min":42,"x_max":761,"o":"m 761 944 l 761 640 l 546 640 l 546 -72 l 258 -72 l 258 640 l 42 640 l 42 944 l 761 944 z "},"U":{"ha":1001,"x_min":83,"x_max":918,"o":"m 918 944 l 918 424 q 863 143 918 257 q 713 -28 807 29 q 500 -85 618 -85 q 288 -28 382 -85 q 138 143 193 29 q 83 424 83 257 l 83 944 l 419 944 l 419 424 q 442 287 419 332 q 500 242 464 242 q 559 286 538 242 q 581 424 581 331 l 581 944 l 918 944 z "},"V":{"ha":949,"x_min":14,"x_max":935,"o":"m 468 440 q 546 743 511 615 q 619 946 581 871 l 935 946 q 742 465 808 697 q 633 4 676 233 q 621 -60 628 -31 l 382 -60 l 14 946 l 325 946 l 468 440 z "},"W":{"ha":1296,"x_min":14,"x_max":1282,"o":"m 844 633 q 881 788 851 706 q 967 946 911 869 l 1282 946 q 1097 597 1160 775 q 1016 279 1035 419 q 990 -29 997 139 l 989 -60 l 811 -60 l 614 431 q 468 -60 515 182 l 301 -60 l 14 946 l 326 946 l 414 625 q 478 781 429 671 q 572 946 511 856 l 719 946 l 776 783 l 844 633 z "},"X":{"ha":929,"x_min":14,"x_max":915,"o":"m 632 425 l 904 -72 l 569 -72 l 464 118 l 360 -72 l 25 -72 l 297 425 l 14 944 l 350 944 l 464 733 l 579 944 l 915 944 l 632 425 z "},"Y":{"ha":954,"x_min":14,"x_max":940,"o":"m 940 944 q 615 451 739 732 l 615 -72 l 331 -72 l 331 346 l 14 944 l 326 944 l 458 664 q 522 809 481 735 q 622 944 564 883 l 940 944 z "},"Z":{"ha":886,"x_min":83,"x_max":803,"o":"m 369 232 l 803 232 l 803 -72 l 83 -72 l 83 154 l 517 640 l 83 640 l 83 944 l 803 944 l 803 718 l 369 232 z "},"a":{"ha":814,"x_min":56,"x_max":758,"o":"m 474 285 q 333 240 364 276 q 313 189 313 218 q 327 150 313 165 q 368 135 342 135 q 426 155 399 135 q 474 207 453 175 l 474 285 m 111 282 q 265 374 161 346 q 461 410 368 403 q 353 446 433 446 q 153 410 274 446 l 153 525 q 333 595 238 567 q 514 624 429 624 q 589 617 560 624 q 702 549 665 601 q 749 428 739 497 q 758 256 758 360 l 758 -72 l 474 -72 l 474 107 q 355 -22 422 29 q 215 -72 288 -72 q 97 -17 139 -72 q 56 117 56 38 q 70 205 56 161 q 111 282 85 249 z "},"b":{"ha":826,"x_min":83,"x_max":785,"o":"m 450 232 q 464 325 464 283 q 451 399 464 371 q 415 424 439 428 q 371 411 381 415 l 371 136 q 418 171 397 147 q 450 232 439 194 m 83 932 l 371 932 l 371 556 q 560 622 476 622 q 597 618 579 622 q 731 520 678 599 q 785 340 785 442 q 768 233 785 288 q 645 37 728 103 q 432 -52 563 -29 q 83 -74 301 -75 l 83 932 z "},"c":{"ha":704,"x_min":42,"x_max":663,"o":"m 435 167 q 456 165 442 165 q 560 204 504 165 q 663 297 617 243 l 663 58 q 567 -33 632 4 q 407 -71 501 -71 q 367 -69 381 -71 q 127 38 213 -54 q 42 281 42 131 q 92 474 42 397 q 222 588 142 551 q 390 625 301 625 q 515 604 465 625 q 586 551 565 583 l 582 374 q 540 412 574 390 q 463 440 507 433 q 443 442 456 442 q 366 412 397 442 q 329 326 335 382 q 326 292 326 304 q 435 167 326 188 z "},"d":{"ha":826,"x_min":42,"x_max":743,"o":"m 411 124 q 457 138 449 132 l 457 411 q 376 317 396 388 q 364 222 364 271 q 376 148 364 176 q 411 124 389 119 m 58 317 q 197 522 103 456 q 457 608 290 588 l 457 932 l 743 932 l 743 -74 l 457 -74 l 457 -7 q 271 -74 351 -74 q 157 -36 210 -74 q 73 67 104 1 q 42 208 42 132 q 58 317 42 261 z "},"e":{"ha":708,"x_min":42,"x_max":667,"o":"m 443 450 q 424 451 436 451 q 356 430 386 451 q 314 368 326 408 l 499 368 q 443 450 485 442 m 42 279 q 92 474 42 397 q 220 585 142 550 q 386 619 299 619 q 583 533 521 619 q 646 315 646 446 q 644 274 646 288 l 315 274 q 338 203 317 229 q 417 167 360 176 q 440 164 431 164 q 549 197 488 164 q 667 278 611 231 l 667 43 q 555 -39 626 -6 q 393 -72 483 -72 q 351 -71 365 -72 q 123 37 204 -57 q 42 279 42 131 z "},"f":{"ha":601,"x_min":83,"x_max":588,"o":"m 189 950 q 322 978 236 978 q 588 933 439 978 l 588 601 q 557 652 585 625 q 491 697 529 679 q 424 715 453 715 q 371 660 371 715 l 371 511 l 565 511 l 565 378 l 371 378 l 371 -69 l 85 -69 l 85 576 l 83 679 q 104 847 83 779 q 189 950 125 915 z "},"g":{"ha":868,"x_min":83,"x_max":785,"o":"m 418 313 q 404 218 404 260 q 417 144 404 172 q 450 121 429 115 q 497 135 489 129 l 497 408 q 418 313 438 383 m 83 -92 q 196 -189 125 -154 q 338 -224 267 -224 q 452 -192 407 -224 q 497 -101 497 -160 l 497 -11 q 307 -76 386 -76 q 271 -72 288 -76 q 137 25 190 -53 q 83 204 83 103 q 100 313 83 257 q 223 508 140 442 q 436 597 306 574 q 785 618 567 619 l 785 -136 q 700 -404 785 -322 q 482 -486 615 -486 q 314 -459 400 -486 q 165 -392 228 -432 q 83 -318 101 -353 l 83 -92 z "},"h":{"ha":868,"x_min":83,"x_max":786,"o":"m 597 618 q 695 564 651 606 q 763 461 739 522 q 785 331 786 400 l 785 -74 l 463 -74 l 463 329 q 449 403 461 376 q 417 424 438 429 q 371 410 400 419 l 371 -74 l 83 -74 l 83 932 l 371 932 l 371 556 q 560 622 476 622 q 597 618 579 622 z "},"i":{"ha":475,"x_min":83,"x_max":392,"o":"m 382 625 l 382 -68 l 94 -68 l 94 625 l 382 625 m 83 846 q 128 963 83 914 q 238 1011 174 1011 q 347 963 301 1011 q 392 846 392 914 q 347 730 392 778 q 238 682 301 682 q 128 730 174 682 q 83 846 83 778 z "},"j":{"ha":521,"x_min":-42,"x_max":438,"o":"m 428 625 l 428 -94 q 360 -386 428 -272 q 187 -551 293 -500 q -42 -600 81 -601 l -42 -142 q 14 -184 -14 -169 q 65 -199 42 -199 q 121 -172 100 -199 q 142 -94 142 -144 l 142 625 l 428 625 m 128 844 q 174 961 128 913 q 283 1010 219 1010 q 392 962 347 1010 q 438 844 438 914 q 392 729 438 776 q 283 682 347 682 q 174 729 219 682 q 128 844 128 776 z "},"k":{"ha":778,"x_min":83,"x_max":722,"o":"m 499 389 q 574 303 524 339 q 704 265 624 267 l 704 -78 q 526 1 617 -54 q 369 140 435 57 l 369 -74 l 83 -74 l 83 932 l 369 932 l 369 475 l 510 621 l 722 621 l 499 389 z "},"l":{"ha":540,"x_min":69,"x_max":471,"o":"m 356 322 q 363 281 356 289 q 388 274 369 274 q 422 294 396 274 q 471 340 447 315 l 471 -19 q 356 -62 415 -44 q 250 -79 297 -79 q 208 -74 233 -79 q 102 38 135 -50 q 69 274 69 125 l 69 932 l 356 932 l 356 322 z "},"m":{"ha":1244,"x_min":83,"x_max":1163,"o":"m 974 619 q 1070 565 1026 607 q 1138 463 1114 524 q 1161 332 1163 401 l 1161 -72 l 838 -72 l 838 331 q 826 405 838 378 q 793 428 814 432 q 758 417 774 424 q 767 332 767 375 l 767 -72 l 443 -72 l 443 331 q 431 406 443 378 q 399 428 419 433 l 369 418 l 369 -72 l 83 -72 l 83 618 l 369 618 l 369 568 q 540 624 467 624 q 579 619 561 624 q 706 531 656 597 q 819 596 757 568 q 938 624 882 624 q 974 619 956 624 z "},"n":{"ha":892,"x_min":83,"x_max":810,"o":"m 619 619 q 717 565 674 607 q 785 463 761 524 q 808 332 810 401 l 808 -72 l 485 -72 l 485 332 q 473 406 485 381 q 432 432 461 432 q 369 413 397 432 l 369 -72 l 83 -72 l 83 618 l 369 618 l 369 553 q 581 624 500 624 q 619 619 601 624 z "},"o":{"ha":779,"x_min":42,"x_max":738,"o":"m 389 157 q 431 188 417 157 q 446 269 446 218 q 431 351 446 319 q 389 382 417 382 q 348 351 363 382 q 333 269 333 319 q 348 188 333 218 q 389 157 363 157 m 42 269 q 83 451 42 369 q 202 579 124 532 q 389 626 281 626 q 576 579 497 626 q 696 451 654 532 q 738 269 738 369 q 696 88 738 169 q 576 -40 654 7 q 389 -87 497 -87 q 202 -40 281 -87 q 83 88 124 7 q 42 269 42 169 z "},"p":{"ha":826,"x_min":83,"x_max":785,"o":"m 450 229 q 464 322 464 281 q 451 398 464 369 q 415 422 439 426 q 371 408 385 415 l 371 135 q 450 229 431 158 m 83 618 l 371 618 l 371 554 q 556 619 476 619 q 597 614 579 619 q 731 517 678 594 q 785 338 785 439 q 768 229 785 286 q 630 24 724 90 q 371 -62 536 -42 l 371 -431 l 83 -431 l 83 618 z "},"q":{"ha":826,"x_min":42,"x_max":743,"o":"m 376 313 q 363 218 363 261 q 375 145 363 174 q 410 122 388 117 q 456 135 440 126 l 456 408 q 376 313 396 383 m 58 313 q 182 508 100 442 q 394 597 264 574 q 743 618 525 619 l 743 -436 l 456 -436 l 456 -11 q 267 -76 347 -76 q 229 -72 249 -76 q 95 25 149 -53 q 42 204 42 103 q 58 313 42 257 z "},"r":{"ha":601,"x_min":83,"x_max":560,"o":"m 368 572 q 514 624 446 624 q 560 617 535 624 l 560 297 q 494 370 521 347 q 449 398 467 393 q 407 403 432 403 q 381 388 390 403 q 368 347 372 374 l 368 -72 l 83 -72 l 83 624 l 368 624 l 368 572 z "},"s":{"ha":682,"x_min":56,"x_max":626,"o":"m 338 360 q 472 325 406 353 q 583 248 539 297 q 626 131 626 199 q 625 104 626 113 q 544 -46 613 1 q 378 -93 475 -93 q 328 -90 361 -93 q 184 -51 256 -83 q 58 22 113 -18 l 58 308 q 171 218 96 257 q 342 179 246 179 q 419 201 419 181 q 406 217 419 208 q 367 231 392 225 q 304 244 344 238 q 194 272 238 257 q 113 316 150 286 q 63 399 76 346 q 56 444 56 426 q 90 543 56 500 q 183 610 125 586 q 313 635 242 635 q 473 619 401 635 q 582 582 544 603 l 582 336 q 354 417 531 388 q 267 426 292 426 q 226 403 226 426 q 338 360 226 371 z "},"t":{"ha":601,"x_min":83,"x_max":518,"o":"m 369 321 q 376 280 369 288 q 401 272 383 272 q 446 291 410 272 q 518 333 482 310 l 518 -19 q 415 -68 471 -49 q 304 -87 358 -87 q 221 -74 261 -87 q 116 41 149 -46 q 83 274 83 128 l 83 931 l 369 931 l 369 619 l 485 619 l 485 488 l 369 488 l 369 321 z "},"u":{"ha":892,"x_min":82,"x_max":808,"o":"m 808 -71 l 522 -71 l 522 -6 q 310 -76 393 -76 q 196 -37 249 -76 q 113 70 143 3 q 83 215 82 138 l 83 619 l 407 619 l 407 215 q 419 140 408 165 q 458 115 431 115 q 522 135 494 115 l 522 619 l 808 619 l 808 -71 z "},"v":{"ha":769,"x_min":14,"x_max":756,"o":"m 756 619 l 461 -71 l 308 -71 l 14 619 l 306 619 l 385 346 l 464 619 l 756 619 z "},"w":{"ha":1154,"x_min":14,"x_max":1140,"o":"m 1140 619 l 904 -71 l 707 -71 l 578 282 l 447 -71 l 250 -71 l 14 619 l 304 619 l 353 349 l 453 619 l 701 619 l 801 349 l 850 619 l 1140 619 z "},"x":{"ha":704,"x_min":14,"x_max":690,"o":"m 499 274 l 690 -71 l 400 -71 l 353 97 l 306 -71 l 14 -71 l 207 274 l 14 619 l 306 619 l 353 451 l 400 619 l 690 619 l 499 274 z "},"y":{"ha":892,"x_min":83,"x_max":808,"o":"m 808 -60 q 741 -351 808 -237 q 567 -515 674 -465 q 339 -565 461 -565 l 339 -147 q 426 -185 382 -185 q 495 -151 468 -185 q 522 -60 522 -117 l 522 -6 q 311 -76 393 -76 q 272 -72 292 -76 q 137 28 190 -53 q 83 215 83 110 l 83 619 l 407 619 l 407 215 q 419 141 407 167 q 460 115 431 115 q 522 133 492 115 l 522 619 l 808 619 l 808 -60 z "},"z":{"ha":821,"x_min":83,"x_max":738,"o":"m 738 -72 l 83 -72 l 83 69 l 411 351 l 83 351 l 83 619 l 738 619 l 738 478 l 451 232 l 738 232 l 738 -72 z "},"가":{"ha":1243,"x_min":83,"x_max":1215,"o":"m 83 417 q 139 428 83 417 q 302 469 232 442 q 437 578 372 497 q 528 811 501 658 q 146 704 413 718 l 146 1036 l 639 1036 q 690 726 690 881 q 608 372 690 528 q 399 129 525 215 q 147 43 272 43 q 83 50 118 43 l 83 417 m 749 1088 l 1040 1088 l 1040 854 l 1215 854 l 1215 510 q 1131 519 1167 510 q 1067 565 1094 529 q 1040 676 1040 601 l 1040 -175 l 749 -175 l 749 1088 z "},"각":{"ha":1243,"x_min":83,"x_max":1215,"o":"m 83 625 q 113 628 94 626 q 142 629 132 629 q 303 649 233 633 q 438 718 374 664 q 528 881 501 772 q 146 774 413 788 l 146 1064 l 639 1064 q 686 806 686 928 q 608 535 686 646 q 414 371 531 425 q 181 317 297 317 q 83 328 131 317 l 83 625 m 267 269 l 1040 269 l 1040 -175 l 749 -175 l 749 22 q 579 -12 686 -4 q 322 -19 472 -19 l 267 -19 l 267 269 m 749 1088 l 1040 1088 l 1040 854 l 1215 854 l 1215 510 q 1131 519 1167 510 q 1067 565 1094 529 q 1040 676 1040 601 l 1040 331 l 749 331 l 749 1088 z "},"간":{"ha":1243,"x_min":83,"x_max":1215,"o":"m 83 625 q 113 628 94 626 q 142 629 132 629 q 303 649 233 633 q 438 718 374 664 q 528 881 501 772 q 146 774 413 788 l 146 1064 l 639 1064 q 686 806 686 928 q 608 535 686 646 q 414 371 531 425 q 181 317 297 317 q 83 328 131 317 l 83 625 m 229 269 l 521 269 q 517 183 521 218 q 494 114 513 149 l 1076 114 l 1076 -175 l 229 -175 l 229 269 m 749 1088 l 1040 1088 l 1040 854 l 1215 854 l 1215 510 q 1131 519 1167 510 q 1067 565 1094 529 q 1040 676 1040 601 l 1040 190 l 749 190 l 749 1088 z "},"갇":{"ha":1243,"x_min":83,"x_max":1215,"o":"m 140 661 q 303 679 233 665 q 437 743 372 693 q 528 894 501 793 q 146 794 414 808 l 146 1065 l 639 1065 q 686 825 686 939 q 608 572 686 675 q 413 419 531 469 q 179 369 296 369 q 83 379 124 369 l 83 657 l 140 661 m 279 349 l 1039 349 l 1039 161 l 571 161 l 571 107 l 1053 139 l 1053 -178 l 279 -178 l 279 349 m 749 1088 l 1040 1088 l 1040 854 l 1215 854 l 1215 510 q 1131 519 1167 510 q 1067 565 1094 529 q 1040 676 1040 601 l 1040 382 l 749 382 l 749 1088 z "},"갈":{"ha":1243,"x_min":83,"x_max":1215,"o":"m 142 671 q 303 688 233 675 q 437 751 372 701 q 528 897 501 800 q 146 801 411 811 l 146 1064 l 639 1064 q 686 831 686 940 q 608 586 686 686 q 412 438 529 486 q 178 389 294 389 q 83 399 124 389 l 83 667 l 142 671 m 279 125 l 749 125 l 749 149 l 279 149 l 279 358 l 1040 358 l 1040 58 l 571 58 l 571 35 l 1115 35 l 1115 -175 l 279 -175 l 279 125 m 749 1088 l 1040 1088 l 1040 854 l 1215 854 l 1215 510 q 1131 519 1167 510 q 1067 565 1094 529 q 1040 676 1040 601 l 1040 400 l 749 400 l 749 1088 z "},"갉":{"ha":1243,"x_min":83,"x_max":1215,"o":"m 140 679 q 303 697 233 683 q 437 760 372 711 q 528 908 501 810 q 146 811 411 821 l 146 1075 l 639 1075 q 686 840 686 951 q 608 594 686 694 q 413 444 531 493 q 179 394 296 394 q 83 404 124 394 l 83 675 l 140 679 m 179 125 l 296 125 l 296 149 l 179 149 l 179 358 l 589 358 l 589 58 l 471 58 l 471 35 l 664 35 l 664 -175 l 179 -175 l 179 125 m 615 358 l 1040 358 l 1040 -175 l 749 -175 l 749 111 q 698 76 729 82 q 615 69 667 69 l 615 358 m 749 1088 l 1040 1088 l 1040 854 l 1215 854 l 1215 510 q 1131 519 1167 510 q 1067 565 1094 529 q 1040 676 1040 601 l 1040 400 l 749 400 l 749 1088 z "},"갊":{"ha":1243,"x_min":83,"x_max":1215,"o":"m 1215 510 q 1131 519 1167 510 q 1067 565 1094 529 q 1040 676 1040 601 l 1040 400 l 749 400 l 749 1088 l 1040 1088 l 1040 854 l 1215 854 l 1215 510 m 140 679 q 303 697 233 683 q 437 760 372 711 q 528 908 501 810 q 146 811 411 821 l 146 1075 l 639 1075 q 686 840 686 951 q 608 594 686 694 q 413 444 531 493 q 179 394 296 394 q 83 404 124 394 l 83 675 l 140 679 m 179 125 l 296 125 l 296 149 l 179 149 l 179 358 l 589 358 l 589 58 l 471 58 l 471 35 l 589 35 l 589 -175 l 179 -175 l 179 125 m 615 358 l 1040 358 l 1040 -175 l 749 -175 l 749 -108 q 710 -164 747 -153 q 615 -175 672 -175 l 615 358 m 749 31 l 749 199 l 696 199 l 696 31 l 749 31 z "},"갋":{"ha":1243,"x_min":83,"x_max":1215,"o":"m 1215 510 q 1131 519 1167 510 q 1067 565 1094 529 q 1040 676 1040 601 l 1040 400 l 749 400 l 749 1088 l 1040 1088 l 1040 854 l 1215 854 l 1215 510 m 140 679 q 303 697 233 683 q 437 760 372 711 q 528 908 501 810 q 146 811 411 821 l 146 1075 l 639 1075 q 686 840 686 951 q 608 594 686 694 q 413 444 531 493 q 179 394 296 394 q 83 404 124 394 l 83 675 l 140 679 m 179 125 l 296 125 l 296 149 l 179 149 l 179 358 l 589 358 l 589 58 l 471 58 l 471 35 l 589 35 l 589 -175 l 179 -175 l 179 125 m 615 358 l 696 358 l 696 303 l 749 303 l 749 358 l 1040 358 l 1040 -175 l 749 -175 l 749 -108 q 710 -164 747 -153 q 615 -175 672 -175 l 615 358 m 749 31 l 749 143 l 696 143 l 696 31 l 749 31 z "},"감":{"ha":1243,"x_min":83,"x_max":1215,"o":"m 83 625 q 113 628 94 626 q 142 629 132 629 q 303 649 233 633 q 438 718 374 664 q 528 881 501 772 q 146 774 413 788 l 146 1064 l 639 1064 q 686 806 686 928 q 608 535 686 646 q 414 371 531 425 q 181 317 297 317 q 83 328 131 317 l 83 625 m 239 289 l 1040 289 l 1040 -175 l 749 -175 l 749 -106 q 573 -163 747 -151 q 239 -175 399 -175 l 239 289 m 749 31 l 749 115 l 608 115 l 608 31 l 749 31 m 749 1088 l 1040 1088 l 1040 854 l 1215 854 l 1215 510 q 1131 519 1167 510 q 1067 565 1094 529 q 1040 676 1040 601 l 1040 331 l 749 331 l 749 1088 z "},"갑":{"ha":1243,"x_min":83,"x_max":1215,"o":"m 83 625 q 113 628 94 626 q 142 629 132 629 q 303 649 233 633 q 438 718 374 664 q 528 881 501 772 q 146 774 413 788 l 146 1064 l 639 1064 q 686 806 686 928 q 608 535 686 646 q 414 371 531 425 q 181 317 297 317 q 83 328 131 317 l 83 625 m 251 289 l 619 289 l 619 219 l 749 219 l 749 289 l 1040 289 l 1040 -175 l 749 -175 l 749 -106 q 577 -163 747 -151 q 251 -175 407 -175 l 251 289 m 749 31 l 749 101 l 619 101 l 619 31 l 749 31 m 749 1088 l 1040 1088 l 1040 854 l 1215 854 l 1215 510 q 1131 519 1167 510 q 1067 565 1094 529 q 1040 676 1040 601 l 1040 331 l 749 331 l 749 1088 z "},"값":{"ha":1243,"x_min":83,"x_max":1215,"o":"m 1215 510 q 1131 519 1167 510 q 1067 565 1094 529 q 1040 676 1040 601 l 1040 331 l 749 331 l 749 1088 l 1040 1088 l 1040 854 l 1215 854 l 1215 510 m 139 660 q 302 678 232 664 q 437 744 372 693 q 528 900 501 796 q 146 797 414 811 l 146 1075 l 639 1075 q 686 828 686 946 q 608 569 686 675 q 412 413 529 464 q 178 361 294 361 q 83 371 124 361 l 83 656 l 139 660 m 151 303 l 232 303 l 232 247 l 285 247 l 285 303 l 564 303 l 564 -175 l 285 -175 l 285 -108 q 246 -164 283 -153 q 151 -175 208 -175 l 151 303 m 285 31 l 285 129 l 232 129 l 232 31 l 285 31 m 592 183 q 674 168 636 168 q 763 207 735 168 q 789 303 790 246 l 943 303 q 961 186 961 247 q 957 132 961 160 l 1068 132 l 1068 -76 q 1040 -157 1068 -125 q 967 -189 1011 -189 q 894 -157 922 -189 q 865 -76 865 -125 l 865 -71 q 763 -154 819 -124 q 650 -185 707 -185 q 592 -175 619 -185 l 592 183 z "},"갓":{"ha":1243,"x_min":83,"x_max":1215,"o":"m 83 625 q 113 628 94 626 q 142 629 132 629 q 303 649 233 633 q 438 718 374 664 q 528 881 501 772 q 146 774 413 788 l 146 1064 l 639 1064 q 686 806 686 928 q 608 535 686 646 q 414 371 531 425 q 181 317 297 317 q 83 328 131 317 l 83 625 m 189 183 q 328 168 258 168 q 537 207 443 168 q 689 303 631 246 l 842 303 q 846 239 849 271 l 1036 239 l 1036 -40 q 997 -147 1036 -104 q 900 -189 958 -189 q 804 -147 843 -189 q 765 -40 765 -104 l 765 51 q 545 -118 682 -51 q 278 -185 408 -185 q 189 -175 228 -185 l 189 183 m 749 1088 l 1040 1088 l 1040 854 l 1215 854 l 1215 510 q 1131 519 1167 510 q 1067 565 1094 529 q 1040 676 1040 601 l 1040 350 l 749 350 l 749 1088 z "},"갔":{"ha":1243,"x_min":83,"x_max":1215,"o":"m 83 625 q 113 628 94 626 q 142 629 132 629 q 303 649 233 633 q 438 718 374 664 q 528 881 501 772 q 146 774 413 788 l 146 1064 l 639 1064 q 686 806 686 928 q 608 535 686 646 q 414 371 531 425 q 181 317 297 317 q 83 328 131 317 l 83 625 m 115 183 q 189 168 154 168 q 276 207 246 168 q 313 303 307 246 l 465 303 q 485 189 485 249 q 481 132 485 160 l 581 132 l 581 -76 q 551 -157 581 -125 q 478 -189 522 -189 q 408 -160 438 -189 q 376 -85 379 -131 q 281 -158 333 -132 q 175 -185 228 -185 q 115 -175 143 -185 l 115 183 m 603 183 q 676 168 643 168 q 765 207 733 168 q 803 303 796 246 l 954 303 q 975 185 975 243 q 971 132 975 157 l 1082 132 l 1082 -76 q 1053 -157 1082 -125 q 979 -189 1024 -189 q 907 -157 936 -189 q 878 -76 878 -125 l 878 -71 q 776 -154 833 -124 q 663 -185 719 -185 q 603 -175 631 -185 l 603 183 m 749 1088 l 1040 1088 l 1040 854 l 1215 854 l 1215 510 q 1131 519 1167 510 q 1067 565 1094 529 q 1040 676 1040 601 l 1040 331 l 749 331 l 749 1088 z "},"강":{"ha":1243,"x_min":83,"x_max":1215,"o":"m 83 625 q 113 628 94 626 q 142 629 132 629 q 303 649 233 633 q 438 718 374 664 q 528 881 501 772 q 146 774 413 788 l 146 1064 l 639 1064 q 686 806 686 928 q 608 535 686 646 q 414 371 531 425 q 181 317 297 317 q 83 328 131 317 l 83 625 m 188 54 q 290 242 188 171 q 619 313 393 313 q 950 242 847 313 q 1053 54 1053 171 q 950 -133 1053 -62 q 619 -204 847 -204 q 290 -133 393 -204 q 188 54 188 -62 m 556 54 q 619 -18 556 -18 q 685 54 685 -18 q 619 126 685 126 q 556 54 556 126 m 749 1088 l 1040 1088 l 1040 854 l 1215 854 l 1215 510 q 1131 519 1167 510 q 1067 565 1094 529 q 1040 676 1040 601 l 1040 331 l 749 331 l 749 1088 z "},"갖":{"ha":1243,"x_min":83,"x_max":1215,"o":"m 83 625 q 113 628 94 626 q 142 629 132 629 q 303 649 233 633 q 438 718 374 664 q 528 881 501 772 q 146 774 413 788 l 146 1064 l 639 1064 q 686 806 686 928 q 608 535 686 646 q 414 371 531 425 q 181 317 297 317 q 83 328 131 317 l 83 625 m 189 142 q 307 129 251 129 q 544 188 433 129 l 317 188 l 317 303 l 842 303 q 846 257 846 281 q 839 197 846 229 l 1036 197 l 1036 -40 q 997 -147 1036 -104 q 900 -189 958 -189 q 804 -147 843 -189 q 765 -40 765 -104 l 765 51 q 545 -118 682 -51 q 278 -185 408 -185 q 189 -175 228 -185 l 189 142 m 749 1088 l 1040 1088 l 1040 854 l 1215 854 l 1215 510 q 1131 519 1167 510 q 1067 565 1094 529 q 1040 676 1040 601 l 1040 331 l 749 331 l 749 1088 z "},"갗":{"ha":1243,"x_min":83,"x_max":1215,"o":"m 140 660 q 303 678 233 664 q 437 742 372 692 q 528 893 501 792 q 146 793 414 807 l 146 1064 l 639 1064 q 686 824 686 938 q 608 572 686 675 q 412 419 529 469 q 178 369 294 369 q 83 379 124 369 l 83 656 l 140 660 m 189 156 q 314 142 253 142 q 557 201 443 142 l 317 201 l 317 303 l 842 303 q 846 254 846 278 q 843 211 846 239 l 1036 211 l 1036 -40 q 997 -147 1036 -104 q 900 -189 958 -189 q 804 -147 843 -189 q 765 -40 765 -104 l 765 51 q 545 -118 682 -51 q 278 -185 408 -185 q 189 -175 228 -185 l 189 156 m 488 428 l 710 428 l 710 340 l 488 340 l 488 428 m 749 1088 l 1040 1088 l 1040 854 l 1215 854 l 1215 510 q 1131 519 1167 510 q 1067 565 1094 529 q 1040 676 1040 601 l 1040 354 l 749 354 l 749 1088 z "},"같":{"ha":1243,"x_min":83,"x_max":1215,"o":"m 83 625 q 113 628 94 626 q 142 629 132 629 q 303 649 233 633 q 438 718 374 664 q 528 881 501 772 q 146 774 413 788 l 146 1064 l 639 1064 q 686 806 686 928 q 608 535 686 646 q 414 371 531 425 q 181 317 297 317 q 83 328 131 317 l 83 625 m 317 317 l 1040 317 l 1040 208 l 610 208 l 610 174 l 1040 174 l 1040 107 l 610 107 l 610 72 l 1076 72 l 1076 -175 l 317 -175 l 317 317 m 749 1088 l 1040 1088 l 1040 854 l 1215 854 l 1215 510 q 1131 519 1167 510 q 1067 565 1094 529 q 1040 676 1040 601 l 1040 374 l 749 374 l 749 1088 z "},"갚":{"ha":1243,"x_min":83,"x_max":1215,"o":"m 83 625 q 113 628 94 626 q 142 629 132 629 q 303 649 233 633 q 438 718 374 664 q 528 881 501 772 q 146 774 413 788 l 146 1064 l 639 1064 q 686 806 686 928 q 608 535 686 646 q 414 371 531 425 q 181 317 297 317 q 83 328 131 317 l 83 625 m 215 44 l 425 44 q 308 181 324 82 l 215 181 l 215 303 l 1040 303 l 1040 181 l 947 181 q 831 44 931 82 l 1040 44 l 1040 -175 l 215 -175 l 215 44 m 650 44 l 650 181 l 606 181 l 606 44 l 650 44 m 749 1088 l 1040 1088 l 1040 854 l 1215 854 l 1215 510 q 1131 519 1167 510 q 1067 565 1094 529 q 1040 676 1040 601 l 1040 361 l 749 361 l 749 1088 z "},"갛":{"ha":1243,"x_min":83,"x_max":1215,"o":"m 83 653 q 143 657 89 654 q 305 676 235 661 q 439 741 375 690 q 528 893 503 792 q 146 792 414 806 l 146 1064 l 639 1064 q 686 822 686 936 q 608 569 686 672 q 413 416 531 467 q 179 365 296 365 q 83 375 124 365 l 83 653 m 224 311 l 457 311 l 457 374 l 838 374 q 826 311 838 338 l 1068 311 l 1068 119 l 224 119 l 224 311 m 258 -50 q 349 60 258 18 q 646 101 439 101 q 943 60 853 101 q 1033 -50 1033 18 q 943 -162 1033 -121 q 646 -204 853 -204 q 349 -162 439 -204 q 258 -50 258 -119 m 619 -49 q 646 -107 619 -107 q 672 -49 672 -107 q 646 4 672 4 q 619 -49 619 4 m 749 1088 l 1040 1088 l 1040 854 l 1215 854 l 1215 510 q 1131 519 1167 510 q 1067 565 1094 529 q 1040 676 1040 601 l 1040 406 l 749 406 l 749 1088 z "},"개":{"ha":1208,"x_min":83,"x_max":1125,"o":"m 83 417 q 131 428 86 418 q 267 469 208 442 q 381 578 326 497 q 456 811 435 658 q 136 704 361 718 l 136 1036 l 547 1036 q 590 726 590 882 q 522 372 590 528 q 347 129 453 215 q 136 43 240 43 q 83 50 111 43 l 83 417 m 632 1032 l 861 1032 l 861 799 l 894 799 l 894 1088 l 1125 1088 l 1125 -175 l 894 -175 l 894 371 l 861 371 l 861 -64 l 632 -64 l 632 1032 z "},"객":{"ha":1208,"x_min":83,"x_max":1125,"o":"m 131 575 q 267 608 207 586 q 381 696 326 631 q 456 883 435 761 q 136 797 360 808 l 136 1064 l 547 1064 q 590 815 590 939 q 522 531 590 657 q 347 336 453 406 q 138 267 242 267 q 83 272 106 267 l 83 567 l 131 575 m 351 269 l 1125 269 l 1125 -175 l 832 -175 l 832 22 q 665 -12 772 -4 q 407 -19 557 -19 l 351 -19 l 351 269 m 632 1060 l 861 1060 l 861 882 l 894 882 l 894 1088 l 1125 1088 l 1125 325 l 894 325 l 894 496 l 861 496 l 861 325 l 632 325 l 632 1060 z "},"갠":{"ha":1244,"x_min":83,"x_max":1161,"o":"m 1124 1088 l 1124 200 l 894 200 l 894 496 l 861 496 l 861 200 l 631 200 l 631 1060 l 861 1060 l 861 882 l 894 882 l 894 1088 l 1124 1088 m 131 575 q 266 608 207 586 q 379 696 325 631 q 454 883 433 761 q 135 797 358 807 l 135 1064 l 547 1064 q 590 815 590 933 q 522 531 590 656 q 347 336 453 406 q 138 267 242 267 q 83 272 107 267 l 83 567 l 131 575 m 313 269 l 604 269 q 600 183 604 218 q 579 114 596 149 l 1161 114 l 1161 -175 l 313 -175 l 313 269 z "},"갣":{"ha":1219,"x_min":83,"x_max":1136,"o":"m 1125 1088 l 1125 383 l 894 383 l 894 556 l 860 556 l 860 383 l 632 383 l 632 1063 l 860 1063 l 860 913 l 894 913 l 894 1088 l 1125 1088 m 131 615 q 266 646 207 625 q 379 727 325 667 q 454 900 433 788 q 136 819 357 829 l 136 1067 l 547 1067 q 590 838 590 951 q 522 574 590 690 q 347 394 453 458 q 136 331 240 331 q 83 335 108 331 l 83 607 l 131 615 m 363 349 l 1122 349 l 1122 161 l 656 161 l 656 107 l 1136 139 l 1136 -178 l 363 -178 l 363 349 z "},"갤":{"ha":1283,"x_min":82,"x_max":1200,"o":"m 364 125 l 832 125 l 832 149 l 364 149 l 364 358 l 1124 358 l 1124 58 l 654 58 l 654 35 l 1200 35 l 1200 -175 l 364 -175 l 364 125 m 83 604 q 129 611 82 604 q 265 642 206 621 q 378 723 324 663 q 454 897 433 783 q 136 817 360 828 l 136 1064 l 549 1064 q 592 835 592 943 q 522 571 592 688 q 347 390 453 454 q 136 326 242 326 q 83 331 108 326 l 83 604 m 632 1063 l 861 1063 l 861 924 l 894 924 l 894 1088 l 1124 1088 l 1124 401 l 894 401 l 894 538 l 861 538 l 861 401 l 632 401 l 632 1063 z "},"갬":{"ha":1208,"x_min":83,"x_max":1125,"o":"m 1125 -175 l 832 -175 l 832 -106 q 656 -163 831 -151 q 324 -175 482 -175 l 324 289 l 1125 289 l 1125 -175 m 131 575 q 267 608 207 586 q 381 696 326 631 q 456 883 435 761 q 136 797 360 808 l 136 1064 l 547 1064 q 590 815 590 939 q 522 531 590 657 q 347 336 453 406 q 138 267 242 267 q 83 272 106 267 l 83 567 l 131 575 m 632 1060 l 861 1060 l 861 882 l 894 882 l 894 1088 l 1125 1088 l 1125 325 l 894 325 l 894 496 l 861 496 l 861 325 l 632 325 l 632 1060 m 832 31 l 832 115 l 692 115 l 692 31 l 832 31 z "},"갭":{"ha":1208,"x_min":83,"x_max":1125,"o":"m 1125 289 l 1125 -175 l 832 -175 l 832 -106 q 661 -163 831 -151 q 336 -175 492 -175 l 336 289 l 706 289 l 706 219 l 832 219 l 832 289 l 1125 289 m 131 575 q 267 608 207 586 q 381 696 326 631 q 456 883 435 761 q 136 797 360 808 l 136 1064 l 547 1064 q 590 815 590 939 q 522 531 590 657 q 347 336 453 406 q 138 267 242 267 q 83 272 106 267 l 83 567 l 131 575 m 632 1060 l 861 1060 l 861 896 l 894 896 l 894 1088 l 1125 1088 l 1125 325 l 894 325 l 894 510 l 861 510 l 861 325 l 632 325 l 632 1060 m 832 31 l 832 101 l 706 101 l 706 31 l 832 31 z "},"갯":{"ha":1208,"x_min":83,"x_max":1125,"o":"m 275 183 q 414 168 344 168 q 623 207 529 168 q 774 303 717 246 l 926 303 q 931 239 933 271 l 1121 239 l 1121 -40 q 1082 -147 1121 -104 q 985 -189 1043 -189 q 889 -147 928 -189 q 850 -40 850 -104 l 850 51 q 630 -118 767 -51 q 363 -185 493 -185 q 275 -175 314 -185 l 275 183 m 131 575 q 267 608 207 586 q 381 696 326 631 q 456 883 435 761 q 136 797 360 808 l 136 1064 l 547 1064 q 590 815 590 939 q 522 531 590 657 q 347 336 453 406 q 138 267 242 267 q 83 272 106 267 l 83 567 l 131 575 m 632 1060 l 861 1060 l 861 910 l 894 910 l 894 1088 l 1125 1088 l 1125 342 l 894 342 l 894 524 l 861 524 l 861 342 l 632 342 l 632 1060 z "},"갰":{"ha":1246,"x_min":83,"x_max":1163,"o":"m 686 183 q 760 168 726 168 q 847 207 817 168 q 883 303 878 246 l 1038 303 q 1057 192 1057 250 q 1051 132 1057 158 l 1163 132 l 1163 -76 q 1134 -157 1163 -125 q 1063 -189 1106 -189 q 990 -157 1019 -189 q 961 -76 961 -125 l 961 -71 q 858 -154 914 -124 q 744 -185 801 -185 q 686 -175 714 -185 l 686 183 m 131 575 q 265 608 207 586 q 378 696 324 631 q 453 883 432 761 q 135 797 357 807 l 135 1064 l 546 1064 q 589 815 589 933 q 520 531 589 657 q 347 336 451 406 q 138 267 242 267 q 83 272 106 267 l 83 567 l 131 575 m 197 183 q 271 168 236 168 q 358 207 328 168 q 396 303 389 246 l 547 303 q 568 185 568 243 q 564 132 568 157 l 663 132 l 663 -76 q 633 -157 663 -125 q 561 -189 604 -189 q 490 -160 519 -189 q 460 -85 461 -131 q 363 -158 415 -132 q 257 -185 310 -185 q 197 -175 225 -185 l 197 183 m 629 1060 l 860 1060 l 860 882 l 893 882 l 893 1088 l 1122 1088 l 1122 325 l 893 325 l 893 496 l 860 496 l 860 325 l 629 325 l 629 1060 z "},"갱":{"ha":1219,"x_min":83,"x_max":1136,"o":"m 703 -204 q 375 -133 478 -204 q 272 54 272 -62 q 375 242 272 171 q 703 313 478 313 q 1033 242 931 313 q 1136 54 1136 171 q 1033 -133 1136 -62 q 703 -204 931 -204 m 131 575 q 266 608 207 586 q 379 696 325 631 q 454 883 433 761 q 136 797 357 807 l 136 1064 l 547 1064 q 590 815 590 939 q 522 531 590 657 q 347 336 453 406 q 138 267 242 267 q 83 272 106 267 l 83 567 l 131 575 m 632 1060 l 860 1060 l 860 882 l 894 882 l 894 1088 l 1125 1088 l 1125 342 l 894 342 l 894 496 l 860 496 l 860 342 l 632 342 l 632 1060 m 639 54 q 703 -18 639 -18 q 769 54 769 -18 q 703 126 769 126 q 639 54 639 126 z "},"갸":{"ha":1168,"x_min":83,"x_max":1140,"o":"m 83 417 q 139 428 83 417 q 302 469 232 442 q 438 578 372 497 q 528 811 503 658 q 146 704 413 718 l 146 1036 l 639 1036 q 690 726 690 881 q 608 372 690 528 q 399 129 525 215 q 147 43 272 43 q 83 50 118 43 l 83 417 m 749 1088 l 1039 1088 l 1039 854 l 1140 854 l 1140 565 l 1039 565 l 1039 493 l 1140 493 l 1140 204 l 1039 204 l 1039 -175 l 749 -175 l 749 1088 z "},"갹":{"ha":1168,"x_min":83,"x_max":1140,"o":"m 83 625 q 113 628 94 626 q 142 629 132 629 q 303 649 233 633 q 438 718 374 664 q 528 881 503 772 q 146 774 413 788 l 146 1064 l 639 1064 q 686 806 686 928 q 608 535 686 646 q 414 371 531 425 q 181 317 297 317 q 83 328 131 317 l 83 625 m 267 269 l 1039 269 l 1039 -175 l 749 -175 l 749 22 q 579 -12 686 -4 q 322 -19 472 -19 l 267 -19 l 267 269 m 749 1088 l 1039 1088 l 1039 1035 l 1140 1035 l 1140 746 l 1039 746 l 1039 674 l 1140 674 l 1140 385 l 1039 385 l 1039 331 l 749 331 l 749 1088 z "},"갼":{"ha":1168,"x_min":83,"x_max":1140,"o":"m 1039 1088 l 1039 1035 l 1140 1035 l 1140 746 l 1039 746 l 1039 674 l 1140 674 l 1140 385 l 1039 385 l 1039 190 l 749 190 l 749 1088 l 1039 1088 m 83 625 q 113 628 94 626 q 142 629 132 629 q 303 649 233 633 q 438 718 374 664 q 528 881 503 772 q 146 774 413 788 l 146 1064 l 639 1064 q 686 806 686 928 q 608 535 686 646 q 414 371 531 425 q 181 317 297 317 q 83 328 131 317 l 83 625 m 229 269 l 521 269 q 517 183 521 218 q 496 114 513 149 l 1078 114 l 1078 -175 l 229 -175 l 229 269 z "},"걀":{"ha":1168,"x_min":83,"x_max":1140,"o":"m 279 125 l 749 125 l 749 149 l 279 149 l 279 358 l 1039 358 l 1039 58 l 572 58 l 572 35 l 1115 35 l 1115 -175 l 279 -175 l 279 125 m 142 676 q 304 694 235 681 q 438 756 374 707 q 528 900 503 804 q 146 806 410 815 l 146 1064 l 639 1064 q 686 833 686 942 q 608 592 686 690 q 413 445 531 493 q 179 397 296 397 q 83 407 124 397 l 83 672 l 142 676 m 749 1088 l 1039 1088 l 1039 1035 l 1140 1035 l 1140 776 l 1039 776 l 1039 713 l 1140 713 l 1140 454 l 1039 454 l 1039 400 l 749 400 l 749 1088 z "},"걋":{"ha":1168,"x_min":83,"x_max":1140,"o":"m 190 183 q 328 168 260 168 q 537 207 443 168 q 689 303 631 246 l 842 303 q 844 239 846 268 l 1036 239 l 1036 -40 q 997 -147 1036 -104 q 899 -189 957 -189 q 805 -147 843 -189 q 767 -40 767 -104 l 767 51 q 546 -118 683 -51 q 278 -185 408 -185 q 190 -175 229 -185 l 190 183 m 83 625 q 113 628 94 626 q 142 629 132 629 q 303 649 233 633 q 438 718 374 664 q 528 881 503 772 q 146 774 413 788 l 146 1064 l 639 1064 q 686 806 686 928 q 608 535 686 646 q 414 371 531 425 q 181 317 297 317 q 83 328 131 317 l 83 625 m 749 1088 l 1039 1088 l 1039 1035 l 1140 1035 l 1140 746 l 1039 746 l 1039 674 l 1140 674 l 1140 385 l 1039 385 l 1039 350 l 749 350 l 749 1088 z "},"걍":{"ha":1168,"x_min":83,"x_max":1140,"o":"m 619 -204 q 290 -133 393 -204 q 188 54 188 -62 q 290 242 188 171 q 619 313 393 313 q 950 242 847 313 q 1053 54 1053 171 q 950 -133 1053 -62 q 619 -204 847 -204 m 83 625 q 113 628 94 626 q 142 629 132 629 q 303 649 233 633 q 438 718 374 664 q 528 881 503 772 q 146 774 413 788 l 146 1064 l 639 1064 q 686 806 686 928 q 608 535 686 646 q 414 371 531 425 q 181 317 297 317 q 83 328 131 317 l 83 625 m 554 54 q 619 -18 554 -18 q 686 54 686 -18 q 619 126 686 126 q 554 54 554 126 m 749 1088 l 1039 1088 l 1039 1035 l 1140 1035 l 1140 746 l 1039 746 l 1039 674 l 1140 674 l 1140 385 l 1039 385 l 1039 331 l 749 331 l 749 1088 z "},"걔":{"ha":1208,"x_min":83,"x_max":1125,"o":"m 83 417 q 131 428 86 418 q 267 469 208 442 q 381 578 326 497 q 456 811 435 658 q 136 704 361 718 l 136 1036 l 547 1036 q 590 726 590 882 q 522 372 590 528 q 347 129 453 215 q 136 43 240 43 q 83 50 111 43 l 83 417 m 632 1032 l 861 1032 l 861 875 l 894 875 l 894 1088 l 1125 1088 l 1125 -175 l 894 -175 l 894 169 l 861 169 l 861 -64 l 632 -64 l 632 1032 m 894 458 l 894 586 l 861 586 l 861 458 l 894 458 z "},"걘":{"ha":1244,"x_min":83,"x_max":1161,"o":"m 1124 1088 l 1124 200 l 894 200 l 894 406 l 861 406 l 861 200 l 631 200 l 631 1060 l 861 1060 l 861 972 l 894 972 l 894 1088 l 1124 1088 m 131 575 q 266 608 207 586 q 379 696 325 631 q 454 883 433 761 q 135 797 358 807 l 135 1064 l 547 1064 q 590 815 590 933 q 522 531 590 656 q 347 336 453 406 q 138 267 242 267 q 83 272 107 267 l 83 567 l 131 575 m 313 269 l 604 269 q 600 183 604 218 q 579 114 596 149 l 1161 114 l 1161 -175 l 313 -175 l 313 269 m 894 639 l 894 739 l 861 739 l 861 639 l 894 639 z "},"걜":{"ha":1283,"x_min":83,"x_max":1200,"o":"m 364 125 l 832 125 l 832 149 l 364 149 l 364 358 l 1124 358 l 1124 58 l 654 58 l 654 35 l 1200 35 l 1200 -175 l 364 -175 l 364 125 m 131 608 q 266 639 207 618 q 379 721 325 660 q 454 896 433 782 q 136 815 360 826 l 136 1064 l 549 1064 q 592 833 592 943 q 523 567 592 685 q 348 385 454 450 q 138 321 242 321 q 83 326 119 321 l 83 600 l 131 608 m 632 1063 l 861 1063 l 861 1017 l 894 1017 l 894 1088 l 1124 1088 l 1124 397 l 894 397 l 894 450 l 861 450 l 861 397 l 632 397 l 632 1063 m 894 683 l 894 783 l 861 783 l 861 683 l 894 683 z "},"걥":{"ha":1208,"x_min":83,"x_max":1125,"o":"m 1125 289 l 1125 -175 l 832 -175 l 832 -106 q 661 -163 831 -151 q 336 -175 492 -175 l 336 289 l 706 289 l 706 219 l 832 219 l 832 289 l 1125 289 m 131 575 q 267 608 207 586 q 381 696 326 631 q 456 883 435 761 q 136 797 360 808 l 136 1064 l 547 1064 q 590 815 590 939 q 522 531 590 657 q 347 336 453 406 q 138 267 242 267 q 83 272 106 267 l 83 567 l 131 575 m 632 1060 l 861 1060 l 861 972 l 894 972 l 894 1088 l 1125 1088 l 1125 325 l 894 325 l 894 406 l 861 406 l 861 325 l 632 325 l 632 1060 m 832 31 l 832 101 l 706 101 l 706 31 l 832 31 m 894 639 l 894 739 l 861 739 l 861 639 l 894 639 z "},"거":{"ha":1124,"x_min":83,"x_max":1040,"o":"m 83 417 q 139 428 83 417 q 302 469 232 442 q 437 578 372 497 q 528 811 501 658 q 146 704 413 718 l 146 1036 l 639 1036 q 692 718 692 869 q 690 674 692 688 l 749 674 l 749 1088 l 1040 1088 l 1040 -175 l 749 -175 l 749 315 l 576 315 q 377 116 494 189 q 146 43 260 43 q 83 50 118 43 l 83 417 z "},"걱":{"ha":1124,"x_min":83,"x_max":1040,"o":"m 83 625 q 113 628 94 626 q 142 629 132 629 q 303 649 233 633 q 438 718 374 664 q 528 881 501 772 q 146 774 413 788 l 146 1064 l 639 1064 q 681 896 665 993 l 749 896 l 749 1088 l 1040 1088 l 1040 331 l 749 331 l 749 524 l 600 524 q 411 370 528 424 q 179 317 294 317 q 83 328 131 317 l 83 625 m 267 269 l 1040 269 l 1040 -175 l 749 -175 l 749 22 q 580 -12 688 -4 q 322 -19 472 -19 l 267 -19 l 267 269 z "},"건":{"ha":1160,"x_min":83,"x_max":1076,"o":"m 1040 1088 l 1040 190 l 747 190 l 747 524 l 600 524 q 410 369 526 422 q 179 317 294 317 q 83 328 131 317 l 83 625 q 113 628 94 626 q 142 629 132 629 q 303 649 233 633 q 438 718 374 664 q 526 881 501 772 q 144 774 414 788 l 144 1064 l 638 1064 q 681 896 667 986 l 747 896 l 747 1088 l 1040 1088 m 228 269 l 521 269 q 517 183 521 218 q 496 114 513 149 l 1076 114 l 1076 -175 l 228 -175 l 228 269 z "},"걷":{"ha":1135,"x_min":83,"x_max":1051,"o":"m 279 349 l 1038 349 l 1038 161 l 571 161 l 571 107 l 1051 139 l 1051 -178 l 279 -178 l 279 349 m 140 663 q 303 681 233 667 q 437 745 372 694 q 528 896 501 796 q 146 796 414 810 l 146 1067 l 639 1067 q 682 896 672 968 l 749 896 l 749 1088 l 1039 1088 l 1039 383 l 749 383 l 749 524 l 564 524 q 385 410 489 449 q 179 372 281 372 q 83 382 124 372 l 83 658 l 140 663 z "},"걸":{"ha":1199,"x_min":83,"x_max":1115,"o":"m 278 125 l 747 125 l 747 149 l 278 149 l 278 358 l 1040 358 l 1040 58 l 571 58 l 571 35 l 1115 35 l 1115 -175 l 278 -175 l 278 125 m 142 667 q 303 683 232 669 q 438 747 374 697 q 526 896 501 797 q 147 799 413 810 l 147 1064 l 639 1064 q 683 896 669 982 l 747 896 l 747 1088 l 1040 1088 l 1040 400 l 747 400 l 747 524 l 560 524 q 382 417 485 453 q 179 381 279 381 q 83 390 124 381 l 83 663 l 142 667 z "},"걺":{"ha":1124,"x_min":83,"x_max":1040,"o":"m 1040 -175 l 749 -175 l 749 -108 q 710 -164 747 -153 q 615 -175 672 -175 l 615 358 l 1040 358 l 1040 -175 m 142 667 q 303 683 232 669 q 438 747 374 697 q 528 896 501 797 q 146 799 411 808 l 146 1064 l 639 1064 q 682 896 669 986 l 749 896 l 749 1088 l 1040 1088 l 1040 392 l 749 392 l 749 524 l 558 524 q 381 417 483 453 q 179 381 279 381 q 83 390 124 381 l 83 663 l 142 667 m 179 125 l 296 125 l 296 149 l 179 149 l 179 358 l 589 358 l 589 58 l 471 58 l 471 35 l 589 35 l 589 -175 l 179 -175 l 179 125 m 749 31 l 749 199 l 696 199 l 696 31 l 749 31 z "},"검":{"ha":1124,"x_min":83,"x_max":1040,"o":"m 1040 -175 l 749 -175 l 749 -106 q 573 -163 747 -151 q 239 -175 399 -175 l 239 289 l 1040 289 l 1040 -175 m 83 625 q 113 628 94 626 q 142 629 132 629 q 303 649 233 633 q 438 718 374 664 q 528 881 501 772 q 146 774 413 788 l 146 1064 l 639 1064 q 681 896 665 993 l 749 896 l 749 1088 l 1040 1088 l 1040 331 l 749 331 l 749 524 l 600 524 q 411 370 528 424 q 179 317 294 317 q 83 328 131 317 l 83 625 m 749 31 l 749 115 l 608 115 l 608 31 l 749 31 z "},"겁":{"ha":1124,"x_min":83,"x_max":1040,"o":"m 1040 289 l 1040 -175 l 749 -175 l 749 -106 q 577 -163 747 -151 q 251 -175 407 -175 l 251 289 l 619 289 l 619 219 l 749 219 l 749 289 l 1040 289 m 83 625 q 113 628 94 626 q 142 629 132 629 q 303 649 233 633 q 438 718 374 664 q 528 881 501 772 q 146 774 413 788 l 146 1064 l 639 1064 q 681 896 665 993 l 749 896 l 749 1088 l 1040 1088 l 1040 331 l 749 331 l 749 524 l 600 524 q 411 370 528 424 q 179 317 294 317 q 83 328 131 317 l 83 625 m 749 31 l 749 101 l 619 101 l 619 31 l 749 31 z "},"겂":{"ha":1153,"x_min":83,"x_max":1069,"o":"m 564 303 l 564 -175 l 283 -175 l 283 -108 q 245 -164 282 -153 q 151 -175 208 -175 l 151 303 l 232 303 l 232 247 l 283 247 l 283 303 l 564 303 m 139 660 q 302 678 232 664 q 438 744 372 693 q 528 900 503 796 q 147 797 417 811 l 147 1075 l 639 1075 q 683 896 675 976 l 747 896 l 747 1088 l 1040 1088 l 1040 331 l 747 331 l 747 524 l 572 524 q 390 403 497 444 q 178 361 282 361 q 83 371 124 361 l 83 656 l 139 660 m 283 31 l 283 129 l 232 129 l 232 31 l 283 31 m 592 183 q 674 168 636 168 q 763 207 735 168 q 790 303 792 246 l 942 303 q 963 185 963 243 q 958 132 963 157 l 1069 132 l 1069 -76 q 1040 -157 1069 -125 q 968 -189 1011 -189 q 894 -157 924 -189 q 865 -76 865 -125 l 865 -71 q 765 -154 821 -124 q 651 -185 708 -185 q 592 -175 619 -185 l 592 183 z "},"것":{"ha":1124,"x_min":83,"x_max":1040,"o":"m 190 183 q 328 168 260 168 q 538 207 443 168 q 690 303 632 246 l 842 303 q 846 239 849 271 l 1036 239 l 1036 -40 q 997 -147 1036 -104 q 900 -189 958 -189 q 804 -147 843 -189 q 765 -40 765 -104 l 765 51 q 546 -118 683 -51 q 278 -185 408 -185 q 190 -175 229 -185 l 190 183 m 83 625 q 113 628 94 626 q 142 629 132 629 q 303 649 233 633 q 438 718 374 664 q 528 881 501 772 q 146 774 413 788 l 146 1064 l 639 1064 q 681 896 665 993 l 749 896 l 749 1088 l 1040 1088 l 1040 350 l 749 350 l 749 524 l 600 524 q 411 370 528 424 q 179 317 294 317 q 83 328 131 317 l 83 625 z "},"겄":{"ha":1164,"x_min":83,"x_max":1081,"o":"m 604 183 q 678 168 643 168 q 764 207 733 168 q 801 303 794 246 l 954 303 q 974 185 974 242 q 969 132 974 160 l 1081 132 l 1081 -76 q 1051 -157 1081 -125 q 979 -189 1022 -189 q 906 -157 935 -189 q 878 -76 878 -125 l 878 -71 q 776 -154 832 -124 q 663 -185 719 -185 q 604 -175 632 -185 l 604 183 m 83 625 q 113 628 94 626 q 142 629 132 629 q 303 649 233 633 q 438 718 374 664 q 526 881 501 772 q 146 774 413 788 l 146 1064 l 639 1064 q 681 896 667 985 l 747 896 l 747 1088 l 1039 1088 l 1039 331 l 747 331 l 747 524 l 600 524 q 410 369 526 422 q 179 317 294 317 q 83 328 131 317 l 83 625 m 114 183 q 188 168 154 168 q 276 207 244 168 q 313 303 307 246 l 465 303 q 486 189 486 244 q 481 132 486 168 l 579 132 l 579 -76 q 550 -157 579 -125 q 478 -189 521 -189 q 408 -160 436 -189 q 376 -85 379 -131 q 280 -158 333 -131 q 174 -185 226 -185 q 114 -175 142 -185 l 114 183 z "},"겅":{"ha":1135,"x_min":83,"x_max":1051,"o":"m 619 -204 q 290 -133 393 -204 q 186 54 186 -62 q 290 242 186 171 q 619 313 393 313 q 949 242 846 313 q 1051 54 1051 171 q 949 -133 1051 -62 q 619 -204 846 -204 m 83 625 q 142 629 89 626 q 302 649 232 633 q 437 718 372 664 q 528 881 501 772 q 146 774 413 788 l 146 1064 l 639 1064 q 679 896 668 981 l 749 896 l 749 1088 l 1039 1088 l 1039 331 l 749 331 l 749 524 l 599 524 q 410 369 526 422 q 179 317 294 317 q 83 328 131 317 l 83 625 m 554 54 q 619 -18 554 -18 q 685 54 685 -18 q 619 126 685 126 q 554 54 554 126 z "},"겆":{"ha":1124,"x_min":83,"x_max":1040,"o":"m 190 142 q 308 129 253 129 q 544 188 433 129 l 317 188 l 317 303 l 842 303 q 846 257 846 281 q 839 197 846 229 l 1036 197 l 1036 -40 q 997 -147 1036 -104 q 900 -189 958 -189 q 804 -147 843 -189 q 765 -40 765 -104 l 765 51 q 546 -118 683 -51 q 278 -185 408 -185 q 190 -175 229 -185 l 190 142 m 83 625 q 113 628 94 626 q 142 629 132 629 q 303 649 233 633 q 438 718 374 664 q 528 881 501 772 q 146 774 413 788 l 146 1064 l 639 1064 q 681 896 665 993 l 749 896 l 749 1088 l 1040 1088 l 1040 331 l 749 331 l 749 524 l 600 524 q 411 370 528 424 q 179 317 294 317 q 83 328 131 317 l 83 625 z "},"겉":{"ha":1160,"x_min":83,"x_max":1076,"o":"m 317 317 l 1040 317 l 1040 208 l 608 208 l 608 174 l 1040 174 l 1040 107 l 608 107 l 608 72 l 1076 72 l 1076 -175 l 317 -175 l 317 317 m 83 625 q 113 628 94 626 q 142 629 132 629 q 303 649 233 633 q 438 718 374 664 q 526 881 501 772 q 144 774 414 788 l 144 1064 l 638 1064 q 681 896 667 986 l 747 896 l 747 1088 l 1040 1088 l 1040 400 l 747 400 l 747 524 l 600 524 q 410 369 526 422 q 179 317 294 317 q 83 328 131 317 l 83 625 z "},"겊":{"ha":1124,"x_min":83,"x_max":1040,"o":"m 217 303 l 1040 303 l 1040 181 l 947 181 q 831 44 932 82 l 1040 44 l 1040 -175 l 217 -175 l 217 44 l 425 44 q 308 181 324 82 l 217 181 l 217 303 m 83 625 q 113 628 94 626 q 142 629 132 629 q 303 649 233 633 q 438 718 374 664 q 528 881 501 772 q 146 774 413 788 l 146 1064 l 639 1064 q 681 896 665 993 l 749 896 l 749 1088 l 1040 1088 l 1040 331 l 749 331 l 749 524 l 600 524 q 411 370 528 424 q 179 317 294 317 q 83 328 131 317 l 83 625 m 650 44 l 650 181 l 607 181 l 607 44 l 650 44 z "},"겋":{"ha":1153,"x_min":83,"x_max":1069,"o":"m 224 311 l 458 311 l 458 374 l 836 374 q 826 311 836 333 l 1069 311 l 1069 119 l 224 119 l 224 311 m 83 653 q 114 656 94 654 q 143 657 133 657 q 305 676 235 661 q 439 741 375 690 q 528 893 503 792 q 147 792 417 806 l 147 1064 l 639 1064 q 682 896 674 969 l 747 896 l 747 1088 l 1040 1088 l 1040 410 l 747 410 l 747 524 l 572 524 q 390 405 496 446 q 179 364 283 364 q 83 375 131 364 l 83 653 m 260 -50 q 350 60 260 18 q 647 101 440 101 q 943 60 853 101 q 1033 -50 1033 18 q 943 -162 1033 -119 q 647 -204 853 -204 q 350 -162 440 -204 q 260 -50 260 -119 m 621 -49 q 647 -107 621 -107 q 672 -49 672 -107 q 665 -9 672 -22 q 647 4 658 4 q 621 -49 621 4 z "},"게":{"ha":1208,"x_min":83,"x_max":1125,"o":"m 83 417 q 131 428 86 418 q 267 469 208 442 q 381 578 326 497 q 456 811 435 658 q 136 704 361 718 l 136 1036 l 547 1036 q 592 768 582 911 l 632 768 l 632 1032 l 861 1032 l 861 -64 l 632 -64 l 632 479 l 558 479 q 453 249 522 347 q 301 97 385 150 q 136 43 217 43 q 83 50 111 43 l 83 417 m 894 1088 l 1125 1088 l 1125 -175 l 894 -175 l 894 1088 z "},"겍":{"ha":1208,"x_min":83,"x_max":1125,"o":"m 131 575 q 267 608 207 586 q 381 696 326 631 q 456 883 435 761 q 136 797 360 808 l 136 1064 l 547 1064 q 588 875 578 976 l 632 875 l 632 1060 l 861 1060 l 861 325 l 632 325 l 632 586 l 547 586 q 441 417 508 489 q 293 306 374 344 q 136 267 213 267 q 83 272 117 267 l 83 567 l 131 575 m 351 269 l 1125 269 l 1125 -175 l 832 -175 l 832 22 q 665 -12 772 -4 q 407 -19 557 -19 l 351 -19 l 351 269 m 894 1088 l 1125 1088 l 1125 325 l 894 325 l 894 1088 z "},"겐":{"ha":1244,"x_min":83,"x_max":1161,"o":"m 1124 1088 l 1124 200 l 894 200 l 894 1088 l 1124 1088 m 131 575 q 266 608 207 586 q 379 696 325 631 q 454 883 433 761 q 135 797 358 807 l 135 1064 l 547 1064 q 588 875 582 961 l 631 875 l 631 1060 l 861 1060 l 861 200 l 631 200 l 631 586 l 547 586 q 441 417 508 489 q 293 306 374 344 q 136 267 213 267 q 83 272 117 267 l 83 567 l 131 575 m 313 269 l 604 269 q 600 183 604 218 q 579 114 596 149 l 1161 114 l 1161 -175 l 313 -175 l 313 269 z "},"겔":{"ha":1283,"x_min":83,"x_max":1200,"o":"m 364 125 l 832 125 l 832 149 l 364 149 l 364 358 l 1124 358 l 1124 58 l 654 58 l 654 35 l 1200 35 l 1200 -175 l 364 -175 l 364 125 m 131 607 q 266 638 207 617 q 379 719 325 658 q 454 896 433 781 q 136 814 357 824 l 136 1064 l 549 1064 q 589 875 583 961 l 632 875 l 632 1063 l 861 1063 l 861 396 l 632 396 l 632 586 l 539 586 l 539 599 q 433 449 499 513 q 290 352 367 386 q 139 318 213 318 q 83 324 119 318 l 83 599 l 131 607 m 894 1088 l 1124 1088 l 1124 396 l 894 396 l 894 1088 z "},"겜":{"ha":1208,"x_min":83,"x_max":1125,"o":"m 1125 -175 l 832 -175 l 832 -106 q 656 -163 831 -151 q 324 -175 482 -175 l 324 289 l 1125 289 l 1125 -175 m 131 575 q 267 608 207 586 q 381 696 326 631 q 456 883 435 761 q 136 797 360 808 l 136 1064 l 547 1064 q 588 875 578 976 l 632 875 l 632 1060 l 861 1060 l 861 325 l 632 325 l 632 586 l 547 586 q 441 417 508 489 q 293 306 374 344 q 136 267 213 267 q 83 272 117 267 l 83 567 l 131 575 m 832 31 l 832 115 l 692 115 l 692 31 l 832 31 m 894 1088 l 1125 1088 l 1125 325 l 894 325 l 894 1088 z "},"겝":{"ha":1208,"x_min":83,"x_max":1125,"o":"m 1125 289 l 1125 -175 l 832 -175 l 832 -106 q 661 -163 831 -151 q 336 -175 492 -175 l 336 289 l 706 289 l 706 219 l 832 219 l 832 289 l 1125 289 m 131 575 q 267 608 207 586 q 381 696 326 631 q 456 883 435 761 q 136 797 360 808 l 136 1064 l 547 1064 q 588 875 578 976 l 632 875 l 632 1060 l 861 1060 l 861 325 l 632 325 l 632 586 l 547 586 q 441 417 508 489 q 293 306 374 344 q 136 267 213 267 q 83 272 117 267 l 83 567 l 131 575 m 832 31 l 832 101 l 706 101 l 706 31 l 832 31 m 894 1088 l 1125 1088 l 1125 325 l 894 325 l 894 1088 z "},"겟":{"ha":1208,"x_min":83,"x_max":1125,"o":"m 275 183 q 414 168 344 168 q 623 207 529 168 q 774 303 717 246 l 926 303 q 931 239 933 271 l 1121 239 l 1121 -40 q 1082 -147 1121 -104 q 985 -189 1043 -189 q 889 -147 928 -189 q 850 -40 850 -104 l 850 51 q 630 -118 767 -51 q 363 -185 493 -185 q 275 -175 314 -185 l 275 183 m 131 575 q 267 608 207 586 q 381 696 326 631 q 456 883 435 761 q 136 797 360 808 l 136 1064 l 547 1064 q 588 875 578 976 l 632 875 l 632 1060 l 861 1060 l 861 342 l 632 342 l 632 586 l 547 586 q 441 417 508 489 q 293 306 374 344 q 136 267 213 267 q 83 272 117 267 l 83 567 l 131 575 m 894 1088 l 1125 1088 l 1125 342 l 894 342 l 894 1088 z "},"겠":{"ha":1246,"x_min":83,"x_max":1163,"o":"m 686 183 q 760 168 726 168 q 847 207 817 168 q 883 303 878 246 l 1038 303 q 1057 192 1057 250 q 1051 132 1057 158 l 1163 132 l 1163 -76 q 1134 -157 1163 -125 q 1063 -189 1106 -189 q 990 -157 1019 -189 q 961 -76 961 -125 l 961 -71 q 858 -154 914 -124 q 744 -185 801 -185 q 686 -175 714 -185 l 686 183 m 131 575 q 265 608 207 586 q 378 696 324 631 q 453 883 432 761 q 135 797 357 807 l 135 1064 l 546 1064 q 586 875 581 961 l 629 875 l 629 1060 l 860 1060 l 860 325 l 629 325 l 629 586 l 546 586 q 440 417 507 489 q 292 306 372 344 q 135 267 211 267 q 83 272 117 267 l 83 567 l 131 575 m 197 183 q 271 168 236 168 q 358 207 328 168 q 396 303 389 246 l 547 303 q 568 185 568 243 q 564 132 568 157 l 663 132 l 663 -76 q 633 -157 663 -125 q 561 -189 604 -189 q 490 -160 519 -189 q 460 -85 461 -131 q 363 -158 415 -132 q 257 -185 310 -185 q 197 -175 225 -185 l 197 183 m 893 1088 l 1122 1088 l 1122 325 l 893 325 l 893 1088 z "},"겡":{"ha":1219,"x_min":83,"x_max":1136,"o":"m 703 -204 q 375 -133 478 -204 q 272 54 272 -62 q 375 242 272 171 q 703 313 478 313 q 1033 242 931 313 q 1136 54 1136 171 q 1033 -133 1136 -62 q 703 -204 931 -204 m 131 575 q 266 608 207 586 q 379 696 325 631 q 454 883 433 761 q 136 797 357 807 l 136 1064 l 547 1064 q 588 875 578 976 l 632 875 l 632 1060 l 860 1060 l 860 325 l 632 325 l 632 586 l 547 586 q 440 417 507 489 q 292 306 372 344 q 136 267 213 267 q 83 272 117 267 l 83 567 l 131 575 m 639 54 q 703 -18 639 -18 q 769 54 769 -18 q 703 126 769 126 q 639 54 639 126 m 894 1088 l 1125 1088 l 1125 325 l 894 325 l 894 1088 z "},"겨":{"ha":1124,"x_min":83,"x_max":1040,"o":"m 83 417 q 139 428 83 417 q 302 469 232 442 q 437 578 372 497 q 528 811 501 658 q 146 704 413 718 l 146 1036 l 639 1036 q 676 882 668 946 l 749 882 l 749 1088 l 1040 1088 l 1040 -175 l 749 -175 l 749 232 l 513 232 q 337 92 433 142 q 147 43 240 43 q 83 50 118 43 l 83 417 m 749 521 l 749 593 l 679 593 q 664 521 671 546 l 749 521 z "},"격":{"ha":1124,"x_min":83,"x_max":1040,"o":"m 83 625 q 113 628 94 626 q 142 629 132 629 q 303 649 233 633 q 438 718 374 664 q 528 881 501 772 q 146 774 413 788 l 146 1064 l 639 1064 q 661 993 647 1040 l 749 993 l 749 1088 l 1040 1088 l 1040 331 l 749 331 l 749 399 l 617 399 l 617 547 q 424 376 546 435 q 179 317 301 317 q 83 328 131 317 l 83 625 m 267 269 l 1040 269 l 1040 -175 l 749 -175 l 749 22 q 580 -12 688 -4 q 322 -19 472 -19 l 267 -19 l 267 269 m 749 660 l 749 732 l 681 732 q 667 660 679 699 l 749 660 z "},"겪":{"ha":1124,"x_min":83,"x_max":1040,"o":"m 1040 -175 l 749 -175 l 749 8 q 706 -16 729 -12 q 606 -19 682 -19 l 606 269 l 1040 269 l 1040 -175 m 83 625 q 113 628 94 626 q 142 629 132 629 q 303 649 233 633 q 438 718 374 664 q 528 881 501 772 q 146 774 413 788 l 146 1064 l 639 1064 q 661 993 647 1040 l 749 993 l 749 1088 l 1040 1088 l 1040 331 l 749 331 l 749 399 l 617 399 l 617 547 q 424 376 546 435 q 179 317 301 317 q 83 328 131 317 l 83 625 m 153 269 l 589 269 l 589 -175 l 296 -175 l 296 8 q 253 -16 276 -12 q 153 -19 229 -19 l 153 269 m 749 660 l 749 732 l 681 732 q 667 660 679 699 l 749 660 z "},"견":{"ha":1160,"x_min":83,"x_max":1076,"o":"m 1040 1088 l 1040 190 l 747 190 l 747 399 l 615 399 l 615 547 q 423 376 544 435 q 179 317 301 317 q 83 328 131 317 l 83 625 q 113 628 94 626 q 142 629 132 629 q 303 649 233 633 q 438 718 374 664 q 526 881 501 772 q 144 774 414 788 l 144 1064 l 638 1064 q 660 993 654 1017 l 747 993 l 747 1088 l 1040 1088 m 228 269 l 521 269 q 517 183 521 218 q 496 114 513 149 l 1076 114 l 1076 -175 l 228 -175 l 228 269 m 747 660 l 747 732 l 682 732 q 665 660 679 703 l 747 660 z "},"겯":{"ha":1135,"x_min":83,"x_max":1051,"o":"m 279 349 l 1038 349 l 1038 161 l 571 161 l 571 107 l 1051 139 l 1051 -178 l 279 -178 l 279 349 m 140 667 q 303 685 233 671 q 437 748 372 699 q 528 897 501 797 q 146 799 414 813 l 146 1067 l 639 1067 q 651 1031 646 1047 q 660 1001 656 1014 l 749 1001 l 749 1088 l 1039 1088 l 1039 392 l 749 392 l 749 454 l 617 454 l 617 592 q 423 433 544 488 q 179 379 301 379 q 83 389 124 379 l 83 663 l 140 667 m 749 694 l 749 761 l 681 761 q 667 694 676 722 l 749 694 z "},"결":{"ha":1199,"x_min":83,"x_max":1115,"o":"m 278 125 l 747 125 l 747 149 l 278 149 l 278 358 l 1040 358 l 1040 58 l 571 58 l 571 35 l 1115 35 l 1115 -175 l 278 -175 l 278 125 m 83 660 q 114 663 94 661 q 143 664 133 664 q 306 683 236 669 q 438 747 375 697 q 526 896 501 797 q 147 797 415 811 l 147 1064 l 639 1064 l 663 993 l 747 993 l 747 1088 l 1040 1088 l 1040 400 l 747 400 l 747 476 l 617 476 l 617 589 q 424 431 546 485 q 179 376 303 376 q 83 386 124 376 l 83 660 m 747 703 l 747 765 l 683 765 q 671 703 682 756 l 747 703 z "},"겷":{"ha":1153,"x_min":83,"x_max":1069,"o":"m 179 125 l 297 125 l 297 149 l 179 149 l 179 358 l 589 358 l 589 58 l 471 58 l 471 35 l 589 35 l 589 -175 l 179 -175 l 179 125 m 142 681 q 303 697 232 683 q 438 760 374 711 q 528 908 503 810 q 147 811 413 822 l 147 1075 l 639 1075 q 665 993 656 1038 l 747 993 l 747 1088 l 1040 1088 l 1040 450 l 747 450 l 747 515 l 615 515 l 615 606 q 422 449 544 503 q 178 396 300 396 q 83 406 124 396 l 83 676 l 142 681 m 606 324 l 733 324 l 733 417 l 960 417 q 949 324 960 354 l 1069 324 l 1069 175 l 606 175 l 606 324 m 625 -21 q 674 111 625 61 q 836 161 724 161 q 1000 111 950 161 q 1050 -21 1050 61 q 1000 -154 1050 -104 q 836 -204 950 -204 q 674 -154 724 -204 q 625 -21 625 -104 m 747 725 l 747 783 l 683 783 q 671 725 678 744 l 747 725 m 824 -19 q 836 -111 824 -111 q 851 -19 851 -111 q 836 67 851 67 q 824 -19 824 67 z "},"겸":{"ha":1124,"x_min":83,"x_max":1040,"o":"m 1040 -175 l 749 -175 l 749 -106 q 573 -163 747 -151 q 239 -175 399 -175 l 239 289 l 1040 289 l 1040 -175 m 83 625 q 113 628 94 626 q 142 629 132 629 q 303 649 233 633 q 438 718 374 664 q 528 881 501 772 q 146 774 413 788 l 146 1064 l 639 1064 q 661 993 647 1040 l 749 993 l 749 1088 l 1040 1088 l 1040 331 l 749 331 l 749 399 l 617 399 l 617 547 q 424 376 546 435 q 179 317 301 317 q 83 328 131 317 l 83 625 m 749 31 l 749 115 l 608 115 l 608 31 l 749 31 m 749 660 l 749 732 l 681 732 q 667 660 679 699 l 749 660 z "},"겹":{"ha":1124,"x_min":83,"x_max":1040,"o":"m 1040 289 l 1040 -175 l 749 -175 l 749 -106 q 577 -163 747 -151 q 251 -175 407 -175 l 251 289 l 619 289 l 619 219 l 749 219 l 749 289 l 1040 289 m 83 625 q 113 628 94 626 q 142 629 132 629 q 303 649 233 633 q 438 718 374 664 q 528 881 501 772 q 146 774 413 788 l 146 1064 l 639 1064 q 661 993 647 1040 l 749 993 l 749 1088 l 1040 1088 l 1040 331 l 749 331 l 749 399 l 617 399 l 617 547 q 424 376 546 435 q 179 317 301 317 q 83 328 131 317 l 83 625 m 749 31 l 749 101 l 619 101 l 619 31 l 749 31 m 749 660 l 749 732 l 681 732 q 667 660 679 699 l 749 660 z "},"겻":{"ha":1124,"x_min":83,"x_max":1040,"o":"m 190 183 q 328 168 260 168 q 538 207 443 168 q 690 303 632 246 l 842 303 q 846 239 849 271 l 1036 239 l 1036 -40 q 997 -147 1036 -104 q 900 -189 958 -189 q 804 -147 843 -189 q 765 -40 765 -104 l 765 51 q 546 -118 683 -51 q 278 -185 408 -185 q 190 -175 229 -185 l 190 183 m 83 625 q 113 628 94 626 q 142 629 132 629 q 303 649 233 633 q 438 718 374 664 q 528 881 501 772 q 146 774 413 788 l 146 1064 l 639 1064 q 661 993 647 1040 l 749 993 l 749 1088 l 1040 1088 l 1040 350 l 749 350 l 749 399 l 617 399 l 617 547 q 424 376 546 435 q 179 317 301 317 q 83 328 131 317 l 83 625 m 749 660 l 749 732 l 681 732 q 667 660 679 699 l 749 660 z "},"겼":{"ha":1164,"x_min":83,"x_max":1081,"o":"m 604 183 q 678 168 643 168 q 764 207 733 168 q 801 303 794 246 l 954 303 q 974 185 974 242 q 969 132 974 160 l 1081 132 l 1081 -76 q 1051 -157 1081 -125 q 979 -189 1022 -189 q 906 -157 935 -189 q 878 -76 878 -125 l 878 -71 q 776 -154 832 -124 q 663 -185 719 -185 q 604 -175 632 -185 l 604 183 m 83 625 q 113 628 94 626 q 142 629 132 629 q 303 649 233 633 q 438 718 374 664 q 526 881 501 772 q 146 774 413 788 l 146 1064 l 639 1064 q 660 993 651 1029 l 747 993 l 747 1088 l 1039 1088 l 1039 331 l 747 331 l 747 399 l 615 399 l 615 547 q 423 376 544 435 q 179 317 301 317 q 83 328 131 317 l 83 625 m 114 183 q 188 168 154 168 q 276 207 244 168 q 313 303 307 246 l 465 303 q 486 189 486 244 q 481 132 486 168 l 579 132 l 579 -76 q 550 -157 579 -125 q 478 -189 521 -189 q 408 -160 436 -189 q 376 -85 379 -131 q 280 -158 333 -131 q 174 -185 226 -185 q 114 -175 142 -185 l 114 183 m 747 660 l 747 732 l 682 732 q 665 660 674 682 l 747 660 z "},"경":{"ha":1135,"x_min":83,"x_max":1051,"o":"m 619 -204 q 290 -133 393 -204 q 186 54 186 -62 q 290 242 186 171 q 619 313 393 313 q 949 242 846 313 q 1051 54 1051 171 q 949 -133 1051 -62 q 619 -204 846 -204 m 83 625 q 142 629 89 626 q 302 649 232 633 q 437 718 372 664 q 528 881 501 772 q 146 774 413 788 l 146 1064 l 639 1064 q 652 1022 647 1040 q 660 993 657 1004 l 749 993 l 749 1088 l 1039 1088 l 1039 331 l 749 331 l 749 399 l 617 399 l 617 547 q 422 376 544 435 q 178 317 300 317 q 83 328 131 317 l 83 625 m 554 54 q 619 -18 554 -18 q 685 54 685 -18 q 619 126 685 126 q 554 54 554 126 m 749 660 l 749 732 l 681 732 q 667 660 676 689 l 749 660 z "},"겿":{"ha":1124,"x_min":83,"x_max":1040,"o":"m 190 156 q 314 142 254 142 q 557 201 443 142 l 317 201 l 317 303 l 842 303 q 846 254 846 278 q 843 211 846 239 l 1036 211 l 1036 -40 q 997 -147 1036 -104 q 900 -189 958 -189 q 804 -147 843 -189 q 765 -40 765 -104 l 765 51 q 546 -118 683 -51 q 278 -185 408 -185 q 190 -175 229 -185 l 190 156 m 140 660 q 303 678 233 664 q 437 744 372 693 q 528 900 501 796 q 146 797 414 811 l 146 1075 l 639 1075 q 664 993 653 1036 l 749 993 l 749 1088 l 1040 1088 l 1040 331 l 749 331 l 749 481 l 617 481 l 617 582 q 424 418 546 475 q 178 361 301 361 q 83 371 124 361 l 83 656 l 140 660 m 488 428 l 710 428 l 710 340 l 488 340 l 488 428 m 749 706 l 749 768 l 682 768 q 672 706 681 744 l 749 706 z "},"곁":{"ha":1160,"x_min":83,"x_max":1076,"o":"m 317 317 l 1040 317 l 1040 208 l 608 208 l 608 174 l 1040 174 l 1040 107 l 608 107 l 608 72 l 1076 72 l 1076 -175 l 317 -175 l 317 317 m 83 625 q 113 628 94 626 q 142 629 132 629 q 303 649 233 633 q 438 718 374 664 q 526 881 501 772 q 144 774 414 788 l 144 1064 l 638 1064 q 660 993 654 1017 l 747 993 l 747 1086 l 1040 1086 l 1040 351 l 747 351 l 747 399 l 615 399 l 615 547 q 423 376 544 435 q 179 317 301 317 q 83 328 131 317 l 83 625 m 747 660 l 747 732 l 682 732 q 665 660 679 703 l 747 660 z "},"계":{"ha":1208,"x_min":83,"x_max":1125,"o":"m 83 417 q 131 428 86 418 q 267 469 208 442 q 381 578 326 497 q 456 811 435 658 q 136 704 361 718 l 136 1036 l 547 1036 q 581 875 568 967 l 632 875 l 632 1032 l 861 1032 l 861 -64 l 632 -64 l 632 211 l 551 211 l 551 454 q 446 236 514 329 q 297 93 378 143 q 138 43 215 43 q 83 50 114 43 l 83 417 m 632 500 l 632 586 l 581 586 q 565 500 576 553 l 632 500 m 894 1088 l 1125 1088 l 1125 -175 l 894 -175 l 894 1088 z "},"곈":{"ha":1244,"x_min":83,"x_max":1161,"o":"m 1124 1088 l 1124 200 l 894 200 l 894 1088 l 1124 1088 m 131 575 q 266 608 207 586 q 379 696 325 631 q 454 883 433 761 q 135 797 358 807 l 135 1064 l 547 1064 q 569 986 560 1031 l 631 986 l 631 1060 l 861 1060 l 861 200 l 631 200 l 631 428 l 550 428 l 550 596 q 444 422 513 496 q 295 307 376 347 q 136 267 214 267 q 83 272 106 267 l 83 567 l 131 575 m 313 269 l 604 269 q 600 183 604 218 q 579 114 596 149 l 1161 114 l 1161 -175 l 313 -175 l 313 269 m 631 686 l 631 726 l 583 726 q 576 686 583 718 l 631 686 z "},"곌":{"ha":1283,"x_min":83,"x_max":1200,"o":"m 364 125 l 832 125 l 832 149 l 364 149 l 364 358 l 1124 358 l 1124 58 l 654 58 l 654 35 l 1200 35 l 1200 -175 l 364 -175 l 364 125 m 131 614 q 266 644 207 624 q 379 725 325 665 q 454 897 433 785 q 136 818 358 829 l 136 1064 l 549 1064 q 567 1000 564 1017 l 632 1000 l 632 1063 l 861 1063 l 861 392 l 632 392 l 632 442 l 551 442 l 551 633 q 446 473 514 542 q 297 367 378 404 q 138 331 215 331 q 83 335 108 331 l 83 606 l 131 614 m 632 700 l 632 740 l 583 740 q 579 723 582 733 q 575 700 576 713 l 632 700 m 894 1088 l 1124 1088 l 1124 392 l 894 392 l 894 1088 z "},"곕":{"ha":1208,"x_min":83,"x_max":1125,"o":"m 1125 289 l 1125 -175 l 832 -175 l 832 -106 q 661 -163 831 -151 q 336 -175 492 -175 l 336 289 l 706 289 l 706 219 l 832 219 l 832 289 l 1125 289 m 131 575 q 267 608 207 586 q 381 696 326 631 q 456 883 435 761 q 136 797 360 808 l 136 1064 l 547 1064 q 558 1028 550 1053 q 571 986 567 1004 l 632 986 l 632 1060 l 861 1060 l 861 325 l 632 325 l 632 428 l 551 428 l 551 596 q 446 422 514 496 q 297 307 378 347 q 138 267 215 267 q 83 272 107 267 l 83 567 l 131 575 m 632 686 l 632 726 l 583 726 q 578 686 581 699 l 632 686 m 832 31 l 832 101 l 706 101 l 706 31 l 832 31 m 894 1088 l 1125 1088 l 1125 325 l 894 325 l 894 1088 z "},"곗":{"ha":1208,"x_min":83,"x_max":1125,"o":"m 275 183 q 414 168 344 168 q 623 207 529 168 q 774 303 717 246 l 926 303 q 931 239 933 271 l 1121 239 l 1121 -40 q 1082 -147 1121 -104 q 985 -189 1043 -189 q 889 -147 928 -189 q 850 -40 850 -104 l 850 51 q 630 -118 767 -51 q 363 -185 493 -185 q 275 -175 314 -185 l 275 183 m 131 575 q 267 608 207 586 q 381 696 326 631 q 456 883 435 761 q 136 797 360 808 l 136 1064 l 547 1064 q 558 1028 550 1053 q 571 986 567 1004 l 632 986 l 632 1060 l 861 1060 l 861 342 l 632 342 l 632 428 l 551 428 l 551 596 q 446 422 514 496 q 297 307 378 347 q 138 267 215 267 q 83 272 107 267 l 83 567 l 131 575 m 632 686 l 632 726 l 583 726 q 578 686 581 699 l 632 686 m 894 1088 l 1125 1088 l 1125 342 l 894 342 l 894 1088 z "},"곘":{"ha":1246,"x_min":83,"x_max":1163,"o":"m 686 183 q 760 168 726 168 q 847 207 817 168 q 883 303 878 246 l 1038 303 q 1057 192 1057 250 q 1051 132 1057 158 l 1163 132 l 1163 -76 q 1134 -157 1163 -125 q 1063 -189 1106 -189 q 990 -157 1019 -189 q 961 -76 961 -125 l 961 -71 q 858 -154 914 -124 q 744 -185 801 -185 q 686 -175 714 -185 l 686 183 m 131 575 q 265 608 207 586 q 378 696 324 631 q 453 883 432 761 q 135 797 357 807 l 135 1064 l 546 1064 q 568 986 558 1031 l 629 986 l 629 1060 l 860 1060 l 860 325 l 629 325 l 629 428 l 549 428 l 549 596 q 443 422 511 496 q 294 307 375 347 q 136 267 214 267 q 83 272 106 267 l 83 567 l 131 575 m 197 183 q 271 168 236 168 q 358 207 328 168 q 396 303 389 246 l 547 303 q 568 185 568 243 q 564 132 568 157 l 663 132 l 663 -76 q 633 -157 663 -125 q 561 -189 604 -189 q 490 -160 519 -189 q 460 -85 461 -131 q 363 -158 415 -132 q 257 -185 310 -185 q 197 -175 225 -185 l 197 183 m 629 686 l 629 726 l 583 726 q 575 686 583 721 l 629 686 m 893 1088 l 1122 1088 l 1122 325 l 893 325 l 893 1088 z "},"고":{"ha":1151,"x_min":42,"x_max":1110,"o":"m 565 369 q 638 531 617 410 q 658 783 658 651 q 164 676 551 696 l 164 1022 l 919 1022 q 950 885 939 946 q 961 757 961 824 q 778 369 961 515 l 565 369 m 42 271 l 267 271 l 267 574 l 535 574 l 535 271 l 1110 271 l 1110 -18 l 42 -18 l 42 271 z "},"곡":{"ha":1151,"x_min":42,"x_max":1110,"o":"m 1110 315 l 42 315 l 42 576 l 279 576 l 279 713 l 546 713 l 546 576 l 601 576 q 646 692 633 624 q 658 853 658 760 q 164 746 551 765 l 164 1036 l 919 1036 l 928 1004 q 952 901 943 946 q 961 814 961 857 q 933 687 961 746 q 840 576 906 628 l 1110 576 l 1110 315 m 158 269 l 932 269 l 932 -175 l 640 -175 l 640 22 q 472 -12 579 -4 q 214 -19 364 -19 l 158 -19 l 158 269 z "},"곤":{"ha":1151,"x_min":42,"x_max":1110,"o":"m 171 269 l 464 269 q 460 183 464 218 q 439 114 456 149 l 983 114 l 983 -175 l 171 -175 l 171 269 m 42 563 l 279 563 l 279 713 l 546 713 l 546 563 l 592 563 q 644 681 629 608 q 658 853 658 753 q 164 746 551 765 l 164 1036 l 919 1036 l 928 1004 q 952 901 943 946 q 961 814 961 857 q 929 679 961 742 q 821 563 897 617 l 1110 563 l 1110 301 l 42 301 l 42 563 z "},"곧":{"ha":1151,"x_min":42,"x_max":1110,"o":"m 171 281 l 932 281 l 932 117 l 464 117 l 464 69 l 944 97 l 944 -178 l 171 -178 l 171 281 m 42 590 l 279 590 l 279 713 l 546 713 l 546 590 l 610 590 q 648 701 638 636 q 658 853 658 765 q 164 746 551 765 l 164 1036 l 919 1036 q 935 978 922 1024 q 956 891 949 932 q 963 815 963 850 q 938 695 963 751 q 856 590 914 639 l 1110 590 l 1110 329 l 42 329 l 42 590 z "},"골":{"ha":1151,"x_min":42,"x_max":1110,"o":"m 546 747 l 546 632 l 631 632 q 658 853 658 714 q 164 746 551 765 l 164 1036 l 919 1036 q 951 910 942 957 q 961 815 961 864 q 897 632 961 708 l 1110 632 l 1110 371 l 42 371 l 42 632 l 279 632 l 279 747 l 546 747 m 163 174 l 632 174 l 632 197 l 163 197 l 163 338 l 924 338 l 924 107 l 456 107 l 456 83 l 999 83 l 999 -175 l 163 -175 l 163 174 z "},"곪":{"ha":1151,"x_min":42,"x_max":1110,"o":"m 1008 -175 l 715 -175 l 715 -117 q 677 -166 714 -157 q 582 -175 640 -175 l 582 294 l 1008 294 l 1008 -175 m 42 604 l 279 604 l 279 713 l 546 713 l 546 604 l 618 604 q 650 710 642 650 q 658 853 658 771 q 164 746 551 765 l 164 1036 l 919 1036 q 952 910 942 956 q 963 814 963 864 q 872 604 963 690 l 1110 604 l 1110 343 l 42 343 l 42 604 m 147 89 l 264 89 l 264 110 l 147 110 l 147 294 l 556 294 l 556 31 l 439 31 l 439 10 l 556 10 l 556 -175 l 147 -175 l 147 89 m 715 6 l 715 154 l 663 154 l 663 6 l 715 6 z "},"곬":{"ha":1151,"x_min":42,"x_max":1110,"o":"m 521 168 q 603 154 567 154 q 692 192 664 154 q 719 283 721 229 l 872 283 q 892 169 892 222 q 888 118 892 143 l 999 118 l 999 -82 q 970 -160 999 -129 q 897 -190 942 -190 q 825 -160 854 -190 q 796 -82 796 -129 l 796 -76 q 694 -157 750 -128 q 581 -186 638 -186 q 521 -178 550 -186 l 521 168 m 42 576 l 279 576 l 279 713 l 546 713 l 546 576 l 601 576 q 646 692 633 624 q 658 853 658 760 q 164 746 551 765 l 164 1036 l 919 1036 l 928 1004 q 952 901 943 946 q 961 814 961 857 q 933 687 961 746 q 840 576 906 628 l 1110 576 l 1110 315 l 42 315 l 42 576 m 97 81 l 214 81 l 214 100 l 97 100 l 97 282 l 507 282 l 507 24 l 388 24 l 388 3 l 507 3 l 507 -179 l 97 -179 l 97 81 z "},"곯":{"ha":1151,"x_min":42,"x_max":1110,"o":"m 133 106 l 251 106 l 251 128 l 133 128 l 133 325 l 544 325 l 544 272 l 676 272 l 676 344 l 903 344 q 896 272 903 299 l 1057 272 l 1057 132 l 960 132 q 993 4 993 83 q 943 -147 993 -90 q 779 -204 893 -204 q 617 -147 667 -204 q 568 4 568 -90 q 599 132 568 82 l 544 132 l 544 43 l 426 43 l 426 21 l 544 21 l 544 -176 l 133 -176 l 133 106 m 42 601 l 279 601 l 279 713 l 546 713 l 546 601 l 615 601 q 649 709 639 647 q 658 853 658 771 q 164 746 551 765 l 164 1036 l 919 1036 q 935 978 922 1025 q 956 890 949 932 q 963 814 963 849 q 869 601 963 689 l 1110 601 l 1110 368 l 42 368 l 42 601 m 765 6 q 779 -97 765 -97 q 790 -74 786 -97 q 793 6 793 -51 q 790 82 793 60 q 779 104 786 104 q 765 6 765 104 z "},"곰":{"ha":1151,"x_min":42,"x_max":1110,"o":"m 932 -175 l 640 -175 l 640 -106 q 478 -163 639 -151 q 168 -175 317 -175 l 168 289 l 932 289 l 932 -175 m 42 604 l 279 604 l 279 713 l 546 713 l 546 604 l 618 604 q 650 710 642 650 q 658 853 658 771 q 164 746 551 765 l 164 1036 l 919 1036 q 952 910 942 956 q 963 814 963 864 q 872 604 963 690 l 1110 604 l 1110 343 l 42 343 l 42 604 m 640 31 l 640 171 l 575 171 l 575 31 l 640 31 z "},"곱":{"ha":1151,"x_min":42,"x_max":1110,"o":"m 932 289 l 932 -175 l 640 -175 l 640 -106 q 478 -163 639 -151 q 168 -175 317 -175 l 168 289 l 575 289 l 575 219 l 640 219 l 640 289 l 932 289 m 42 590 l 279 590 l 279 713 l 546 713 l 546 590 l 610 590 q 648 701 638 636 q 658 853 658 765 q 164 746 551 765 l 164 1036 l 919 1036 q 935 978 922 1024 q 956 891 949 932 q 963 815 963 850 q 938 695 963 751 q 856 590 914 639 l 1110 590 l 1110 329 l 42 329 l 42 590 m 640 31 l 640 101 l 575 101 l 575 31 l 640 31 z "},"곳":{"ha":1151,"x_min":42,"x_max":1110,"o":"m 121 183 q 258 168 190 168 q 467 207 374 168 q 619 303 561 246 l 772 303 q 775 239 776 268 l 967 239 l 967 -40 q 927 -147 967 -104 q 829 -189 888 -189 q 733 -147 772 -189 q 694 -40 694 -104 l 694 51 q 476 -118 613 -51 q 208 -185 339 -185 q 121 -175 160 -185 l 121 183 m 42 604 l 279 604 l 279 713 l 546 713 l 546 604 l 618 604 q 650 710 642 650 q 658 853 658 771 q 164 746 551 765 l 164 1036 l 919 1036 q 952 910 942 956 q 963 814 963 864 q 872 604 963 690 l 1110 604 l 1110 343 l 42 343 l 42 604 z "},"공":{"ha":1151,"x_min":42,"x_max":1110,"o":"m 563 -204 q 356 -170 442 -204 q 225 -77 269 -136 q 181 54 181 -18 q 225 185 181 126 q 356 278 269 244 q 563 313 442 313 q 772 278 685 313 q 902 186 858 244 q 946 54 946 128 q 902 -78 946 -19 q 772 -170 858 -136 q 563 -204 685 -204 m 42 604 l 279 604 l 279 713 l 546 713 l 546 604 l 618 604 q 650 710 642 650 q 658 853 658 771 q 164 746 551 765 l 164 1036 l 919 1036 q 952 910 942 956 q 963 814 963 864 q 872 604 963 690 l 1110 604 l 1110 343 l 42 343 l 42 604 m 521 54 q 563 -14 521 -14 q 606 54 606 -14 q 563 122 606 122 q 521 54 521 122 z "},"곶":{"ha":1151,"x_min":42,"x_max":1110,"o":"m 132 142 q 251 129 194 129 q 488 188 378 129 l 260 188 l 260 303 l 785 303 q 790 254 790 269 q 782 197 790 226 l 979 197 l 979 -40 q 940 -147 979 -104 q 843 -189 901 -189 q 747 -147 786 -189 q 708 -40 708 -104 l 708 51 q 488 -118 625 -51 q 221 -185 351 -185 q 132 -175 171 -185 l 132 142 m 42 604 l 279 604 l 279 713 l 546 713 l 546 604 l 618 604 q 650 710 642 650 q 658 853 658 771 q 164 746 551 765 l 164 1036 l 919 1036 q 952 910 942 956 q 963 814 963 864 q 872 604 963 690 l 1110 604 l 1110 343 l 42 343 l 42 604 z "},"곹":{"ha":1151,"x_min":42,"x_max":1110,"o":"m 185 317 l 907 317 l 907 208 l 475 208 l 475 174 l 907 174 l 907 107 l 475 107 l 475 72 l 944 72 l 944 -175 l 185 -175 l 185 317 m 42 604 l 279 604 l 279 713 l 546 713 l 546 604 l 618 604 q 650 710 642 650 q 658 853 658 771 q 164 746 551 765 l 164 1036 l 919 1036 q 952 910 942 956 q 963 814 963 864 q 872 604 963 690 l 1110 604 l 1110 343 l 42 343 l 42 604 z "},"과":{"ha":1260,"x_min":28,"x_max":1232,"o":"m 407 328 l 407 271 l 765 310 l 765 1088 l 1056 1088 l 1056 854 l 1232 854 l 1232 510 q 1147 519 1183 510 q 1084 565 1111 529 q 1056 676 1057 601 l 1056 -175 l 765 -175 l 765 188 q 613 56 703 106 q 388 -20 524 7 q 40 -60 251 -47 l 28 229 l 190 247 l 190 615 l 407 615 l 407 403 q 445 603 433 481 q 457 825 457 725 q 318 744 385 767 q 163 718 251 722 l 163 1008 l 681 1008 q 714 740 714 878 q 674 497 714 607 q 539 328 633 388 l 407 328 z "},"곽":{"ha":1260,"x_min":28,"x_max":1232,"o":"m 407 726 l 407 604 l 435 607 q 457 867 457 722 q 318 786 385 808 q 163 760 251 764 l 163 1050 l 681 1050 q 715 808 715 917 q 689 635 715 710 l 765 643 l 765 1088 l 1056 1088 l 1056 854 l 1232 854 l 1232 510 q 1147 519 1183 510 q 1084 565 1111 529 q 1056 676 1057 601 l 1056 331 l 765 331 l 765 521 q 613 390 703 439 q 388 313 524 340 q 40 274 251 286 l 28 563 l 190 581 l 190 726 l 407 726 m 283 269 l 1056 269 l 1056 -175 l 765 -175 l 765 22 q 596 -12 703 -4 q 339 -19 489 -19 l 283 -19 l 283 269 z "},"관":{"ha":1260,"x_min":28,"x_max":1232,"o":"m 407 726 l 407 604 l 435 607 q 457 867 457 722 q 318 786 385 808 q 163 760 251 764 l 163 1050 l 681 1050 q 715 808 715 917 q 689 635 715 710 l 765 643 l 765 1088 l 1056 1088 l 1056 854 l 1232 854 l 1232 510 q 1147 519 1183 510 q 1084 565 1111 529 q 1056 676 1057 601 l 1056 190 l 765 190 l 765 521 q 613 390 703 439 q 388 313 524 340 q 40 274 251 286 l 28 563 l 190 581 l 190 726 l 407 726 m 246 269 l 538 269 q 533 183 538 218 q 513 114 529 149 l 1094 114 l 1094 -175 l 246 -175 l 246 269 z "},"괄":{"ha":1260,"x_min":28,"x_max":1232,"o":"m 407 726 l 407 650 l 442 654 q 457 867 457 756 q 318 786 385 808 q 163 760 251 764 l 163 1050 l 681 1050 q 715 804 715 914 q 703 679 715 733 l 765 685 l 765 1088 l 1056 1088 l 1056 854 l 1232 854 l 1232 510 q 1147 519 1183 510 q 1084 565 1111 529 q 1056 676 1057 601 l 1056 396 l 765 396 l 765 576 q 613 462 703 506 q 388 394 524 418 q 40 358 251 371 l 28 614 l 190 629 l 190 726 l 407 726 m 296 125 l 765 125 l 765 149 l 296 149 l 296 358 l 1056 358 l 1056 58 l 589 58 l 589 35 l 1132 35 l 1132 -175 l 296 -175 l 296 125 z "},"괆":{"ha":1260,"x_min":28,"x_max":1232,"o":"m 1056 1088 l 1056 854 l 1232 854 l 1232 510 q 1147 519 1183 510 q 1084 565 1111 529 q 1056 676 1057 601 l 1056 389 l 765 389 l 765 576 q 613 462 703 506 q 388 394 524 418 q 40 358 251 371 l 28 614 l 190 629 l 190 726 l 407 726 l 407 650 l 442 654 q 457 867 457 756 q 318 786 385 808 q 163 760 251 764 l 163 1050 l 681 1050 q 715 804 715 914 q 703 679 715 733 l 765 685 l 765 1088 l 1056 1088 m 194 118 l 314 118 l 314 142 l 194 142 l 194 346 l 606 346 l 606 53 l 488 53 l 488 29 l 606 29 l 606 -175 l 194 -175 l 194 118 m 632 346 l 1056 346 l 1056 -175 l 765 -175 l 765 -110 q 727 -165 764 -154 q 632 -175 690 -175 l 632 346 m 765 25 l 765 190 l 713 190 l 713 25 l 765 25 z "},"괌":{"ha":1260,"x_min":28,"x_max":1232,"o":"m 407 726 l 407 618 l 438 621 q 457 867 457 726 q 318 786 385 808 q 163 760 251 764 l 163 1050 l 681 1050 q 715 806 715 914 q 694 649 715 718 l 765 657 l 765 1088 l 1056 1088 l 1056 854 l 1232 854 l 1232 510 q 1147 519 1183 510 q 1084 565 1111 529 q 1056 676 1057 601 l 1056 331 l 765 331 l 765 535 q 613 403 703 453 q 388 327 524 354 q 40 288 251 300 l 28 576 l 190 594 l 190 726 l 407 726 m 257 289 l 1056 289 l 1056 -175 l 765 -175 l 765 -106 q 590 -163 764 -151 q 257 -175 415 -175 l 257 289 m 765 31 l 765 115 l 625 115 l 625 31 l 765 31 z "},"괍":{"ha":1260,"x_min":28,"x_max":1232,"o":"m 407 726 l 407 618 l 438 621 q 457 867 457 726 q 318 786 385 808 q 163 760 251 764 l 163 1050 l 681 1050 q 715 806 715 914 q 694 649 715 718 l 765 657 l 765 1088 l 1056 1088 l 1056 854 l 1232 854 l 1232 510 q 1147 519 1183 510 q 1084 565 1111 529 q 1056 676 1057 601 l 1056 331 l 765 331 l 765 535 q 613 403 703 453 q 388 327 524 354 q 40 288 251 300 l 28 576 l 190 594 l 190 726 l 407 726 m 268 289 l 636 289 l 636 219 l 765 219 l 765 289 l 1056 289 l 1056 -175 l 765 -175 l 765 -106 q 594 -163 764 -151 q 268 -175 424 -175 l 268 289 m 765 31 l 765 101 l 636 101 l 636 31 l 765 31 z "},"괏":{"ha":1260,"x_min":28,"x_max":1232,"o":"m 407 726 l 407 604 l 435 607 q 457 867 457 722 q 318 786 385 808 q 163 760 251 764 l 163 1050 l 681 1050 q 715 808 715 917 q 689 635 715 710 l 765 643 l 765 1088 l 1056 1088 l 1056 854 l 1232 854 l 1232 510 q 1147 519 1183 510 q 1084 565 1111 529 q 1056 676 1057 601 l 1056 331 l 765 331 l 765 521 q 613 390 703 439 q 388 313 524 340 q 40 274 251 286 l 28 563 l 190 581 l 190 726 l 407 726 m 207 183 q 344 168 276 168 q 553 207 460 168 q 706 303 647 246 l 858 303 q 863 239 863 282 l 1053 239 l 1053 -40 q 1014 -147 1053 -104 q 915 -189 975 -189 q 822 -147 860 -189 q 783 -40 783 -104 l 783 51 q 563 -118 700 -51 q 296 -185 426 -185 q 207 -175 246 -185 l 207 183 z "},"괐":{"ha":1260,"x_min":28,"x_max":1232,"o":"m 407 726 l 407 632 l 440 635 q 457 867 457 740 q 318 786 385 808 q 163 760 251 764 l 163 1050 l 681 1050 q 715 808 715 917 q 697 663 715 731 l 765 671 l 765 1088 l 1056 1088 l 1056 854 l 1232 854 l 1232 510 q 1147 519 1183 510 q 1084 565 1111 529 q 1056 676 1057 601 l 1056 331 l 765 331 l 765 549 q 613 417 703 467 q 388 341 524 368 q 40 301 251 314 l 28 590 l 190 608 l 190 726 l 407 726 m 132 183 q 206 168 172 168 q 293 207 263 168 q 329 303 324 246 l 483 303 q 501 186 501 247 q 497 132 501 160 l 597 132 l 597 -76 q 568 -157 597 -125 q 494 -189 539 -189 q 425 -160 454 -189 q 394 -85 396 -131 q 297 -158 350 -132 q 192 -185 244 -185 q 132 -175 160 -185 l 132 183 m 621 183 q 694 168 660 168 q 782 207 751 168 q 819 303 813 246 l 971 303 q 990 189 990 249 q 986 132 990 160 l 1099 132 l 1099 -76 q 1069 -157 1099 -125 q 996 -189 1040 -189 q 924 -157 953 -189 q 896 -76 896 -125 l 896 -71 q 792 -154 849 -124 q 679 -185 736 -185 q 621 -175 649 -185 l 621 183 z "},"광":{"ha":1260,"x_min":28,"x_max":1232,"o":"m 407 726 l 407 604 l 435 607 q 457 867 457 722 q 318 786 385 808 q 163 760 251 764 l 163 1050 l 681 1050 q 715 808 715 917 q 689 635 715 710 l 765 643 l 765 1088 l 1056 1088 l 1056 854 l 1232 854 l 1232 510 q 1147 519 1183 510 q 1084 565 1111 529 q 1056 676 1057 601 l 1056 331 l 765 331 l 765 521 q 613 390 703 439 q 388 313 524 340 q 40 274 251 286 l 28 563 l 190 581 l 190 726 l 407 726 m 204 54 q 307 242 204 171 q 636 313 410 313 q 967 242 864 313 q 1069 54 1069 171 q 967 -133 1069 -62 q 636 -204 864 -204 q 307 -133 410 -204 q 204 54 204 -62 m 572 54 q 636 -18 572 -18 q 703 54 703 -18 q 636 126 703 126 q 572 54 572 126 z "},"괒":{"ha":1260,"x_min":28,"x_max":1232,"o":"m 407 726 l 407 632 l 440 635 q 457 867 457 740 q 318 786 385 808 q 163 760 251 764 l 163 1050 l 681 1050 q 715 808 715 917 q 697 663 715 731 l 765 671 l 765 1088 l 1056 1088 l 1056 854 l 1232 854 l 1232 510 q 1147 519 1183 510 q 1084 565 1111 529 q 1056 676 1057 601 l 1056 331 l 765 331 l 765 549 q 613 417 703 467 q 388 341 524 368 q 40 301 251 314 l 28 590 l 190 608 l 190 726 l 407 726 m 207 142 q 325 129 269 129 q 563 188 451 129 l 333 188 l 333 303 l 858 303 q 864 258 864 282 q 856 197 864 239 l 1053 197 l 1053 -40 q 1014 -147 1053 -104 q 915 -189 975 -189 q 822 -147 860 -189 q 783 -40 783 -104 l 783 51 q 563 -118 700 -51 q 296 -185 426 -185 q 207 -175 246 -185 l 207 142 z "},"괘":{"ha":1282,"x_min":83,"x_max":1199,"o":"m 363 328 l 363 271 l 707 304 l 707 1060 l 936 1060 l 936 799 l 971 799 l 971 1088 l 1199 1088 l 1199 -175 l 971 -175 l 971 371 l 936 371 l 936 -175 l 707 -175 l 707 68 q 447 -6 600 21 q 83 -46 294 -33 l 83 243 l 221 257 l 221 574 l 363 574 l 363 403 q 399 603 388 481 q 411 825 411 725 q 290 742 333 761 q 168 718 247 722 l 168 1008 l 622 1008 q 647 881 638 953 q 657 733 657 808 q 619 494 657 601 q 494 328 582 386 l 363 328 z "},"괜":{"ha":1321,"x_min":83,"x_max":1238,"o":"m 363 671 l 363 550 l 371 550 q 411 825 411 643 q 290 742 333 761 q 168 718 247 722 l 168 1008 l 624 1008 q 649 892 640 943 q 658 789 658 840 q 594 574 658 664 l 708 585 l 708 1060 l 938 1060 l 938 882 l 971 882 l 971 1088 l 1200 1088 l 1200 200 l 971 200 l 971 496 l 938 496 l 938 200 l 708 200 l 708 364 q 404 269 594 304 l 643 269 q 639 183 643 218 q 619 114 635 149 l 1238 114 l 1238 -175 l 351 -175 l 351 261 q 83 232 249 244 l 83 521 l 221 535 l 221 671 l 363 671 z "},"괠":{"ha":1357,"x_min":83,"x_max":1274,"o":"m 1200 1088 l 1200 372 l 971 372 l 971 560 l 936 560 l 936 372 l 707 372 l 707 443 q 447 366 600 393 q 83 325 293 339 l 83 582 l 221 594 l 221 717 l 363 717 l 363 608 l 369 608 q 410 854 410 690 q 291 780 335 797 q 168 758 247 763 l 168 1017 l 622 1017 q 649 909 640 953 q 658 819 658 865 q 593 629 658 710 l 707 640 l 707 1061 l 936 1061 l 936 904 l 971 904 l 971 1088 l 1200 1088 m 389 106 l 907 106 l 907 129 l 389 129 l 389 325 l 1200 325 l 1200 44 l 681 44 l 681 22 l 1274 22 l 1274 -175 l 389 -175 l 389 106 z "},"괢":{"ha":1282,"x_min":83,"x_max":1199,"o":"m 1199 -175 l 908 -175 l 908 -115 q 869 -165 907 -156 q 775 -175 832 -175 l 775 311 l 1199 311 l 1199 -175 m 83 575 l 221 588 l 221 728 l 363 728 l 363 611 q 411 861 411 694 q 290 789 333 806 q 168 768 247 772 l 168 1019 l 622 1019 q 658 831 658 906 q 567 618 658 703 l 707 631 l 707 1061 l 936 1061 l 936 910 l 971 910 l 971 1088 l 1199 1088 l 1199 360 l 971 360 l 971 578 l 936 578 l 936 360 l 707 360 l 707 440 q 444 366 599 393 q 83 326 290 339 l 83 575 m 276 99 l 456 99 l 456 119 l 276 119 l 276 311 l 749 311 l 749 38 l 567 38 l 567 15 l 749 15 l 749 -175 l 276 -175 l 276 99 m 908 13 l 908 165 l 856 165 l 856 13 l 908 13 z "},"괩":{"ha":1282,"x_min":83,"x_max":1199,"o":"m 1199 242 l 1199 -175 l 908 -175 l 908 -112 q 728 -165 907 -154 q 386 -175 550 -175 l 386 242 l 754 242 l 754 179 l 908 179 l 908 242 l 1199 242 m 83 515 l 221 529 l 221 696 l 363 696 l 363 568 q 411 842 411 658 q 290 763 333 781 q 168 740 247 744 l 168 1014 l 622 1014 q 658 807 658 889 q 553 561 658 656 l 707 575 l 707 1057 l 936 1057 l 936 894 l 971 894 l 971 1088 l 1199 1088 l 1199 281 l 971 281 l 971 532 l 936 532 l 936 281 l 707 281 l 707 368 q 445 286 600 315 q 83 243 290 257 l 83 515 m 908 10 l 908 74 l 754 74 l 754 10 l 908 10 z "},"괬":{"ha":1325,"x_min":83,"x_max":1242,"o":"m 1200 1088 l 1200 304 l 971 304 l 971 544 l 938 544 l 938 304 l 708 304 l 708 397 q 446 314 600 343 q 83 271 292 285 l 83 547 l 221 561 l 221 692 l 363 692 l 363 575 l 369 576 q 413 839 413 663 q 290 759 333 778 q 168 738 246 740 l 168 1015 l 624 1015 q 660 804 660 888 q 594 599 660 685 l 708 610 l 708 1058 l 938 1058 l 938 899 l 971 899 l 971 1088 l 1200 1088 m 275 183 q 372 165 333 165 q 451 193 426 165 q 474 261 475 221 l 626 261 q 644 132 649 190 l 740 132 l 740 -76 q 711 -157 740 -125 q 639 -189 682 -189 q 574 -165 600 -189 q 540 -101 547 -140 q 447 -164 499 -142 q 343 -186 394 -186 q 275 -175 311 -186 l 275 183 m 764 183 q 861 165 822 165 q 938 193 914 165 q 963 261 963 221 l 1115 261 q 1133 132 1138 196 l 1242 132 l 1242 -76 q 1213 -157 1242 -125 q 1140 -189 1183 -189 q 1072 -161 1100 -189 q 1040 -90 1043 -133 q 942 -160 997 -135 q 832 -186 888 -186 q 764 -175 800 -186 l 764 183 z "},"괭":{"ha":1296,"x_min":83,"x_max":1213,"o":"m 1200 1088 l 1200 338 l 971 338 l 971 551 l 936 551 l 936 338 l 707 338 l 707 404 q 445 322 600 351 q 83 279 290 293 l 83 553 l 222 567 l 222 710 l 363 710 l 363 581 l 371 581 q 413 842 413 671 q 291 763 335 781 q 169 740 247 744 l 169 1017 l 624 1017 q 649 906 640 956 q 658 808 658 857 q 592 603 658 688 l 707 614 l 707 1060 l 936 1060 l 936 901 l 971 901 l 971 1088 l 1200 1088 m 425 54 q 471 185 425 126 q 606 278 517 244 q 819 313 694 313 q 1033 278 944 313 q 1167 185 1121 244 q 1213 54 1213 126 q 1167 -77 1213 -18 q 1033 -170 1121 -136 q 819 -204 944 -204 q 606 -170 694 -204 q 471 -77 517 -136 q 425 54 425 -18 m 779 54 q 819 -19 779 -19 q 849 -2 838 -19 q 860 54 860 15 q 849 110 860 93 q 819 128 838 128 q 779 54 779 128 z "},"괴":{"ha":1139,"x_min":28,"x_max":1056,"o":"m 406 328 l 406 271 l 764 310 l 764 1088 l 1056 1088 l 1056 -175 l 764 -175 l 764 188 q 613 57 703 107 q 386 -20 522 7 q 39 -60 250 -47 l 28 229 l 189 247 l 189 615 l 406 615 l 406 403 q 444 601 432 479 q 456 825 456 722 q 317 744 383 767 q 161 718 250 722 l 161 1008 l 679 1008 q 714 742 714 872 q 674 499 714 608 q 538 328 633 389 l 406 328 z "},"괵":{"ha":1139,"x_min":28,"x_max":1056,"o":"m 406 726 l 406 604 l 433 607 q 456 867 456 722 q 317 786 383 808 q 161 760 250 764 l 161 1050 l 679 1050 q 714 808 714 917 q 688 635 714 710 l 764 643 l 764 1088 l 1056 1088 l 1056 331 l 764 331 l 764 521 q 613 390 703 440 q 386 313 522 340 q 39 274 250 286 l 28 563 l 189 581 l 189 726 l 406 726 m 282 269 l 1056 269 l 1056 -175 l 764 -175 l 764 22 q 594 -12 701 -4 q 338 -19 488 -19 l 282 -19 l 282 269 z "},"괸":{"ha":1176,"x_min":28,"x_max":1093,"o":"m 406 726 l 406 604 l 433 607 q 456 867 456 722 q 318 786 385 808 q 163 760 251 764 l 163 1050 l 679 1050 q 714 806 714 914 q 689 635 714 711 l 764 643 l 764 1088 l 1057 1088 l 1057 190 l 764 190 l 764 521 q 613 390 703 440 q 386 313 522 340 q 39 274 250 286 l 28 563 l 190 581 l 190 726 l 406 726 m 246 269 l 538 269 q 533 183 538 218 q 511 114 529 149 l 1093 114 l 1093 -175 l 246 -175 l 246 269 z "},"괼":{"ha":1215,"x_min":28,"x_max":1132,"o":"m 408 726 l 408 650 l 443 654 q 457 867 457 776 q 319 786 386 808 q 163 760 251 764 l 163 1050 l 682 1050 q 715 811 715 922 q 701 679 715 740 l 765 685 l 765 1088 l 1057 1088 l 1057 396 l 765 396 l 765 576 q 613 462 703 506 q 388 394 524 418 q 40 358 251 371 l 28 614 l 190 629 l 190 726 l 408 726 m 296 125 l 765 125 l 765 149 l 296 149 l 296 358 l 1057 358 l 1057 58 l 588 58 l 588 35 l 1132 35 l 1132 -175 l 296 -175 l 296 125 z "},"굄":{"ha":1139,"x_min":28,"x_max":1056,"o":"m 406 726 l 406 632 l 439 635 q 456 867 456 740 q 317 786 383 808 q 161 760 250 764 l 161 1050 l 679 1050 q 714 806 714 914 q 697 663 714 725 l 764 671 l 764 1088 l 1056 1088 l 1056 331 l 764 331 l 764 549 q 613 418 703 468 q 386 341 522 368 q 39 301 250 314 l 28 590 l 189 608 l 189 726 l 406 726 m 256 289 l 1056 289 l 1056 -175 l 764 -175 l 764 -106 q 588 -163 763 -151 q 256 -175 414 -175 l 256 289 m 764 31 l 764 115 l 624 115 l 624 31 l 764 31 z "},"굅":{"ha":1139,"x_min":28,"x_max":1056,"o":"m 406 726 l 406 632 l 439 635 q 456 867 456 740 q 317 786 383 808 q 161 760 250 764 l 161 1050 l 679 1050 q 714 806 714 914 q 697 663 714 725 l 764 671 l 764 1088 l 1056 1088 l 1056 331 l 764 331 l 764 549 q 613 418 703 468 q 386 341 522 368 q 39 301 250 314 l 28 590 l 189 608 l 189 726 l 406 726 m 267 289 l 635 289 l 635 219 l 764 219 l 764 289 l 1056 289 l 1056 -175 l 764 -175 l 764 -106 q 592 -163 763 -151 q 267 -175 422 -175 l 267 289 m 764 31 l 764 101 l 635 101 l 635 31 l 764 31 z "},"굇":{"ha":1139,"x_min":28,"x_max":1056,"o":"m 406 726 l 406 604 l 433 607 q 456 867 456 722 q 317 786 383 808 q 161 760 250 764 l 161 1050 l 679 1050 q 714 808 714 917 q 688 635 714 710 l 764 643 l 764 1088 l 1056 1088 l 1056 331 l 764 331 l 764 521 q 613 390 703 440 q 386 313 522 340 q 39 274 250 286 l 28 563 l 189 581 l 189 726 l 406 726 m 206 183 q 344 168 275 168 q 553 207 460 168 q 704 303 647 246 l 857 303 q 863 239 863 282 l 1051 239 l 1051 -40 q 1013 -147 1051 -104 q 914 -189 974 -189 q 820 -147 858 -189 q 782 -40 782 -104 l 782 51 q 562 -118 699 -51 q 294 -185 425 -185 q 206 -175 244 -185 l 206 183 z "},"굉":{"ha":1154,"x_min":28,"x_max":1071,"o":"m 408 726 l 408 604 l 436 607 q 457 867 457 715 q 319 786 386 808 q 164 760 253 764 l 164 1050 l 682 1050 q 717 808 717 917 q 690 635 717 710 l 765 643 l 765 1088 l 1057 1088 l 1057 331 l 765 331 l 765 521 q 613 390 703 439 q 388 313 524 340 q 42 274 253 286 l 28 563 l 192 581 l 192 726 l 408 726 m 206 54 q 308 242 206 171 q 638 313 411 313 q 967 242 864 313 q 1071 54 1071 171 q 967 -133 1071 -62 q 638 -204 864 -204 q 308 -133 411 -204 q 206 54 206 -62 m 572 54 q 638 -18 572 -18 q 704 54 704 -18 q 638 126 704 126 q 572 54 572 126 z "},"교":{"ha":1151,"x_min":42,"x_max":1110,"o":"m 597 369 l 597 271 l 1110 271 l 1110 -18 l 42 -18 l 42 271 l 156 271 l 156 597 l 358 597 l 358 271 l 393 271 l 393 597 l 597 597 l 597 408 q 644 571 631 467 q 658 783 658 675 q 164 676 551 696 l 164 1022 l 919 1022 q 950 885 939 946 q 961 757 961 824 q 778 369 961 515 l 597 369 z "},"굔":{"ha":1151,"x_min":42,"x_max":1110,"o":"m 171 269 l 464 269 q 460 183 464 218 q 439 114 456 149 l 983 114 l 983 -175 l 171 -175 l 171 269 m 42 563 l 154 563 l 154 685 l 343 685 l 343 563 l 378 563 l 378 685 l 565 685 l 565 563 l 592 563 q 644 681 629 608 q 658 853 658 753 q 164 746 551 765 l 164 1036 l 919 1036 l 928 1004 q 952 901 943 946 q 961 814 961 857 q 929 679 961 742 q 821 563 897 617 l 1110 563 l 1110 301 l 42 301 l 42 563 z "},"굘":{"ha":1151,"x_min":42,"x_max":1110,"o":"m 1110 371 l 42 371 l 42 632 l 154 632 l 154 713 l 343 713 l 343 632 l 378 632 l 378 713 l 565 713 l 565 632 l 631 632 q 658 853 658 714 q 164 746 551 765 l 164 1036 l 919 1036 q 951 910 942 957 q 961 815 961 864 q 897 632 961 708 l 1110 632 l 1110 371 m 163 174 l 632 174 l 632 197 l 163 197 l 163 338 l 924 338 l 924 107 l 456 107 l 456 83 l 999 83 l 999 -175 l 163 -175 l 163 174 z "},"굠":{"ha":1151,"x_min":42,"x_max":1110,"o":"m 932 -175 l 640 -175 l 640 -106 q 478 -163 639 -151 q 168 -175 317 -175 l 168 289 l 932 289 l 932 -175 m 42 563 l 154 563 l 154 685 l 343 685 l 343 563 l 378 563 l 378 685 l 565 685 l 565 563 l 592 563 q 644 681 629 608 q 658 853 658 753 q 164 746 551 765 l 164 1036 l 919 1036 l 928 1004 q 952 901 943 946 q 961 814 961 857 q 929 679 961 742 q 821 563 897 617 l 1110 563 l 1110 301 l 42 301 l 42 563 m 640 31 l 640 171 l 575 171 l 575 31 l 640 31 z "},"굡":{"ha":1151,"x_min":42,"x_max":1110,"o":"m 932 289 l 932 -175 l 640 -175 l 640 -106 q 478 -163 639 -151 q 168 -175 317 -175 l 168 289 l 575 289 l 575 219 l 640 219 l 640 289 l 932 289 m 42 563 l 154 563 l 154 685 l 343 685 l 343 563 l 378 563 l 378 685 l 565 685 l 565 563 l 592 563 q 644 681 629 608 q 658 853 658 753 q 164 746 551 765 l 164 1036 l 919 1036 l 928 1004 q 952 901 943 946 q 961 814 961 857 q 929 679 961 742 q 821 563 897 617 l 1110 563 l 1110 328 l 42 328 l 42 563 m 640 31 l 640 101 l 575 101 l 575 31 l 640 31 z "},"굣":{"ha":1151,"x_min":42,"x_max":1110,"o":"m 121 183 q 258 168 190 168 q 467 207 374 168 q 619 303 561 246 l 772 303 q 775 239 776 268 l 967 239 l 967 -40 q 927 -147 967 -104 q 829 -189 888 -189 q 733 -147 772 -189 q 694 -40 694 -104 l 694 51 q 476 -118 613 -51 q 208 -185 339 -185 q 121 -175 160 -185 l 121 183 m 42 563 l 154 563 l 154 685 l 343 685 l 343 563 l 378 563 l 378 685 l 565 685 l 565 563 l 592 563 q 644 681 629 608 q 658 853 658 753 q 164 746 551 765 l 164 1036 l 919 1036 l 928 1004 q 952 901 943 946 q 961 814 961 857 q 929 679 961 742 q 821 563 897 617 l 1110 563 l 1110 332 l 42 332 l 42 563 z "},"굥":{"ha":1151,"x_min":42,"x_max":1110,"o":"m 563 -204 q 356 -170 442 -204 q 225 -77 269 -136 q 181 54 181 -18 q 247 211 181 144 q 438 301 314 278 l 42 301 l 42 563 l 154 563 l 154 685 l 343 685 l 343 563 l 378 563 l 378 685 l 565 685 l 565 563 l 592 563 q 644 681 629 608 q 658 853 658 753 q 164 746 551 765 l 164 1036 l 919 1036 l 928 1004 q 952 901 943 946 q 961 814 961 857 q 929 679 961 742 q 821 563 897 617 l 1110 563 l 1110 301 l 689 301 q 879 211 813 278 q 946 54 946 144 q 902 -78 946 -19 q 772 -170 858 -136 q 563 -204 685 -204 m 521 54 q 563 -14 521 -14 q 606 54 606 -14 q 563 122 606 122 q 521 54 521 122 z "},"구":{"ha":1151,"x_min":42,"x_max":1110,"o":"m 1110 218 l 735 218 l 735 -175 l 392 -175 l 392 218 l 42 218 l 42 507 l 607 507 q 647 663 635 561 q 658 867 658 764 q 164 760 551 779 l 164 1050 l 919 1050 q 963 786 963 896 q 853 507 963 606 l 1110 507 l 1110 218 z "},"국":{"ha":1151,"x_min":42,"x_max":1110,"o":"m 1110 357 l 735 357 l 735 269 l 932 269 l 932 -175 l 640 -175 l 640 22 q 472 -12 579 -4 q 214 -19 364 -19 l 158 -19 l 158 269 l 392 269 l 392 357 l 42 357 l 42 618 l 625 618 q 658 853 658 699 q 164 746 551 765 l 164 1036 l 919 1036 q 935 978 922 1024 q 956 890 949 932 q 963 814 963 849 q 885 618 963 700 l 1110 618 l 1110 357 z "},"군":{"ha":1151,"x_min":42,"x_max":1110,"o":"m 171 269 l 464 269 q 460 183 464 218 q 439 114 456 149 l 983 114 l 983 -175 l 171 -175 l 171 269 m 42 563 l 592 563 q 644 681 629 608 q 658 853 658 753 q 164 746 551 765 l 164 1036 l 919 1036 l 928 1004 q 952 901 943 946 q 961 814 961 857 q 929 679 961 742 q 821 563 897 617 l 1110 563 l 1110 301 l 872 301 l 872 172 l 529 172 l 529 301 l 42 301 l 42 563 z "},"굳":{"ha":1151,"x_min":42,"x_max":1110,"o":"m 171 281 l 392 281 l 392 329 l 42 329 l 42 590 l 610 590 q 648 701 638 636 q 658 853 658 765 q 164 746 551 765 l 164 1036 l 919 1036 q 935 978 922 1024 q 956 891 949 932 q 963 815 963 850 q 938 695 963 751 q 856 590 914 639 l 1110 590 l 1110 329 l 735 329 l 735 281 l 932 281 l 932 117 l 464 117 l 464 69 l 944 97 l 944 -178 l 171 -178 l 171 281 z "},"굴":{"ha":1151,"x_min":42,"x_max":1110,"o":"m 1110 371 l 735 371 l 735 338 l 924 338 l 924 107 l 456 107 l 456 83 l 999 83 l 999 -175 l 163 -175 l 163 174 l 632 174 l 632 197 l 163 197 l 163 338 l 392 338 l 392 371 l 42 371 l 42 632 l 631 632 q 658 853 658 714 q 164 746 551 765 l 164 1036 l 919 1036 q 951 910 942 957 q 961 815 961 864 q 897 632 961 708 l 1110 632 l 1110 371 z "},"굵":{"ha":1151,"x_min":42,"x_max":1110,"o":"m 108 97 l 226 97 l 226 119 l 108 119 l 108 310 l 392 310 l 392 371 l 42 371 l 42 632 l 631 632 q 658 853 658 714 q 164 746 551 765 l 164 1036 l 919 1036 q 951 910 942 957 q 961 815 961 864 q 897 632 961 708 l 1110 632 l 1110 371 l 735 371 l 735 310 l 969 310 l 969 -175 l 678 -175 l 678 85 q 628 53 660 58 q 544 47 597 47 l 544 269 l 518 269 l 518 38 l 401 38 l 401 15 l 594 15 l 594 -175 l 108 -175 l 108 97 z "},"굶":{"ha":1151,"x_min":42,"x_max":1110,"o":"m 1008 -175 l 715 -175 l 715 -117 q 677 -166 714 -157 q 582 -175 640 -175 l 582 269 l 556 269 l 556 31 l 439 31 l 439 10 l 556 10 l 556 -175 l 147 -175 l 147 89 l 264 89 l 264 110 l 147 110 l 147 294 l 392 294 l 392 329 l 42 329 l 42 590 l 610 590 q 648 701 638 636 q 658 853 658 765 q 164 746 551 765 l 164 1036 l 919 1036 q 935 978 922 1024 q 956 891 949 932 q 963 815 963 850 q 938 695 963 751 q 856 590 914 639 l 1110 590 l 1110 329 l 735 329 l 735 294 l 1008 294 l 1008 -175 m 715 6 l 715 154 l 663 154 l 663 6 l 715 6 z "},"굻":{"ha":1151,"x_min":42,"x_max":1110,"o":"m 133 106 l 251 106 l 251 128 l 133 128 l 133 325 l 544 325 l 544 272 l 676 272 l 676 344 l 903 344 q 896 272 903 299 l 1057 272 l 1057 132 l 960 132 q 993 4 993 83 q 943 -147 993 -90 q 779 -204 893 -204 q 617 -147 667 -204 q 568 4 568 -90 q 599 132 568 82 l 544 132 l 544 43 l 426 43 l 426 21 l 544 21 l 544 -176 l 133 -176 l 133 106 m 42 660 l 639 660 q 658 853 658 738 q 164 746 551 765 l 164 1036 l 919 1036 q 951 910 942 957 q 961 814 961 864 q 918 660 961 728 l 1110 660 l 1110 439 l 735 439 l 735 353 l 392 353 l 392 439 l 42 439 l 42 660 m 765 6 q 779 -97 765 -97 q 790 -74 786 -97 q 793 6 793 -51 q 790 82 793 60 q 779 104 786 104 q 765 6 765 104 z "},"굼":{"ha":1151,"x_min":42,"x_max":1110,"o":"m 1110 329 l 735 329 l 735 289 l 932 289 l 932 -175 l 640 -175 l 640 -106 q 478 -163 639 -151 q 168 -175 317 -175 l 168 289 l 392 289 l 392 329 l 42 329 l 42 590 l 610 590 q 648 701 638 636 q 658 853 658 765 q 164 746 551 765 l 164 1036 l 919 1036 q 935 978 922 1024 q 956 891 949 932 q 963 815 963 850 q 938 695 963 751 q 856 590 914 639 l 1110 590 l 1110 329 m 640 31 l 640 171 l 575 171 l 575 31 l 640 31 z "},"굽":{"ha":1151,"x_min":42,"x_max":1110,"o":"m 932 289 l 932 -175 l 640 -175 l 640 -106 q 478 -163 639 -151 q 168 -175 317 -175 l 168 289 l 575 289 l 575 219 l 640 219 l 640 289 l 932 289 m 42 632 l 631 632 q 658 853 658 714 q 164 746 551 765 l 164 1036 l 919 1036 q 951 910 942 957 q 961 815 961 864 q 897 632 961 708 l 1110 632 l 1110 371 l 735 371 l 735 311 l 392 311 l 392 371 l 42 371 l 42 632 m 640 31 l 640 101 l 575 101 l 575 31 l 640 31 z "},"굿":{"ha":1151,"x_min":42,"x_max":1110,"o":"m 1110 329 l 735 329 l 735 283 l 392 283 l 392 329 l 42 329 l 42 590 l 610 590 q 648 701 638 636 q 658 853 658 765 q 164 746 551 765 l 164 1036 l 919 1036 q 935 978 922 1024 q 956 891 949 932 q 963 815 963 850 q 938 695 963 751 q 856 590 914 639 l 1110 590 l 1110 329 m 107 139 q 246 125 178 125 q 455 160 361 125 q 607 246 549 196 l 760 246 q 764 189 765 217 l 954 189 l 954 -61 q 915 -156 954 -118 q 818 -194 876 -194 q 722 -156 761 -194 q 683 -61 683 -118 l 683 21 q 463 -131 600 -71 q 196 -190 326 -190 q 107 -182 149 -190 l 107 139 z "},"궁":{"ha":1151,"x_min":42,"x_max":1110,"o":"m 563 -204 q 356 -170 442 -204 q 225 -77 269 -136 q 181 54 181 -18 q 235 198 181 135 q 392 290 290 261 l 392 329 l 42 329 l 42 590 l 610 590 q 648 701 638 636 q 658 853 658 765 q 164 746 551 765 l 164 1036 l 919 1036 q 935 978 922 1024 q 956 891 949 932 q 963 815 963 850 q 938 695 963 751 q 856 590 914 639 l 1110 590 l 1110 329 l 735 329 l 735 290 q 891 198 836 261 q 946 54 946 135 q 902 -78 946 -19 q 772 -170 858 -136 q 563 -204 685 -204 m 521 54 q 563 -14 521 -14 q 606 54 606 -14 q 563 122 606 122 q 521 54 521 122 z "},"궂":{"ha":1151,"x_min":42,"x_max":1110,"o":"m 132 142 q 251 129 194 129 q 488 188 378 129 l 260 188 l 260 303 l 785 303 q 790 254 790 269 q 782 197 790 226 l 979 197 l 979 -40 q 940 -147 979 -104 q 843 -189 901 -189 q 747 -147 786 -189 q 708 -40 708 -104 l 708 51 q 488 -118 625 -51 q 221 -185 351 -185 q 132 -175 171 -185 l 132 142 m 42 688 l 646 688 q 658 853 658 751 q 164 746 551 765 l 164 1036 l 919 1036 l 928 1007 q 953 897 946 936 q 961 815 961 858 q 933 688 961 743 l 1110 688 l 1110 426 l 735 426 l 735 353 l 392 353 l 392 426 l 42 426 l 42 688 z "},"궃":{"ha":1151,"x_min":42,"x_max":1110,"o":"m 121 97 q 244 86 178 86 q 486 135 374 86 l 246 135 l 246 219 l 772 219 q 776 179 776 199 q 774 143 776 165 l 967 143 l 967 -65 q 927 -154 967 -119 q 829 -189 888 -189 q 733 -154 772 -189 q 694 -65 694 -119 l 694 10 q 475 -131 613 -75 q 208 -186 338 -186 q 121 -178 163 -186 l 121 97 m 42 701 l 640 701 q 658 869 658 765 q 164 772 553 793 l 164 1036 l 919 1036 q 935 981 924 1024 q 954 901 947 939 q 961 832 961 864 q 924 701 961 758 l 1110 701 l 1110 440 l 735 440 l 735 367 l 392 367 l 392 440 l 42 440 l 42 701 m 457 324 l 772 324 l 772 250 l 457 250 l 457 324 z "},"궈":{"ha":1179,"x_min":42,"x_max":1096,"o":"m 1096 1088 l 1096 -175 l 803 -175 l 803 -37 l 653 -37 l 653 238 l 803 238 l 803 438 q 576 275 719 328 l 576 -139 l 310 -139 l 310 213 q 67 190 213 199 l 42 479 l 467 524 q 488 694 482 600 q 494 867 494 788 q 358 786 425 808 q 203 760 292 764 l 203 1050 l 719 1050 q 754 783 754 925 q 717 550 754 650 l 803 560 l 803 1088 l 1096 1088 z "},"궉":{"ha":1179,"x_min":42,"x_max":1096,"o":"m 1096 1088 l 1096 331 l 803 331 l 803 386 l 671 386 l 671 504 q 576 463 626 481 l 576 331 l 310 331 l 310 406 q 67 385 203 393 l 42 660 l 490 707 q 494 867 494 799 q 358 786 425 808 q 203 760 292 764 l 203 1050 l 719 1050 q 738 878 738 986 q 729 732 738 807 l 803 740 l 803 1088 l 1096 1088 m 310 269 l 1096 269 l 1096 -175 l 803 -175 l 803 22 q 631 -12 743 -4 q 365 -19 519 -19 l 310 -19 l 310 269 m 803 521 l 803 618 q 699 521 760 561 l 803 521 z "},"권":{"ha":1218,"x_min":42,"x_max":1135,"o":"m 249 269 l 539 269 q 535 183 539 218 q 514 114 531 149 l 1135 114 l 1135 -175 l 249 -175 l 249 269 m 488 679 q 496 867 496 750 q 358 786 425 808 q 203 760 292 764 l 203 1050 l 721 1050 q 739 883 739 988 q 725 704 739 792 l 804 713 l 804 1088 l 1096 1088 l 1096 164 l 804 164 l 804 239 l 639 239 l 639 408 l 804 408 l 804 590 q 708 499 763 536 q 578 435 653 461 l 578 303 l 311 303 l 311 378 q 67 357 199 365 l 42 632 l 488 679 z "},"궐":{"ha":1254,"x_min":42,"x_max":1171,"o":"m 285 82 l 804 82 l 804 103 l 285 103 l 285 282 l 1096 282 l 1096 25 l 576 25 l 576 6 l 1171 6 l 1171 -175 l 285 -175 l 285 82 m 490 707 q 496 867 496 789 q 357 786 424 808 q 201 760 290 764 l 201 1050 l 719 1050 q 738 883 738 988 q 728 732 738 804 l 804 740 l 804 1088 l 1096 1088 l 1096 317 l 804 317 l 804 372 l 699 372 l 699 507 l 804 507 l 804 618 q 706 526 761 564 q 576 463 651 489 l 576 331 l 310 331 l 310 406 q 67 385 203 393 l 42 660 l 490 707 z "},"궜":{"ha":1222,"x_min":42,"x_max":1139,"o":"m 661 183 q 758 165 719 165 q 835 193 811 165 q 858 261 860 221 l 1011 261 q 1031 132 1035 193 l 1139 132 l 1139 -76 q 1110 -157 1139 -125 q 1036 -189 1081 -189 q 968 -162 996 -189 q 936 -90 940 -135 q 838 -160 893 -135 q 728 -186 783 -186 q 661 -175 697 -186 l 661 183 m 490 707 q 497 867 497 783 q 358 786 425 808 q 203 760 292 764 l 203 1050 l 721 1050 q 739 879 739 978 q 729 732 739 801 l 806 740 l 806 1088 l 1096 1088 l 1096 297 l 806 297 l 806 356 l 700 356 l 700 521 q 578 463 650 489 l 578 331 l 311 331 l 311 406 q 67 385 201 393 l 42 660 l 490 707 m 172 183 q 269 165 231 165 q 347 193 324 165 q 369 261 371 221 l 524 261 q 542 132 544 196 l 638 132 l 638 -76 q 608 -157 638 -125 q 535 -189 579 -189 q 470 -165 497 -189 q 436 -101 443 -140 q 343 -164 394 -142 q 240 -186 292 -186 q 172 -175 208 -186 l 172 183 m 806 525 l 806 618 q 706 525 761 563 l 806 525 z "},"궝":{"ha":1190,"x_min":42,"x_max":1107,"o":"m 714 -204 q 500 -170 589 -204 q 366 -77 411 -136 q 321 54 321 -18 q 366 185 321 126 q 500 278 411 244 q 714 313 589 313 q 928 278 839 313 q 1062 185 1017 244 q 1107 54 1107 126 q 1062 -77 1107 -18 q 928 -170 1017 -136 q 714 -204 839 -204 m 490 707 q 494 867 494 799 q 358 786 425 808 q 201 760 290 764 l 201 1050 l 719 1050 q 738 874 738 975 q 729 732 738 806 l 803 740 l 803 1088 l 1096 1088 l 1096 331 l 803 331 l 803 386 l 697 386 l 697 521 q 576 463 643 486 l 576 331 l 308 331 l 308 406 q 67 385 203 393 l 42 660 l 490 707 m 675 54 q 714 -19 675 -19 q 756 54 756 -19 q 714 128 756 128 q 675 54 675 128 m 803 556 l 803 618 q 743 556 779 585 l 803 556 z "},"궤":{"ha":1229,"x_min":42,"x_max":1146,"o":"m 1146 1088 l 1146 -175 l 917 -175 l 917 1088 l 1146 1088 m 299 507 q 319 685 313 585 q 325 867 325 785 q 258 799 278 817 q 216 772 239 781 q 151 760 193 763 l 151 1050 l 563 1050 q 593 760 593 911 q 565 535 593 628 l 653 543 l 653 1060 l 882 1060 l 882 -92 l 653 -92 l 653 19 l 542 19 l 542 225 l 653 225 l 653 317 q 458 251 574 276 l 458 -147 l 242 -147 l 242 219 q 54 204 138 210 l 42 479 l 299 507 z "},"궷":{"ha":1229,"x_min":42,"x_max":1146,"o":"m 242 400 q 54 385 138 390 l 42 660 l 319 689 q 325 867 325 779 q 258 799 278 817 q 216 772 239 781 q 151 760 193 763 l 151 1050 l 563 1050 q 593 768 593 914 q 592 718 593 735 l 653 724 l 653 1060 l 882 1060 l 882 311 l 653 311 l 653 325 l 542 325 l 542 453 l 458 432 l 458 242 l 242 242 l 242 400 m 296 168 q 436 153 375 153 q 644 190 550 153 q 794 282 738 228 l 949 282 q 951 221 953 247 l 1143 221 l 1143 -47 q 1103 -150 1143 -110 q 1006 -190 1064 -190 q 910 -150 949 -190 q 871 -47 871 -110 l 871 40 q 651 -123 788 -58 q 385 -187 514 -187 q 296 -178 344 -187 l 296 168 m 653 461 l 653 497 q 567 461 618 479 l 653 461 m 917 1088 l 1146 1088 l 1146 311 l 917 311 l 917 1088 z "},"궸":{"ha":1272,"x_min":42,"x_max":1189,"o":"m 710 183 q 807 165 768 165 q 885 193 861 165 q 910 261 910 221 l 1061 261 q 1081 132 1085 197 l 1189 132 l 1189 -76 q 1160 -157 1189 -125 q 1086 -189 1131 -189 q 1018 -161 1046 -189 q 986 -90 990 -133 q 888 -160 943 -135 q 778 -186 833 -186 q 710 -175 746 -186 l 710 183 m 321 689 q 326 867 326 779 q 260 799 281 817 q 217 772 240 781 q 153 760 193 763 l 153 1050 l 564 1050 q 587 894 578 983 q 593 718 596 806 l 654 724 l 654 1060 l 883 1060 l 883 286 l 654 286 l 654 325 l 542 325 l 542 453 l 460 432 l 460 283 l 243 283 l 243 400 q 56 385 142 390 l 42 660 l 321 689 m 222 183 q 319 165 281 165 q 397 193 372 165 q 419 261 421 221 l 572 261 q 592 132 594 199 l 688 132 l 688 -76 q 658 -157 688 -125 q 585 -189 629 -189 q 520 -165 547 -189 q 486 -101 493 -140 q 393 -164 444 -142 q 290 -186 342 -186 q 222 -175 258 -186 l 222 183 m 654 461 l 654 497 q 567 461 622 481 l 654 461 m 918 1088 l 1147 1088 l 1147 286 l 918 286 l 918 1088 z "},"귀":{"ha":1179,"x_min":42,"x_max":1096,"o":"m 1096 1088 l 1096 -175 l 803 -175 l 803 438 q 576 275 719 328 l 576 -139 l 310 -139 l 310 213 q 67 190 213 199 l 42 479 l 467 524 q 488 694 482 600 q 494 867 494 788 q 358 786 425 808 q 203 760 292 764 l 203 1050 l 719 1050 q 754 783 754 925 q 717 550 754 650 l 803 560 l 803 1088 l 1096 1088 z "},"귁":{"ha":1179,"x_min":42,"x_max":1096,"o":"m 1096 -175 l 803 -175 l 803 22 q 631 -12 743 -4 q 365 -19 519 -19 l 310 -19 l 310 269 l 1096 269 l 1096 -175 m 488 679 q 494 867 494 768 q 358 786 425 808 q 203 760 292 764 l 203 1050 l 719 1050 q 738 876 738 975 q 725 704 738 792 l 803 713 l 803 1088 l 1096 1088 l 1096 331 l 803 331 l 803 590 q 706 499 761 536 q 576 435 651 461 l 576 303 l 310 303 l 310 378 q 67 357 203 365 l 42 632 l 488 679 z "},"귄":{"ha":1218,"x_min":42,"x_max":1135,"o":"m 249 269 l 539 269 q 535 183 539 218 q 514 114 531 149 l 1135 114 l 1135 -175 l 249 -175 l 249 269 m 488 679 q 496 867 496 750 q 358 786 425 808 q 203 760 292 764 l 203 1050 l 721 1050 q 739 883 739 988 q 725 704 739 792 l 804 713 l 804 1088 l 1096 1088 l 1096 164 l 804 164 l 804 590 q 708 499 763 536 q 578 435 653 461 l 578 303 l 311 303 l 311 378 q 67 357 199 365 l 42 632 l 488 679 z "},"귈":{"ha":1254,"x_min":42,"x_max":1171,"o":"m 285 82 l 804 82 l 804 103 l 285 103 l 285 282 l 1096 282 l 1096 25 l 576 25 l 576 6 l 1171 6 l 1171 -175 l 285 -175 l 285 82 m 488 679 q 496 867 496 764 q 357 786 424 808 q 201 760 290 764 l 201 1050 l 719 1050 q 738 879 738 986 q 725 704 738 794 l 804 713 l 804 1088 l 1096 1088 l 1096 317 l 804 317 l 804 590 q 706 499 761 536 q 576 435 651 461 l 576 324 l 310 324 l 310 378 q 67 357 203 365 l 42 632 l 488 679 z "},"귐":{"ha":1179,"x_min":42,"x_max":1096,"o":"m 1096 -175 l 803 -175 l 803 -110 q 642 -164 801 -153 q 333 -175 482 -175 l 333 258 l 1096 258 l 1096 -175 m 488 679 q 494 867 494 768 q 358 786 425 808 q 203 760 292 764 l 203 1050 l 719 1050 q 738 876 738 975 q 725 704 738 792 l 803 713 l 803 1088 l 1096 1088 l 1096 300 l 803 300 l 803 590 q 706 499 761 536 q 576 435 651 461 l 576 303 l 310 303 l 310 378 q 67 357 203 365 l 42 632 l 488 679 m 803 17 l 803 147 l 739 147 l 739 17 l 803 17 z "},"귑":{"ha":1179,"x_min":42,"x_max":1096,"o":"m 1096 242 l 1096 -175 l 803 -175 l 803 -112 q 624 -165 801 -154 q 283 -175 446 -175 l 283 242 l 651 242 l 651 179 l 803 179 l 803 242 l 1096 242 m 488 679 q 494 867 494 768 q 358 786 425 808 q 203 760 292 764 l 203 1050 l 719 1050 q 738 876 738 975 q 725 704 738 792 l 803 713 l 803 1088 l 1096 1088 l 1096 285 l 803 285 l 803 590 q 706 499 761 536 q 576 435 651 461 l 576 303 l 310 303 l 310 378 q 67 357 203 365 l 42 632 l 488 679 m 803 10 l 803 74 l 651 74 l 651 10 l 803 10 z "},"귓":{"ha":1179,"x_min":42,"x_max":1096,"o":"m 246 168 q 386 153 325 153 q 594 190 500 153 q 744 282 688 228 l 899 282 q 901 221 903 247 l 1092 221 l 1092 -47 q 1053 -150 1092 -110 q 956 -190 1014 -190 q 860 -150 899 -190 q 821 -47 821 -110 l 821 40 q 601 -123 738 -58 q 335 -187 464 -187 q 246 -178 294 -187 l 246 168 m 488 714 q 494 885 494 796 q 358 810 424 831 q 203 788 292 790 l 203 1053 l 719 1053 q 738 894 738 988 q 725 736 738 818 l 803 744 l 803 1088 l 1096 1088 l 1096 315 l 803 315 l 803 632 q 576 489 719 535 l 576 254 l 310 254 l 310 438 q 67 418 228 428 l 42 671 l 488 714 z "},"귕":{"ha":1190,"x_min":42,"x_max":1107,"o":"m 714 -204 q 500 -170 589 -204 q 366 -77 411 -136 q 321 54 321 -18 q 366 185 321 126 q 500 278 411 244 q 714 313 589 313 q 928 278 839 313 q 1062 185 1017 244 q 1107 54 1107 126 q 1062 -77 1107 -18 q 928 -170 1017 -136 q 714 -204 839 -204 m 488 679 q 494 867 494 768 q 358 786 425 808 q 201 760 290 764 l 201 1050 l 719 1050 q 736 879 736 983 q 724 704 736 794 l 803 713 l 803 1088 l 1096 1088 l 1096 331 l 803 331 l 803 590 q 706 499 760 536 q 576 435 651 461 l 576 303 l 308 303 l 308 378 q 67 357 203 365 l 42 632 l 488 679 m 675 54 q 714 -19 675 -19 q 756 54 756 -19 q 714 128 756 128 q 675 54 675 128 z "},"규":{"ha":1151,"x_min":42,"x_max":1110,"o":"m 1110 218 l 872 218 l 872 -175 l 606 -175 l 606 218 l 546 218 l 546 -175 l 279 -175 l 279 218 l 42 218 l 42 507 l 607 507 q 647 663 635 561 q 658 867 658 764 q 164 760 551 779 l 164 1050 l 919 1050 q 963 786 963 896 q 853 507 963 606 l 1110 507 l 1110 218 z "},"균":{"ha":1151,"x_min":42,"x_max":1110,"o":"m 171 269 l 343 269 l 343 301 l 42 301 l 42 563 l 592 563 q 644 681 629 608 q 658 853 658 753 q 164 746 551 765 l 164 1036 l 919 1036 l 928 1004 q 952 901 943 946 q 961 814 961 857 q 929 679 961 742 q 821 563 897 617 l 1110 563 l 1110 301 l 935 301 l 935 186 l 668 186 l 668 301 l 608 301 l 608 186 l 460 186 q 439 114 456 156 l 983 114 l 983 -175 l 171 -175 l 171 269 z "},"귤":{"ha":1151,"x_min":42,"x_max":1110,"o":"m 1110 413 l 847 413 l 847 338 l 924 338 l 924 107 l 456 107 l 456 83 l 999 83 l 999 -175 l 163 -175 l 163 174 l 632 174 l 632 197 l 163 197 l 163 338 l 254 338 l 254 413 l 42 413 l 42 674 l 642 674 q 658 853 658 744 q 164 746 551 765 l 164 1036 l 919 1036 l 928 1004 q 952 901 943 946 q 961 813 961 857 q 926 674 961 738 l 1110 674 l 1110 413 m 581 338 l 581 413 l 521 413 l 521 338 l 581 338 z "},"귬":{"ha":1151,"x_min":42,"x_max":1110,"o":"m 932 -175 l 640 -175 l 640 -106 q 478 -163 639 -151 q 168 -175 317 -175 l 168 289 l 932 289 l 932 -175 m 42 660 l 639 660 q 658 853 658 738 q 164 746 551 765 l 164 1036 l 919 1036 q 951 910 942 957 q 961 814 961 864 q 918 660 961 728 l 1110 660 l 1110 399 l 847 399 l 847 325 l 581 325 l 581 399 l 521 399 l 521 325 l 254 325 l 254 399 l 42 399 l 42 660 m 640 31 l 640 171 l 575 171 l 575 31 l 640 31 z "},"귭":{"ha":1151,"x_min":42,"x_max":1110,"o":"m 932 289 l 932 -175 l 640 -175 l 640 -106 q 478 -163 639 -151 q 168 -175 317 -175 l 168 289 l 575 289 l 575 219 l 640 219 l 640 289 l 932 289 m 42 660 l 639 660 q 658 853 658 738 q 164 746 551 765 l 164 1036 l 919 1036 q 951 910 942 957 q 961 814 961 864 q 918 660 961 728 l 1110 660 l 1110 399 l 847 399 l 847 325 l 581 325 l 581 399 l 521 399 l 521 325 l 254 325 l 254 399 l 42 399 l 42 660 m 640 31 l 640 101 l 575 101 l 575 31 l 640 31 z "},"그":{"ha":1151,"x_min":42,"x_max":1110,"o":"m 565 369 q 638 531 617 410 q 658 783 658 651 q 164 676 551 696 l 164 1022 l 919 1022 q 950 885 939 946 q 961 757 961 824 q 778 369 961 515 l 565 369 m 42 271 l 1110 271 l 1110 -18 l 42 -18 l 42 271 z "},"극":{"ha":1151,"x_min":42,"x_max":1110,"o":"m 932 -175 l 640 -175 l 640 22 q 472 -12 579 -4 q 214 -19 364 -19 l 158 -19 l 158 269 l 932 269 l 932 -175 m 42 590 l 610 590 q 648 701 638 636 q 658 853 658 765 q 164 746 551 765 l 164 1036 l 919 1036 q 935 978 922 1024 q 956 891 949 932 q 963 815 963 850 q 938 695 963 751 q 856 590 914 639 l 1110 590 l 1110 329 l 42 329 l 42 590 z "},"근":{"ha":1151,"x_min":42,"x_max":1110,"o":"m 171 269 l 464 269 q 460 183 464 218 q 439 114 456 149 l 983 114 l 983 -175 l 171 -175 l 171 269 m 42 576 l 601 576 q 646 692 633 624 q 658 853 658 760 q 164 746 551 765 l 164 1036 l 919 1036 l 928 1004 q 952 901 943 946 q 961 814 961 857 q 933 687 961 746 q 840 576 906 628 l 1110 576 l 1110 315 l 42 315 l 42 576 z "},"귿":{"ha":1151,"x_min":42,"x_max":1110,"o":"m 171 281 l 932 281 l 932 117 l 464 117 l 464 69 l 944 97 l 944 -178 l 171 -178 l 171 281 m 42 590 l 610 590 q 648 701 638 636 q 658 853 658 765 q 164 746 551 765 l 164 1036 l 919 1036 q 935 978 922 1024 q 956 891 949 932 q 963 815 963 850 q 938 695 963 751 q 856 590 914 639 l 1110 590 l 1110 329 l 42 329 l 42 590 z "},"글":{"ha":1151,"x_min":42,"x_max":1110,"o":"m 1110 371 l 42 371 l 42 632 l 631 632 q 658 853 658 714 q 164 746 551 765 l 164 1036 l 919 1036 q 951 910 942 957 q 961 815 961 864 q 897 632 961 708 l 1110 632 l 1110 371 m 163 174 l 632 174 l 632 197 l 163 197 l 163 338 l 924 338 l 924 107 l 456 107 l 456 83 l 999 83 l 999 -175 l 163 -175 l 163 174 z "},"긁":{"ha":1151,"x_min":42,"x_max":1110,"o":"m 969 -175 l 678 -175 l 678 85 q 628 53 660 58 q 544 47 597 47 l 544 310 l 969 310 l 969 -175 m 42 618 l 625 618 q 658 853 658 699 q 164 746 551 765 l 164 1036 l 919 1036 q 935 978 922 1024 q 956 890 949 932 q 963 814 963 849 q 885 618 963 700 l 1110 618 l 1110 357 l 42 357 l 42 618 m 108 97 l 226 97 l 226 119 l 108 119 l 108 310 l 518 310 l 518 38 l 401 38 l 401 15 l 594 15 l 594 -175 l 108 -175 l 108 97 z "},"긂":{"ha":1151,"x_min":42,"x_max":1110,"o":"m 1008 -175 l 715 -175 l 715 -117 q 677 -166 714 -157 q 582 -175 640 -175 l 582 294 l 1008 294 l 1008 -175 m 42 604 l 618 604 q 650 710 642 650 q 658 853 658 771 q 164 746 551 765 l 164 1036 l 919 1036 q 952 910 942 956 q 963 814 963 864 q 872 604 963 690 l 1110 604 l 1110 343 l 42 343 l 42 604 m 147 89 l 264 89 l 264 110 l 147 110 l 147 294 l 556 294 l 556 31 l 439 31 l 439 10 l 556 10 l 556 -175 l 147 -175 l 147 89 m 715 6 l 715 154 l 663 154 l 663 6 l 715 6 z "},"긇":{"ha":1151,"x_min":42,"x_max":1110,"o":"m 133 106 l 251 106 l 251 128 l 133 128 l 133 325 l 544 325 l 544 272 l 676 272 l 676 344 l 903 344 q 896 272 903 299 l 1057 272 l 1057 132 l 960 132 q 993 4 993 83 q 943 -147 993 -90 q 779 -204 893 -204 q 617 -147 667 -204 q 568 4 568 -90 q 599 132 568 82 l 544 132 l 544 43 l 426 43 l 426 21 l 544 21 l 544 -176 l 133 -176 l 133 106 m 42 646 l 633 646 q 658 853 658 721 q 164 746 551 765 l 164 1036 l 919 1036 q 951 913 940 961 q 961 815 961 865 q 908 646 961 717 l 1110 646 l 1110 385 l 42 385 l 42 646 m 765 6 q 779 -97 765 -97 q 790 -74 786 -97 q 793 6 793 -51 q 790 82 793 60 q 779 104 786 104 q 765 6 765 104 z "},"금":{"ha":1151,"x_min":42,"x_max":1110,"o":"m 932 -175 l 640 -175 l 640 -106 q 478 -163 639 -151 q 168 -175 317 -175 l 168 289 l 932 289 l 932 -175 m 42 590 l 610 590 q 648 701 638 636 q 658 853 658 765 q 164 746 551 765 l 164 1036 l 919 1036 q 935 978 922 1024 q 956 891 949 932 q 963 815 963 850 q 938 695 963 751 q 856 590 914 639 l 1110 590 l 1110 329 l 42 329 l 42 590 m 640 31 l 640 171 l 575 171 l 575 31 l 640 31 z "},"급":{"ha":1151,"x_min":42,"x_max":1110,"o":"m 932 289 l 932 -175 l 640 -175 l 640 -106 q 478 -163 639 -151 q 168 -175 317 -175 l 168 289 l 575 289 l 575 219 l 640 219 l 640 289 l 932 289 m 42 590 l 610 590 q 648 701 638 636 q 658 853 658 765 q 164 746 551 765 l 164 1036 l 919 1036 q 935 978 922 1024 q 956 891 949 932 q 963 815 963 850 q 938 695 963 751 q 856 590 914 639 l 1110 590 l 1110 329 l 42 329 l 42 590 m 640 31 l 640 101 l 575 101 l 575 31 l 640 31 z "},"긋":{"ha":1151,"x_min":42,"x_max":1110,"o":"m 121 183 q 258 168 190 168 q 467 207 374 168 q 619 303 561 246 l 772 303 q 775 239 776 268 l 967 239 l 967 -40 q 927 -147 967 -104 q 829 -189 888 -189 q 733 -147 772 -189 q 694 -40 694 -104 l 694 51 q 476 -118 613 -51 q 208 -185 339 -185 q 121 -175 160 -185 l 121 183 m 42 590 l 610 590 q 648 701 638 636 q 658 853 658 765 q 164 746 551 765 l 164 1036 l 919 1036 q 935 978 922 1024 q 956 891 949 932 q 963 815 963 850 q 938 695 963 751 q 856 590 914 639 l 1110 590 l 1110 329 l 42 329 l 42 590 z "},"긍":{"ha":1151,"x_min":42,"x_max":1110,"o":"m 563 -204 q 356 -170 442 -204 q 225 -77 269 -136 q 181 54 181 -18 q 225 185 181 126 q 356 278 269 244 q 563 313 442 313 q 772 278 685 313 q 902 186 858 244 q 946 54 946 128 q 902 -78 946 -19 q 772 -170 858 -136 q 563 -204 685 -204 m 42 618 l 625 618 q 658 853 658 699 q 164 746 551 765 l 164 1036 l 919 1036 q 935 978 922 1024 q 956 890 949 932 q 963 814 963 849 q 885 618 963 700 l 1110 618 l 1110 357 l 42 357 l 42 618 m 521 54 q 563 -14 521 -14 q 606 54 606 -14 q 563 122 606 122 q 521 54 521 122 z "},"긏":{"ha":1151,"x_min":42,"x_max":1110,"o":"m 121 113 q 244 101 178 101 q 485 151 372 101 l 246 151 l 246 240 l 772 240 q 776 197 776 219 q 774 161 776 186 l 967 161 l 967 -58 q 927 -151 967 -114 q 829 -189 888 -189 q 733 -151 772 -189 q 694 -58 694 -114 l 694 21 q 476 -126 614 -68 q 208 -185 339 -185 q 121 -176 163 -185 l 121 113 m 42 660 l 639 660 q 658 853 658 738 q 164 746 551 765 l 164 1036 l 919 1036 q 951 910 942 957 q 961 814 961 864 q 918 660 961 728 l 1110 660 l 1110 399 l 42 399 l 42 660 m 457 350 l 772 350 l 772 274 l 457 274 l 457 350 z "},"긑":{"ha":1151,"x_min":42,"x_max":1110,"o":"m 185 317 l 907 317 l 907 208 l 475 208 l 475 174 l 907 174 l 907 107 l 475 107 l 475 72 l 944 72 l 944 -175 l 185 -175 l 185 317 m 42 632 l 631 632 q 658 853 658 714 q 164 746 551 765 l 164 1036 l 919 1036 q 951 910 942 957 q 961 815 961 864 q 897 632 961 708 l 1110 632 l 1110 371 l 42 371 l 42 632 z "},"긓":{"ha":1151,"x_min":42,"x_max":1110,"o":"m 121 242 l 397 242 l 397 360 l 776 360 q 763 289 776 317 q 713 242 750 261 l 1022 242 l 1022 103 l 121 103 l 121 242 m 42 660 l 639 660 q 658 853 658 738 q 164 746 551 765 l 164 1036 l 919 1036 q 951 910 942 957 q 961 814 961 864 q 918 660 961 728 l 1110 660 l 1110 399 l 42 399 l 42 660 m 214 -60 q 297 44 214 6 q 571 83 381 83 q 846 44 763 83 q 929 -60 929 6 q 846 -165 929 -125 q 571 -204 763 -204 q 297 -165 379 -204 q 214 -60 214 -125 m 547 -58 q 571 -131 547 -131 q 596 -58 596 -131 q 571 10 596 10 q 547 -58 547 10 z "},"긔":{"ha":1139,"x_min":28,"x_max":1056,"o":"m 363 328 q 434 523 413 368 q 456 825 456 678 q 317 744 383 767 q 161 718 250 722 l 161 1008 l 679 1008 q 714 742 714 872 q 674 499 714 608 q 538 328 633 389 l 363 328 m 764 310 l 764 1088 l 1056 1088 l 1056 -175 l 764 -175 l 764 188 q 613 57 703 107 q 386 -20 522 7 q 39 -60 250 -47 l 28 229 l 764 310 z "},"긘":{"ha":1176,"x_min":28,"x_max":1093,"o":"m 1057 1088 l 1057 190 l 764 190 l 764 521 q 613 390 703 440 q 386 313 522 340 q 39 274 250 286 l 28 563 l 433 607 q 456 867 456 722 q 318 786 385 808 q 163 760 251 764 l 163 1050 l 679 1050 q 714 806 714 914 q 689 635 714 711 l 764 643 l 764 1088 l 1057 1088 m 246 269 l 538 269 q 533 183 538 218 q 511 114 529 149 l 1093 114 l 1093 -175 l 246 -175 l 246 269 z "},"긩":{"ha":1154,"x_min":28,"x_max":1071,"o":"m 1057 1088 l 1057 331 l 765 331 l 765 521 q 613 390 703 439 q 388 313 524 340 q 42 274 253 286 l 28 563 l 436 607 q 457 867 457 715 q 319 786 386 808 q 164 760 253 764 l 164 1050 l 682 1050 q 717 808 717 917 q 690 635 717 710 l 765 643 l 765 1088 l 1057 1088 m 206 54 q 308 242 206 171 q 638 313 411 313 q 967 242 864 313 q 1071 54 1071 171 q 967 -133 1071 -62 q 638 -204 864 -204 q 308 -133 411 -204 q 206 54 206 -62 m 572 54 q 638 -18 572 -18 q 704 54 704 -18 q 638 126 704 126 q 572 54 572 126 z "},"기":{"ha":1124,"x_min":83,"x_max":1040,"o":"m 83 417 q 139 428 83 417 q 302 469 232 442 q 437 578 372 497 q 528 811 501 658 q 146 704 413 718 l 146 1036 l 639 1036 q 690 726 690 881 q 608 372 690 528 q 399 129 525 215 q 147 43 272 43 q 83 50 118 43 l 83 417 m 749 1088 l 1040 1088 l 1040 -175 l 749 -175 l 749 1088 z "},"긱":{"ha":1124,"x_min":83,"x_max":1040,"o":"m 1040 -175 l 749 -175 l 749 22 q 580 -12 688 -4 q 322 -19 472 -19 l 267 -19 l 267 269 l 1040 269 l 1040 -175 m 83 625 q 113 628 94 626 q 142 629 132 629 q 303 649 233 633 q 438 718 374 664 q 528 881 501 772 q 146 774 413 788 l 146 1064 l 639 1064 q 686 806 686 928 q 608 535 686 646 q 414 371 531 425 q 181 317 297 317 q 83 328 131 317 l 83 625 m 749 1088 l 1040 1088 l 1040 331 l 749 331 l 749 1088 z "},"긴":{"ha":1160,"x_min":83,"x_max":1076,"o":"m 1040 1088 l 1040 190 l 747 190 l 747 1088 l 1040 1088 m 83 625 q 113 628 94 626 q 142 629 132 629 q 303 649 233 633 q 438 718 374 664 q 526 881 501 772 q 144 774 414 788 l 144 1064 l 638 1064 q 686 804 686 924 q 608 535 686 644 q 413 371 531 425 q 179 317 296 317 q 83 328 131 317 l 83 625 m 228 269 l 521 269 q 517 183 521 218 q 496 114 513 149 l 1076 114 l 1076 -175 l 228 -175 l 228 269 z "},"긷":{"ha":1135,"x_min":83,"x_max":1051,"o":"m 279 349 l 1038 349 l 1038 161 l 571 161 l 571 107 l 1051 139 l 1051 -178 l 279 -178 l 279 349 m 140 667 q 303 685 233 671 q 437 748 372 699 q 528 897 501 797 q 146 799 414 813 l 146 1067 l 639 1067 q 686 829 686 940 q 608 580 686 682 q 413 428 531 478 q 179 379 296 379 q 83 389 124 379 l 83 663 l 140 667 m 749 1088 l 1039 1088 l 1039 392 l 749 392 l 749 1088 z "},"길":{"ha":1199,"x_min":83,"x_max":1115,"o":"m 278 125 l 747 125 l 747 149 l 278 149 l 278 358 l 1040 358 l 1040 58 l 571 58 l 571 35 l 1115 35 l 1115 -175 l 278 -175 l 278 125 m 142 675 q 303 692 232 678 q 438 754 374 706 q 526 900 501 803 q 147 804 413 815 l 147 1064 l 639 1064 q 686 832 686 942 q 608 590 686 689 q 414 442 531 490 q 181 394 297 394 q 83 404 124 394 l 83 671 l 142 675 m 747 1088 l 1040 1088 l 1040 400 l 747 400 l 747 1088 z "},"긺":{"ha":1124,"x_min":83,"x_max":1040,"o":"m 1040 -175 l 749 -175 l 749 -108 q 710 -164 747 -153 q 615 -175 672 -175 l 615 358 l 1040 358 l 1040 -175 m 142 675 q 303 692 232 678 q 438 754 374 706 q 528 900 501 803 q 146 804 411 814 l 146 1064 l 639 1064 q 686 832 686 942 q 608 590 686 689 q 414 442 531 490 q 181 394 297 394 q 83 404 124 394 l 83 671 l 142 675 m 179 125 l 296 125 l 296 149 l 179 149 l 179 358 l 589 358 l 589 58 l 471 58 l 471 35 l 589 35 l 589 -175 l 179 -175 l 179 125 m 749 31 l 749 199 l 696 199 l 696 31 l 749 31 m 749 1088 l 1040 1088 l 1040 399 l 749 399 l 749 1088 z "},"김":{"ha":1124,"x_min":83,"x_max":1040,"o":"m 1040 -175 l 749 -175 l 749 -106 q 573 -163 747 -151 q 239 -175 399 -175 l 239 289 l 1040 289 l 1040 -175 m 83 625 q 113 628 94 626 q 142 629 132 629 q 303 649 233 633 q 438 718 374 664 q 528 881 501 772 q 146 774 413 788 l 146 1064 l 639 1064 q 686 806 686 928 q 608 535 686 646 q 414 371 531 425 q 181 317 297 317 q 83 328 131 317 l 83 625 m 749 31 l 749 115 l 608 115 l 608 31 l 749 31 m 749 1088 l 1040 1088 l 1040 331 l 749 331 l 749 1088 z "},"깁":{"ha":1124,"x_min":83,"x_max":1040,"o":"m 1040 289 l 1040 -175 l 749 -175 l 749 -106 q 577 -163 747 -151 q 251 -175 407 -175 l 251 289 l 619 289 l 619 219 l 749 219 l 749 289 l 1040 289 m 83 625 q 113 628 94 626 q 142 629 132 629 q 303 649 233 633 q 438 718 374 664 q 528 881 501 772 q 146 774 413 788 l 146 1064 l 639 1064 q 686 806 686 928 q 608 535 686 646 q 414 371 531 425 q 181 317 297 317 q 83 328 131 317 l 83 625 m 749 31 l 749 101 l 619 101 l 619 31 l 749 31 m 749 1088 l 1040 1088 l 1040 331 l 749 331 l 749 1088 z "},"깃":{"ha":1124,"x_min":83,"x_max":1040,"o":"m 190 183 q 328 168 260 168 q 538 207 443 168 q 690 303 632 246 l 842 303 q 846 239 849 271 l 1036 239 l 1036 -40 q 997 -147 1036 -104 q 900 -189 958 -189 q 804 -147 843 -189 q 765 -40 765 -104 l 765 51 q 546 -118 683 -51 q 278 -185 408 -185 q 190 -175 229 -185 l 190 183 m 83 625 q 113 628 94 626 q 142 629 132 629 q 303 649 233 633 q 438 718 374 664 q 528 881 501 772 q 146 774 413 788 l 146 1064 l 639 1064 q 686 806 686 928 q 608 535 686 646 q 414 371 531 425 q 181 317 297 317 q 83 328 131 317 l 83 625 m 749 1088 l 1040 1088 l 1040 350 l 749 350 l 749 1088 z "},"깄":{"ha":1164,"x_min":83,"x_max":1081,"o":"m 604 183 q 678 168 643 168 q 764 207 733 168 q 801 303 794 246 l 954 303 q 974 185 974 242 q 969 132 974 160 l 1081 132 l 1081 -76 q 1051 -157 1081 -125 q 979 -189 1022 -189 q 906 -157 935 -189 q 878 -76 878 -125 l 878 -71 q 776 -154 832 -124 q 663 -185 719 -185 q 604 -175 632 -185 l 604 183 m 83 625 q 113 628 94 626 q 142 629 132 629 q 303 649 233 633 q 438 718 374 664 q 526 881 501 772 q 146 774 413 788 l 146 1064 l 639 1064 q 686 807 686 928 q 608 536 686 647 q 414 371 531 425 q 181 317 297 317 q 83 328 131 317 l 83 625 m 114 183 q 188 168 154 168 q 276 207 244 168 q 313 303 307 246 l 465 303 q 486 189 486 244 q 481 132 486 168 l 579 132 l 579 -76 q 550 -157 579 -125 q 478 -189 521 -189 q 408 -160 436 -189 q 376 -85 379 -131 q 280 -158 333 -131 q 174 -185 226 -185 q 114 -175 142 -185 l 114 183 m 747 1088 l 1039 1088 l 1039 331 l 747 331 l 747 1088 z "},"깅":{"ha":1135,"x_min":83,"x_max":1051,"o":"m 619 -204 q 290 -133 393 -204 q 186 54 186 -62 q 290 242 186 171 q 619 313 393 313 q 949 242 846 313 q 1051 54 1051 171 q 949 -133 1051 -62 q 619 -204 846 -204 m 83 625 q 142 629 89 626 q 302 649 232 633 q 437 718 372 664 q 528 881 501 772 q 146 774 413 788 l 146 1064 l 639 1064 q 686 806 686 928 q 608 535 686 646 q 414 371 531 425 q 181 317 297 317 q 83 328 131 317 l 83 625 m 554 54 q 619 -18 554 -18 q 685 54 685 -18 q 619 126 685 126 q 554 54 554 126 m 749 1088 l 1039 1088 l 1039 331 l 749 331 l 749 1088 z "},"깆":{"ha":1124,"x_min":83,"x_max":1040,"o":"m 190 142 q 308 129 253 129 q 544 188 433 129 l 317 188 l 317 303 l 842 303 q 846 257 846 281 q 839 197 846 229 l 1036 197 l 1036 -40 q 997 -147 1036 -104 q 900 -189 958 -189 q 804 -147 843 -189 q 765 -40 765 -104 l 765 51 q 546 -118 683 -51 q 278 -185 408 -185 q 190 -175 229 -185 l 190 142 m 83 625 q 113 628 94 626 q 142 629 132 629 q 303 649 233 633 q 438 718 374 664 q 528 881 501 772 q 146 774 413 788 l 146 1064 l 639 1064 q 686 806 686 928 q 608 535 686 646 q 414 371 531 425 q 181 317 297 317 q 83 328 131 317 l 83 625 m 749 1088 l 1040 1088 l 1040 331 l 749 331 l 749 1088 z "},"깊":{"ha":1124,"x_min":83,"x_max":1040,"o":"m 217 303 l 1040 303 l 1040 181 l 947 181 q 831 44 932 82 l 1040 44 l 1040 -175 l 217 -175 l 217 44 l 425 44 q 308 181 324 82 l 217 181 l 217 303 m 83 625 q 113 628 94 626 q 142 629 132 629 q 303 649 233 633 q 438 718 374 664 q 528 881 501 772 q 146 774 413 788 l 146 1064 l 639 1064 q 686 806 686 928 q 608 535 686 646 q 414 371 531 425 q 181 317 297 317 q 83 328 131 317 l 83 625 m 650 44 l 650 181 l 607 181 l 607 44 l 650 44 m 749 1088 l 1040 1088 l 1040 331 l 749 331 l 749 1088 z "},"까":{"ha":1332,"x_min":83,"x_max":1304,"o":"m 1129 1088 l 1129 854 l 1304 854 l 1304 510 q 1219 519 1256 510 q 1156 565 1183 529 q 1129 676 1129 601 l 1129 -175 l 836 -175 l 836 1088 l 1129 1088 m 83 333 q 117 331 92 333 q 171 329 143 329 q 478 428 339 329 q 636 811 618 526 q 568 728 594 749 q 497 704 542 708 l 497 1036 l 765 1036 q 778 796 778 906 q 689 306 778 486 q 474 57 600 126 q 218 -12 349 -12 q 83 8 135 -12 l 83 333 m 146 639 q 199 635 175 635 q 281 672 250 635 q 331 811 311 708 q 263 729 290 750 q 193 704 236 708 l 193 1036 l 461 1036 q 472 832 472 914 q 425 533 472 632 q 314 408 378 435 q 146 369 250 382 l 146 639 z "},"깍":{"ha":1332,"x_min":83,"x_max":1304,"o":"m 1129 1088 l 1129 854 l 1304 854 l 1304 510 q 1219 519 1256 510 q 1156 565 1183 529 q 1129 676 1129 601 l 1129 331 l 836 331 l 836 1088 l 1129 1088 m 83 574 q 112 572 92 574 q 169 571 132 571 q 478 642 338 571 q 636 917 618 713 q 568 857 594 872 q 497 839 542 842 l 497 1078 l 765 1078 q 778 885 778 972 q 627 432 778 556 q 268 308 476 308 q 83 326 171 308 l 83 574 m 146 793 q 200 789 175 789 q 281 815 251 789 q 331 917 311 842 q 263 857 290 872 q 193 839 236 842 l 193 1078 l 461 1078 q 472 924 472 985 q 425 701 472 772 q 313 615 378 631 q 146 599 249 599 l 146 793 m 356 269 l 1129 269 l 1129 -175 l 836 -175 l 836 22 q 668 -12 775 -4 q 411 -19 561 -19 l 356 -19 l 356 269 z "},"깎":{"ha":1332,"x_min":83,"x_max":1304,"o":"m 1129 1088 l 1129 854 l 1304 854 l 1304 510 q 1219 519 1256 510 q 1156 565 1183 529 q 1129 676 1129 601 l 1129 331 l 836 331 l 836 1088 l 1129 1088 m 83 574 q 112 572 92 574 q 169 571 132 571 q 478 642 338 571 q 636 917 618 713 q 568 857 594 872 q 497 839 542 842 l 497 1078 l 765 1078 q 778 885 778 972 q 627 432 778 556 q 268 308 476 308 q 83 326 171 308 l 83 574 m 146 793 q 200 789 175 789 q 281 815 251 789 q 331 917 311 842 q 263 857 290 872 q 193 839 236 842 l 193 1078 l 461 1078 q 472 924 472 985 q 425 701 472 772 q 313 615 378 631 q 146 599 249 599 l 146 793 m 242 269 l 676 269 l 676 -175 l 385 -175 l 385 8 q 342 -16 365 -12 q 242 -19 318 -19 l 242 269 m 693 269 l 1129 269 l 1129 -175 l 836 -175 l 836 8 q 793 -16 817 -12 q 693 -19 769 -19 l 693 269 z "},"깐":{"ha":1332,"x_min":83,"x_max":1304,"o":"m 317 269 l 610 269 q 606 183 610 218 q 583 114 601 149 l 1165 114 l 1165 -175 l 317 -175 l 317 269 m 83 574 q 112 572 92 574 q 169 571 132 571 q 478 642 338 571 q 636 917 618 713 q 568 857 594 872 q 497 839 542 842 l 497 1078 l 765 1078 q 778 885 778 972 q 627 432 778 556 q 268 308 476 308 q 83 326 171 308 l 83 574 m 146 793 q 200 789 175 789 q 281 815 251 789 q 331 917 311 842 q 263 857 290 872 q 193 839 236 842 l 193 1078 l 461 1078 q 472 924 472 985 q 425 701 472 772 q 313 615 378 631 q 146 599 249 599 l 146 793 m 836 1088 l 1129 1088 l 1129 854 l 1304 854 l 1304 510 q 1219 519 1256 510 q 1156 565 1183 529 q 1129 676 1129 601 l 1129 190 l 836 190 l 836 1088 z "},"깔":{"ha":1332,"x_min":83,"x_max":1304,"o":"m 367 125 l 836 125 l 836 149 l 367 149 l 367 358 l 1129 358 l 1129 58 l 660 58 l 660 35 l 1203 35 l 1203 -175 l 367 -175 l 367 125 m 83 631 q 112 629 92 631 q 169 628 132 628 q 478 690 338 628 q 636 935 618 753 q 567 881 594 894 q 497 867 540 868 l 497 1078 l 765 1078 q 778 907 778 985 q 627 505 778 615 q 267 394 476 394 q 83 411 181 394 l 83 631 m 146 825 q 200 822 185 822 q 281 846 250 822 q 331 935 311 869 q 263 883 290 896 q 193 867 236 869 l 193 1078 l 461 1078 q 472 940 472 996 q 425 743 472 806 q 313 667 378 681 q 146 653 249 653 l 146 825 m 836 1088 l 1129 1088 l 1129 854 l 1304 854 l 1304 510 q 1219 519 1256 510 q 1156 565 1183 529 q 1129 676 1129 601 l 1129 400 l 836 400 l 836 1088 z "},"깖":{"ha":1332,"x_min":83,"x_max":1304,"o":"m 1129 -175 l 836 -175 l 836 -108 q 797 -164 835 -153 q 703 -175 760 -175 l 703 358 l 1129 358 l 1129 -175 m 83 625 q 112 624 92 625 q 168 622 132 622 q 477 685 336 622 q 636 933 618 749 q 568 880 594 893 q 497 864 542 867 l 497 1078 l 765 1078 q 778 906 778 985 q 627 499 778 611 q 268 388 476 388 q 83 404 181 388 l 83 625 m 146 822 q 199 819 185 819 q 281 843 250 819 q 331 933 311 867 q 263 880 290 893 q 193 864 236 867 l 193 1078 l 461 1078 q 472 939 472 993 q 425 740 472 803 q 313 663 378 676 q 146 649 249 649 l 146 822 m 268 125 l 385 125 l 385 149 l 268 149 l 268 358 l 676 358 l 676 58 l 558 58 l 558 35 l 676 35 l 676 -175 l 268 -175 l 268 125 m 836 31 l 836 199 l 783 199 l 783 31 l 836 31 m 836 1088 l 1129 1088 l 1129 854 l 1304 854 l 1304 510 q 1219 519 1256 510 q 1156 565 1183 529 q 1129 676 1129 601 l 1129 396 l 836 396 l 836 1088 z "},"깜":{"ha":1332,"x_min":83,"x_max":1304,"o":"m 1129 -175 l 836 -175 l 836 -106 q 660 -163 835 -151 q 328 -175 486 -175 l 328 289 l 1129 289 l 1129 -175 m 83 574 q 112 572 92 574 q 169 571 132 571 q 478 642 338 571 q 636 917 618 713 q 568 857 594 872 q 497 839 542 842 l 497 1078 l 765 1078 q 778 885 778 972 q 627 432 778 556 q 268 308 476 308 q 83 326 171 308 l 83 574 m 146 793 q 200 789 175 789 q 281 815 251 789 q 331 917 311 842 q 263 857 290 872 q 193 839 236 842 l 193 1078 l 461 1078 q 472 924 472 985 q 425 701 472 772 q 313 615 378 631 q 146 599 249 599 l 146 793 m 836 31 l 836 115 l 696 115 l 696 31 l 836 31 m 836 1088 l 1129 1088 l 1129 854 l 1304 854 l 1304 510 q 1219 519 1256 510 q 1156 565 1183 529 q 1129 676 1129 601 l 1129 331 l 836 331 l 836 1088 z "},"깝":{"ha":1332,"x_min":83,"x_max":1304,"o":"m 1129 289 l 1129 -175 l 836 -175 l 836 -106 q 665 -163 835 -151 q 339 -175 494 -175 l 339 289 l 708 289 l 708 219 l 836 219 l 836 289 l 1129 289 m 83 574 q 112 572 92 574 q 169 571 132 571 q 478 642 338 571 q 636 917 618 713 q 568 857 594 872 q 497 839 542 842 l 497 1078 l 765 1078 q 778 885 778 972 q 627 432 778 556 q 268 308 476 308 q 83 326 171 308 l 83 574 m 146 793 q 200 789 175 789 q 281 815 251 789 q 331 917 311 842 q 263 857 290 872 q 193 839 236 842 l 193 1078 l 461 1078 q 472 924 472 985 q 425 701 472 772 q 313 615 378 631 q 146 599 249 599 l 146 793 m 836 31 l 836 101 l 708 101 l 708 31 l 836 31 m 836 1088 l 1129 1088 l 1129 854 l 1304 854 l 1304 510 q 1219 519 1256 510 q 1156 565 1183 529 q 1129 676 1129 601 l 1129 331 l 836 331 l 836 1088 z "},"깟":{"ha":1332,"x_min":83,"x_max":1304,"o":"m 278 183 q 417 168 347 168 q 626 207 532 168 q 778 303 719 246 l 931 303 q 935 239 938 271 l 1125 239 l 1125 -40 q 1086 -147 1125 -104 q 989 -189 1047 -189 q 893 -147 932 -189 q 854 -40 854 -104 l 854 51 q 634 -118 771 -51 q 367 -185 497 -185 q 278 -175 317 -185 l 278 183 m 83 574 q 112 572 92 574 q 169 571 132 571 q 478 642 338 571 q 636 917 618 713 q 568 857 594 872 q 497 839 542 842 l 497 1078 l 765 1078 q 778 885 778 972 q 627 432 778 556 q 268 308 476 308 q 83 326 171 308 l 83 574 m 146 793 q 200 789 175 789 q 281 815 251 789 q 331 917 311 842 q 263 857 290 872 q 193 839 236 842 l 193 1078 l 461 1078 q 472 924 472 985 q 425 701 472 772 q 313 615 378 631 q 146 599 249 599 l 146 793 m 836 1088 l 1129 1088 l 1129 854 l 1304 854 l 1304 510 q 1219 519 1256 510 q 1156 565 1183 529 q 1129 676 1129 601 l 1129 350 l 836 350 l 836 1088 z "},"깠":{"ha":1332,"x_min":83,"x_max":1304,"o":"m 692 183 q 765 168 732 168 q 853 207 822 168 q 890 303 885 246 l 1043 303 q 1063 185 1063 242 q 1058 132 1063 160 l 1169 132 l 1169 -76 q 1140 -157 1169 -125 q 1067 -189 1111 -189 q 995 -157 1024 -189 q 967 -76 967 -125 l 967 -71 q 865 -154 921 -124 q 751 -185 808 -185 q 692 -175 719 -185 l 692 183 m 83 574 q 112 572 92 574 q 169 571 132 571 q 478 642 338 571 q 636 917 618 713 q 568 857 594 872 q 497 839 542 842 l 497 1078 l 765 1078 q 778 885 778 972 q 627 432 778 556 q 268 308 476 308 q 83 326 171 308 l 83 574 m 146 793 q 200 789 175 789 q 281 815 251 789 q 331 917 311 842 q 263 857 290 872 q 193 839 236 842 l 193 1078 l 461 1078 q 472 924 472 985 q 425 701 472 772 q 313 615 378 631 q 146 599 249 599 l 146 793 m 203 183 q 276 168 243 168 q 364 207 333 168 q 400 303 394 246 l 554 303 q 574 189 574 249 q 569 132 574 160 l 668 132 l 668 -76 q 639 -157 668 -125 q 565 -189 610 -189 q 497 -160 525 -189 q 465 -85 468 -131 q 368 -158 421 -132 q 263 -185 315 -185 q 203 -175 231 -185 l 203 183 m 836 1088 l 1129 1088 l 1129 854 l 1304 854 l 1304 510 q 1219 519 1256 510 q 1156 565 1183 529 q 1129 676 1129 601 l 1129 331 l 836 331 l 836 1088 z "},"깡":{"ha":1332,"x_min":83,"x_max":1304,"o":"m 708 -204 q 379 -133 482 -204 q 276 54 276 -62 q 379 242 276 171 q 708 313 482 313 q 1038 242 935 313 q 1140 54 1140 171 q 1038 -133 1140 -62 q 708 -204 935 -204 m 83 574 q 112 572 92 574 q 169 571 132 571 q 478 642 338 571 q 636 917 618 713 q 568 857 594 872 q 497 839 542 842 l 497 1078 l 765 1078 q 778 885 778 972 q 627 432 778 556 q 268 308 476 308 q 83 326 171 308 l 83 574 m 146 793 q 200 789 175 789 q 281 815 251 789 q 331 917 311 842 q 263 857 290 872 q 193 839 236 842 l 193 1078 l 461 1078 q 472 924 472 985 q 425 701 472 772 q 313 615 378 631 q 146 599 249 599 l 146 793 m 643 54 q 708 -18 643 -18 q 774 54 774 -18 q 708 126 774 126 q 643 54 643 126 m 836 1088 l 1129 1088 l 1129 854 l 1304 854 l 1304 510 q 1219 519 1256 510 q 1156 565 1183 529 q 1129 676 1129 601 l 1129 331 l 836 331 l 836 1088 z "},"깥":{"ha":1332,"x_min":83,"x_max":1304,"o":"m 406 317 l 1129 317 l 1129 208 l 697 208 l 697 174 l 1129 174 l 1129 107 l 697 107 l 697 72 l 1165 72 l 1165 -175 l 406 -175 l 406 317 m 83 601 q 113 600 92 601 q 171 599 133 599 q 478 665 339 599 q 636 925 618 732 q 567 869 594 883 q 497 851 540 854 l 497 1078 l 765 1078 q 778 896 778 978 q 627 467 778 585 q 268 350 476 350 q 83 368 188 350 l 83 601 m 146 808 q 200 806 185 806 q 281 831 250 806 q 331 925 311 856 q 263 869 290 883 q 193 851 236 854 l 193 1078 l 461 1078 q 472 932 472 989 q 425 722 472 789 q 313 640 378 654 q 146 625 249 625 l 146 808 m 836 1088 l 1129 1088 l 1129 854 l 1304 854 l 1304 510 q 1219 519 1256 510 q 1156 565 1183 529 q 1129 676 1129 601 l 1129 400 l 836 400 l 836 1088 z "},"깨":{"ha":1235,"x_min":83,"x_max":1151,"o":"m 1151 1088 l 1151 -175 l 922 -175 l 922 371 l 889 371 l 889 -64 l 660 -64 l 660 1032 l 889 1032 l 889 799 l 922 799 l 922 1088 l 1151 1088 m 83 333 q 228 358 139 333 q 402 463 317 382 q 500 700 488 544 q 459 657 481 668 q 403 649 438 646 l 403 1031 l 615 1031 q 626 788 626 890 q 558 302 626 481 q 391 55 489 124 q 192 -14 293 -14 q 83 8 128 -14 l 83 333 m 121 647 q 167 642 154 642 q 231 677 207 642 q 271 811 256 713 q 213 730 239 751 q 149 704 186 708 l 149 1031 l 374 1031 q 382 847 382 931 q 306 473 382 575 q 121 378 229 371 l 121 647 z "},"깩":{"ha":1235,"x_min":83,"x_max":1151,"o":"m 1151 1088 l 1151 325 l 922 325 l 922 496 l 889 496 l 889 325 l 660 325 l 660 1060 l 889 1060 l 889 882 l 922 882 l 922 1088 l 1151 1088 m 83 528 q 227 546 138 528 q 402 625 317 564 q 500 801 488 686 q 459 769 481 778 q 403 763 438 761 l 403 1047 l 615 1047 q 626 867 626 943 q 558 506 626 639 q 391 322 489 372 q 190 271 293 271 q 83 286 129 271 l 83 528 m 121 763 q 168 758 146 758 q 232 785 208 758 q 271 883 256 811 q 213 824 239 840 q 149 804 186 807 l 149 1047 l 374 1047 q 382 911 382 972 q 306 632 382 708 q 121 561 229 556 l 121 763 m 378 269 l 1151 269 l 1151 -175 l 860 -175 l 860 22 q 691 -12 799 -4 q 433 -19 583 -19 l 378 -19 l 378 269 z "},"깬":{"ha":1274,"x_min":83,"x_max":1190,"o":"m 342 269 l 633 269 q 629 183 633 218 q 608 114 625 149 l 1190 114 l 1190 -175 l 342 -175 l 342 269 m 83 528 q 228 546 139 528 q 403 625 318 564 q 500 801 488 686 q 460 769 481 778 q 404 763 439 761 l 404 1047 l 615 1047 q 626 867 626 943 q 558 506 626 639 q 391 322 489 372 q 190 271 293 271 q 83 286 129 271 l 83 528 m 121 763 q 168 758 146 758 q 233 785 208 758 q 272 883 257 811 q 213 824 240 840 q 149 804 186 807 l 149 1047 l 375 1047 q 383 914 383 975 q 306 633 383 710 q 121 561 229 556 l 121 763 m 660 1060 l 889 1060 l 889 882 l 922 882 l 922 1088 l 1153 1088 l 1153 200 l 922 200 l 922 496 l 889 496 l 889 200 l 660 200 l 660 1060 z "},"깯":{"ha":1246,"x_min":83,"x_max":1163,"o":"m 390 349 l 1150 349 l 1150 161 l 682 161 l 682 107 l 1163 139 l 1163 -178 l 390 -178 l 390 349 m 83 569 q 227 586 138 569 q 402 659 317 603 q 500 822 488 715 q 460 794 481 801 q 403 786 439 786 l 403 1050 l 615 1050 q 625 883 625 967 q 556 549 625 672 q 389 379 488 426 q 189 332 290 332 q 83 346 125 332 l 83 569 m 119 786 q 167 782 144 782 q 231 806 207 782 q 269 899 254 831 q 213 843 239 858 q 149 825 186 828 l 149 1050 l 372 1050 q 381 922 381 979 q 304 666 381 736 q 119 600 228 596 l 119 786 m 658 1061 l 889 1061 l 889 897 l 922 897 l 922 1088 l 1151 1088 l 1151 382 l 922 382 l 922 540 l 889 540 l 889 382 l 658 382 l 658 1061 z "},"깰":{"ha":1313,"x_min":83,"x_max":1229,"o":"m 393 125 l 861 125 l 861 149 l 393 149 l 393 358 l 1153 358 l 1153 58 l 685 58 l 685 35 l 1229 35 l 1229 -175 l 393 -175 l 393 125 m 83 575 q 228 592 139 575 q 403 664 318 608 q 501 825 489 719 q 462 796 483 804 q 406 789 440 788 l 406 1050 l 617 1050 q 628 883 628 954 q 559 553 628 675 q 392 385 490 432 q 192 339 294 339 q 83 354 129 339 l 83 575 m 122 789 q 168 785 147 785 q 233 809 208 785 q 272 900 257 833 q 215 846 242 861 q 151 828 188 831 l 151 1050 l 375 1050 q 383 926 383 982 q 306 670 383 740 q 122 606 229 600 l 122 789 m 661 1061 l 889 1061 l 889 910 l 925 910 l 925 1088 l 1153 1088 l 1153 389 l 925 389 l 925 524 l 889 524 l 889 389 l 661 389 l 661 1061 z "},"깸":{"ha":1235,"x_min":83,"x_max":1151,"o":"m 1151 -175 l 860 -175 l 860 -106 q 685 -163 860 -151 q 350 -175 510 -175 l 350 289 l 1151 289 l 1151 -175 m 83 528 q 227 546 138 528 q 402 625 317 564 q 500 801 488 686 q 459 769 481 778 q 403 763 438 761 l 403 1047 l 615 1047 q 626 867 626 943 q 558 506 626 639 q 391 322 489 372 q 190 271 293 271 q 83 286 129 271 l 83 528 m 121 763 q 168 758 146 758 q 232 785 208 758 q 271 883 256 811 q 213 824 239 840 q 149 804 186 807 l 149 1047 l 374 1047 q 382 911 382 972 q 306 632 382 708 q 121 561 229 556 l 121 763 m 660 1060 l 889 1060 l 889 882 l 922 882 l 922 1088 l 1151 1088 l 1151 325 l 922 325 l 922 496 l 889 496 l 889 325 l 660 325 l 660 1060 m 860 31 l 860 115 l 719 115 l 719 31 l 860 31 z "},"깹":{"ha":1235,"x_min":83,"x_max":1151,"o":"m 1151 289 l 1151 -175 l 860 -175 l 860 -106 q 690 -163 860 -151 q 364 -175 519 -175 l 364 289 l 732 289 l 732 219 l 860 219 l 860 289 l 1151 289 m 83 528 q 227 546 138 528 q 402 625 317 564 q 500 801 488 686 q 459 769 481 778 q 403 763 438 761 l 403 1047 l 615 1047 q 626 867 626 943 q 558 506 626 639 q 391 322 489 372 q 190 271 293 271 q 83 286 129 271 l 83 528 m 121 763 q 168 758 146 758 q 232 785 208 758 q 271 883 256 811 q 213 824 239 840 q 149 804 186 807 l 149 1047 l 374 1047 q 382 911 382 972 q 306 632 382 708 q 121 561 229 556 l 121 763 m 660 1060 l 889 1060 l 889 882 l 922 882 l 922 1088 l 1151 1088 l 1151 325 l 922 325 l 922 496 l 889 496 l 889 325 l 660 325 l 660 1060 m 860 31 l 860 101 l 732 101 l 732 31 l 860 31 z "},"깻":{"ha":1235,"x_min":83,"x_max":1151,"o":"m 303 183 q 440 168 372 168 q 649 207 556 168 q 801 303 743 246 l 954 303 q 957 239 958 268 l 1149 239 l 1149 -40 q 1109 -147 1149 -104 q 1011 -189 1069 -189 q 916 -147 956 -189 q 876 -40 876 -104 l 876 51 q 658 -118 794 -51 q 390 -185 521 -185 q 303 -175 342 -185 l 303 183 m 83 528 q 227 546 138 528 q 402 625 317 564 q 500 801 488 686 q 459 769 481 778 q 403 763 438 761 l 403 1047 l 615 1047 q 626 867 626 943 q 558 506 626 639 q 391 322 489 372 q 190 271 293 271 q 83 286 129 271 l 83 528 m 121 763 q 168 758 146 758 q 232 785 208 758 q 271 883 256 811 q 213 824 239 840 q 149 804 186 807 l 149 1047 l 374 1047 q 382 911 382 972 q 306 632 382 708 q 121 561 229 556 l 121 763 m 660 1060 l 889 1060 l 889 882 l 922 882 l 922 1088 l 1151 1088 l 1151 342 l 922 342 l 922 496 l 889 496 l 889 342 l 660 342 l 660 1060 z "},"깼":{"ha":1278,"x_min":83,"x_max":1194,"o":"m 717 183 q 790 168 756 168 q 878 207 847 168 q 915 303 908 246 l 1067 303 q 1088 185 1088 243 q 1083 132 1088 157 l 1194 132 l 1194 -76 q 1165 -157 1194 -125 q 1092 -189 1136 -189 q 1020 -157 1049 -189 q 992 -76 992 -125 l 992 -71 q 888 -154 944 -124 q 775 -185 832 -185 q 717 -175 744 -185 l 717 183 m 83 528 q 228 546 139 528 q 403 625 318 564 q 501 801 489 686 q 461 769 482 778 q 406 763 440 761 l 406 1047 l 617 1047 q 626 867 626 956 q 558 506 626 639 q 391 322 489 372 q 190 271 293 271 q 83 286 129 271 l 83 528 m 121 763 q 168 758 146 758 q 233 785 208 758 q 272 883 257 811 q 214 824 240 840 q 150 804 188 807 l 150 1047 l 374 1047 q 382 910 382 971 q 306 631 382 707 q 121 561 229 556 l 121 763 m 228 183 q 301 168 268 168 q 389 207 358 168 q 425 303 419 246 l 579 303 q 599 192 599 250 q 593 132 599 158 l 693 132 l 693 -76 q 664 -157 693 -125 q 590 -189 635 -189 q 522 -160 550 -189 q 490 -85 493 -131 q 393 -158 446 -132 q 288 -185 340 -185 q 228 -175 256 -185 l 228 183 m 661 1060 l 889 1060 l 889 882 l 924 882 l 924 1088 l 1154 1088 l 1154 325 l 924 325 l 924 496 l 889 496 l 889 325 l 661 325 l 661 1060 z "},"깽":{"ha":1246,"x_min":83,"x_max":1163,"o":"m 732 -204 q 401 -133 504 -204 q 299 54 299 -62 q 401 242 299 171 q 732 313 504 313 q 1060 242 957 313 q 1163 54 1163 171 q 1060 -133 1163 -62 q 732 -204 957 -204 m 83 528 q 227 546 138 528 q 402 625 317 564 q 500 801 488 686 q 459 769 481 778 q 403 763 438 761 l 403 1047 l 615 1047 q 625 867 625 956 q 556 506 625 639 q 390 322 488 372 q 190 271 292 271 q 83 286 129 271 l 83 528 m 119 763 q 167 758 144 758 q 231 785 207 758 q 269 883 254 811 q 213 824 239 840 q 149 804 186 807 l 149 1047 l 372 1047 q 381 910 381 971 q 304 631 381 707 q 119 561 228 556 l 119 763 m 658 1060 l 889 1060 l 889 882 l 922 882 l 922 1088 l 1151 1088 l 1151 325 l 922 325 l 922 496 l 889 496 l 889 325 l 658 325 l 658 1060 m 667 54 q 732 -18 667 -18 q 796 54 796 -18 q 732 126 796 126 q 667 54 667 126 z "},"꺄":{"ha":1257,"x_min":83,"x_max":1229,"o":"m 1128 1088 l 1128 854 l 1229 854 l 1229 565 l 1128 565 l 1128 493 l 1229 493 l 1229 204 l 1128 204 l 1128 -175 l 838 -175 l 838 1088 l 1128 1088 m 83 333 q 117 331 92 333 q 171 329 143 329 q 478 428 339 329 q 635 811 617 526 q 567 729 594 750 q 497 704 540 708 l 497 1036 l 765 1036 q 778 796 778 906 q 689 306 778 486 q 474 57 600 126 q 217 -12 347 -12 q 83 8 135 -12 l 83 333 m 147 639 q 199 635 175 635 q 280 672 249 635 q 331 811 311 708 q 263 728 289 749 q 193 704 236 708 l 193 1036 l 460 1036 q 471 832 471 914 q 424 533 471 632 q 313 408 376 435 q 147 369 250 382 l 147 639 z "},"꺅":{"ha":1257,"x_min":83,"x_max":1229,"o":"m 1128 -175 l 838 -175 l 838 22 q 667 -12 775 -4 q 410 -19 560 -19 l 354 -19 l 354 269 l 1128 269 l 1128 -175 m 83 574 q 113 572 92 574 q 171 571 133 571 q 478 642 339 571 q 635 917 617 713 q 567 857 594 872 q 497 839 540 842 l 497 1078 l 765 1078 q 778 885 778 972 q 627 432 778 556 q 267 308 476 308 q 83 326 171 308 l 83 574 m 147 793 q 200 789 176 789 q 281 816 250 789 q 331 917 311 843 q 263 857 289 872 q 193 839 236 842 l 193 1078 l 460 1078 q 471 922 471 985 q 424 700 471 771 q 313 614 376 629 q 147 599 249 599 l 147 793 m 838 1088 l 1128 1088 l 1128 1035 l 1229 1035 l 1229 746 l 1128 746 l 1128 674 l 1229 674 l 1229 385 l 1128 385 l 1128 331 l 838 331 l 838 1088 z "},"꺆":{"ha":1257,"x_min":83,"x_max":1229,"o":"m 1128 -175 l 838 -175 l 838 8 q 794 -16 818 -12 q 693 -19 769 -19 l 693 269 l 1128 269 l 1128 -175 m 83 574 q 113 572 92 574 q 171 571 133 571 q 478 642 339 571 q 635 917 617 713 q 567 857 594 872 q 497 839 540 842 l 497 1078 l 765 1078 q 778 885 778 972 q 627 432 778 556 q 267 308 476 308 q 83 326 171 308 l 83 574 m 147 793 q 200 789 176 789 q 281 816 250 789 q 331 917 311 843 q 263 857 289 872 q 193 839 236 842 l 193 1078 l 460 1078 q 471 922 471 985 q 424 700 471 771 q 313 614 376 629 q 147 599 249 599 l 147 793 m 242 269 l 678 269 l 678 -175 l 385 -175 l 385 8 q 342 -16 365 -12 q 242 -19 318 -19 l 242 269 m 838 1088 l 1128 1088 l 1128 1035 l 1229 1035 l 1229 746 l 1128 746 l 1128 674 l 1229 674 l 1229 385 l 1128 385 l 1128 331 l 838 331 l 838 1088 z "},"꺌":{"ha":1257,"x_min":83,"x_max":1229,"o":"m 368 125 l 838 125 l 838 149 l 368 149 l 368 358 l 1128 358 l 1128 58 l 660 58 l 660 35 l 1204 35 l 1204 -175 l 368 -175 l 368 125 m 83 626 q 113 625 92 626 q 171 624 133 624 q 478 687 339 624 q 635 933 617 750 q 567 881 594 894 q 497 864 540 867 l 497 1078 l 765 1078 q 778 906 778 985 q 627 500 778 611 q 267 389 476 389 q 83 406 181 389 l 83 626 m 147 824 q 203 819 176 819 q 281 844 251 819 q 331 933 311 868 q 263 881 289 894 q 193 864 236 867 l 193 1078 l 460 1078 q 471 939 471 993 q 424 740 471 803 q 313 663 376 676 q 147 649 249 649 l 147 824 m 838 1088 l 1128 1088 l 1128 1035 l 1229 1035 l 1229 779 l 1128 779 l 1128 715 l 1229 715 l 1229 460 l 1128 460 l 1128 400 l 838 400 l 838 1088 z "},"꺍":{"ha":1257,"x_min":83,"x_max":1229,"o":"m 1128 -175 l 838 -175 l 838 111 q 786 76 818 82 q 704 69 754 69 l 704 358 l 1128 358 l 1128 -175 m 83 635 q 113 633 92 635 q 172 632 133 632 q 478 694 340 632 q 635 938 617 757 q 567 885 594 899 q 497 868 540 871 l 497 1079 l 765 1079 q 778 910 778 986 q 626 509 778 618 q 265 400 475 400 q 83 415 169 400 l 83 635 m 147 828 q 200 825 186 825 q 281 849 250 825 q 331 938 311 872 q 263 885 289 899 q 193 868 236 871 l 193 1079 l 460 1079 q 471 942 471 997 q 424 746 471 808 q 313 669 376 683 q 147 656 249 656 l 147 828 m 267 125 l 385 125 l 385 149 l 267 149 l 267 358 l 678 358 l 678 58 l 560 58 l 560 35 l 751 35 l 751 -175 l 267 -175 l 267 125 m 838 1088 l 1128 1088 l 1128 1035 l 1229 1035 l 1229 790 l 1128 790 l 1128 731 l 1229 731 l 1229 486 l 1128 486 l 1128 419 l 838 419 l 838 1088 z "},"꺠":{"ha":1235,"x_min":83,"x_max":1151,"o":"m 1151 1088 l 1151 -175 l 922 -175 l 922 169 l 889 169 l 889 -64 l 660 -64 l 660 1032 l 889 1032 l 889 875 l 922 875 l 922 1088 l 1151 1088 m 83 333 q 228 358 139 333 q 402 463 317 382 q 500 700 488 544 q 459 657 481 668 q 403 649 438 646 l 403 1031 l 615 1031 q 626 788 626 890 q 558 302 626 481 q 391 55 489 124 q 192 -14 293 -14 q 83 8 128 -14 l 83 333 m 121 647 q 167 642 154 642 q 231 677 207 642 q 271 811 256 713 q 213 730 239 751 q 149 704 186 708 l 149 1031 l 374 1031 q 382 847 382 931 q 306 473 382 575 q 121 378 229 371 l 121 647 m 922 458 l 922 586 l 889 586 l 889 458 l 922 458 z "},"꺤":{"ha":1274,"x_min":83,"x_max":1190,"o":"m 342 269 l 633 269 q 629 183 633 218 q 608 114 625 149 l 1190 114 l 1190 -175 l 342 -175 l 342 269 m 83 528 q 228 546 139 528 q 403 625 318 564 q 500 801 488 686 q 460 769 481 778 q 404 763 439 761 l 404 1047 l 615 1047 q 626 867 626 943 q 558 506 626 639 q 391 322 489 372 q 190 271 293 271 q 83 286 129 271 l 83 528 m 121 763 q 168 758 146 758 q 233 785 208 758 q 272 883 257 811 q 213 824 240 840 q 149 804 186 807 l 149 1047 l 375 1047 q 383 914 383 975 q 306 633 383 710 q 121 561 229 556 l 121 763 m 660 1060 l 889 1060 l 889 972 l 922 972 l 922 1088 l 1153 1088 l 1153 200 l 922 200 l 922 406 l 889 406 l 889 200 l 660 200 l 660 1060 m 922 639 l 922 739 l 889 739 l 889 639 l 922 639 z "},"꺼":{"ha":1213,"x_min":83,"x_max":1129,"o":"m 1129 1088 l 1129 -175 l 836 -175 l 836 315 l 693 315 q 484 63 615 138 q 217 -12 353 -12 q 83 8 135 -12 l 83 333 q 117 331 92 333 q 171 329 143 329 q 478 428 339 329 q 636 811 618 526 q 568 728 594 749 q 497 704 542 708 l 497 1036 l 765 1036 q 778 792 778 903 q 774 674 778 731 l 836 674 l 836 1088 l 1129 1088 m 146 639 q 199 635 175 635 q 281 672 250 635 q 331 811 311 708 q 263 729 290 750 q 193 704 236 708 l 193 1036 l 461 1036 q 472 832 472 914 q 425 533 472 632 q 314 408 378 435 q 146 369 250 382 l 146 639 z "},"꺽":{"ha":1213,"x_min":83,"x_max":1129,"o":"m 1129 -175 l 836 -175 l 836 22 q 669 -12 776 -4 q 411 -19 561 -19 l 356 -19 l 356 269 l 1129 269 l 1129 -175 m 83 574 q 112 572 92 574 q 169 571 132 571 q 478 642 338 571 q 636 917 618 713 q 568 857 594 872 q 497 839 542 842 l 497 1078 l 765 1078 q 776 958 774 990 l 836 958 l 836 1088 l 1129 1088 l 1129 331 l 836 331 l 836 586 l 728 586 q 540 369 664 431 q 267 308 415 308 q 83 326 188 308 l 83 574 m 146 793 q 200 789 175 789 q 281 815 251 789 q 331 917 311 842 q 263 857 290 872 q 193 839 236 842 l 193 1078 l 461 1078 q 472 924 472 985 q 425 701 472 772 q 313 615 378 631 q 146 599 249 599 l 146 793 z "},"꺾":{"ha":1213,"x_min":83,"x_max":1129,"o":"m 1129 -175 l 836 -175 l 836 8 q 793 -16 817 -12 q 693 -19 769 -19 l 693 269 l 1129 269 l 1129 -175 m 83 574 q 112 572 92 574 q 169 571 132 571 q 478 642 338 571 q 636 917 618 713 q 568 857 594 872 q 497 839 542 842 l 497 1078 l 765 1078 q 776 958 774 990 l 836 958 l 836 1088 l 1129 1088 l 1129 331 l 836 331 l 836 586 l 728 586 q 540 369 664 431 q 267 308 415 308 q 83 326 188 308 l 83 574 m 146 793 q 200 789 175 789 q 281 815 251 789 q 331 917 311 842 q 263 857 290 872 q 193 839 236 842 l 193 1078 l 461 1078 q 472 924 472 985 q 425 701 472 772 q 313 615 378 631 q 146 599 249 599 l 146 793 m 242 269 l 678 269 l 678 -175 l 385 -175 l 385 8 q 342 -16 365 -12 q 242 -19 318 -19 l 242 269 z "},"껀":{"ha":1246,"x_min":83,"x_max":1163,"o":"m 315 269 l 607 269 q 603 183 607 218 q 583 114 599 149 l 1163 114 l 1163 -175 l 315 -175 l 315 269 m 83 574 q 112 572 92 574 q 169 571 132 571 q 476 642 336 571 q 633 917 615 713 q 565 857 592 872 q 494 839 539 842 l 494 1078 l 763 1078 q 776 917 772 1000 l 835 917 l 835 1088 l 1126 1088 l 1126 190 l 835 190 l 835 544 l 707 544 q 522 360 639 413 q 267 308 404 308 q 83 326 188 308 l 83 574 m 144 793 q 199 789 174 789 q 278 815 249 789 q 328 917 308 842 q 261 857 288 872 q 190 839 235 842 l 190 1078 l 458 1078 q 469 922 469 985 q 422 700 469 771 q 311 614 375 629 q 144 599 247 599 l 144 793 z "},"껄":{"ha":1285,"x_min":83,"x_max":1201,"o":"m 365 125 l 835 125 l 835 149 l 365 149 l 365 358 l 1126 358 l 1126 58 l 658 58 l 658 35 l 1201 35 l 1201 -175 l 365 -175 l 365 125 m 83 626 q 112 625 92 626 q 169 624 132 624 q 476 687 338 624 q 635 933 615 750 q 567 881 593 894 q 497 864 540 867 l 497 1078 l 763 1078 q 775 958 772 1028 l 835 958 l 835 1088 l 1126 1088 l 1126 400 l 835 400 l 835 586 l 700 586 q 515 433 631 476 q 267 389 399 389 q 83 406 181 389 l 83 626 m 146 824 q 201 819 178 819 q 281 844 251 819 q 331 933 311 868 q 263 881 289 894 q 192 864 236 867 l 192 1078 l 458 1078 q 469 938 469 1007 q 422 740 469 803 q 311 663 375 676 q 146 649 247 649 l 146 824 z "},"껌":{"ha":1213,"x_min":83,"x_max":1129,"o":"m 1129 -175 l 836 -175 l 836 -106 q 661 -163 835 -151 q 328 -175 488 -175 l 328 289 l 1129 289 l 1129 -175 m 83 574 q 112 572 92 574 q 169 571 132 571 q 478 642 338 571 q 636 917 618 713 q 568 857 594 872 q 497 839 542 842 l 497 1078 l 765 1078 q 776 958 774 990 l 836 958 l 836 1088 l 1129 1088 l 1129 331 l 836 331 l 836 586 l 728 586 q 540 369 664 431 q 267 308 415 308 q 83 326 188 308 l 83 574 m 146 793 q 200 789 175 789 q 281 815 251 789 q 331 917 311 842 q 263 857 290 872 q 193 839 236 842 l 193 1078 l 461 1078 q 472 924 472 985 q 425 701 472 772 q 313 615 378 631 q 146 599 249 599 l 146 793 m 836 31 l 836 115 l 696 115 l 696 31 l 836 31 z "},"껍":{"ha":1213,"x_min":83,"x_max":1129,"o":"m 1129 289 l 1129 -175 l 836 -175 l 836 -106 q 665 -163 835 -151 q 339 -175 494 -175 l 339 289 l 708 289 l 708 219 l 836 219 l 836 289 l 1129 289 m 83 574 q 112 572 92 574 q 169 571 132 571 q 478 642 338 571 q 636 917 618 713 q 568 857 594 872 q 497 839 542 842 l 497 1078 l 765 1078 q 776 958 774 990 l 836 958 l 836 1088 l 1129 1088 l 1129 331 l 836 331 l 836 586 l 728 586 q 540 369 664 431 q 267 308 415 308 q 83 326 188 308 l 83 574 m 146 793 q 200 789 175 789 q 281 815 251 789 q 331 917 311 842 q 263 857 290 872 q 193 839 236 842 l 193 1078 l 461 1078 q 472 924 472 985 q 425 701 472 772 q 313 615 378 631 q 146 599 249 599 l 146 793 m 836 31 l 836 101 l 708 101 l 708 31 l 836 31 z "},"껏":{"ha":1213,"x_min":83,"x_max":1129,"o":"m 278 183 q 417 168 347 168 q 626 207 532 168 q 778 303 719 246 l 931 303 q 935 239 938 271 l 1125 239 l 1125 -40 q 1086 -147 1125 -104 q 989 -189 1047 -189 q 893 -147 932 -189 q 854 -40 854 -104 l 854 51 q 634 -118 771 -51 q 367 -185 497 -185 q 278 -175 317 -185 l 278 183 m 83 574 q 112 572 92 574 q 169 571 132 571 q 478 642 338 571 q 636 917 618 713 q 568 857 594 872 q 497 839 542 842 l 497 1078 l 765 1078 q 776 958 774 990 l 836 958 l 836 1088 l 1129 1088 l 1129 350 l 836 350 l 836 586 l 728 586 q 540 369 664 431 q 267 308 415 308 q 83 326 188 308 l 83 574 m 146 793 q 200 789 175 789 q 281 815 251 789 q 331 917 311 842 q 263 857 290 872 q 193 839 236 842 l 193 1078 l 461 1078 q 472 924 472 985 q 425 701 472 772 q 313 615 378 631 q 146 599 249 599 l 146 793 z "},"껐":{"ha":1253,"x_min":83,"x_max":1169,"o":"m 692 183 q 765 168 731 168 q 853 207 822 168 q 889 303 883 246 l 1043 303 q 1063 185 1063 242 q 1058 132 1063 160 l 1169 132 l 1169 -76 q 1140 -157 1169 -125 q 1068 -189 1111 -189 q 994 -157 1024 -189 q 965 -76 965 -125 l 965 -71 q 865 -154 921 -124 q 751 -185 808 -185 q 692 -175 719 -185 l 692 183 m 83 574 q 112 572 92 574 q 169 571 132 571 q 477 642 338 571 q 635 917 617 713 q 567 857 593 872 q 497 839 540 842 l 497 1078 l 764 1078 q 775 958 769 1040 l 836 958 l 836 1088 l 1128 1088 l 1128 331 l 836 331 l 836 586 l 728 586 q 540 369 664 431 q 267 308 415 308 q 83 326 188 308 l 83 574 m 147 793 q 200 789 176 789 q 281 816 250 789 q 331 917 311 843 q 263 857 289 872 q 192 839 236 842 l 192 1078 l 460 1078 q 471 922 471 985 q 424 700 471 771 q 313 614 376 629 q 147 599 249 599 l 147 793 m 203 183 q 276 168 242 168 q 364 207 333 168 q 401 303 394 246 l 553 303 q 574 185 574 243 q 569 132 574 157 l 667 132 l 667 -76 q 638 -157 667 -125 q 567 -189 610 -189 q 496 -160 525 -189 q 464 -85 467 -131 q 368 -158 421 -132 q 263 -185 315 -185 q 203 -175 231 -185 l 203 183 z "},"껑":{"ha":1224,"x_min":83,"x_max":1140,"o":"m 707 -204 q 378 -133 481 -204 q 275 54 275 -62 q 378 242 275 171 q 707 313 481 313 q 1038 242 935 313 q 1140 54 1140 171 q 1038 -133 1140 -62 q 707 -204 935 -204 m 83 574 q 112 572 92 574 q 169 571 132 571 q 477 642 338 571 q 635 917 617 713 q 567 857 594 872 q 497 839 540 842 l 497 1078 l 765 1078 q 775 958 774 993 l 836 958 l 836 1088 l 1128 1088 l 1128 331 l 836 331 l 836 586 l 728 586 q 539 369 664 431 q 267 308 414 308 q 83 326 188 308 l 83 574 m 146 793 q 200 789 175 789 q 281 816 250 789 q 331 917 311 843 q 263 857 289 872 q 193 839 236 842 l 193 1078 l 460 1078 q 471 924 471 985 q 424 701 471 772 q 312 615 376 631 q 146 599 247 599 l 146 793 m 643 54 q 707 -18 643 -18 q 774 54 774 -18 q 707 126 774 126 q 643 54 643 126 z "},"껓":{"ha":1213,"x_min":83,"x_max":1129,"o":"m 278 135 q 403 122 344 122 q 644 178 533 122 l 406 178 l 406 274 l 931 274 q 935 226 935 251 q 932 188 935 213 l 1125 188 l 1125 -49 q 1086 -149 1125 -110 q 989 -189 1047 -189 q 892 -149 931 -189 q 854 -49 854 -110 l 854 38 q 635 -122 771 -60 q 368 -185 499 -185 q 278 -175 318 -185 l 278 135 m 83 600 q 112 599 92 600 q 168 597 132 597 q 478 663 338 597 q 636 922 618 729 q 567 866 594 881 q 497 849 540 851 l 497 1074 l 765 1074 q 776 958 774 989 l 836 958 l 836 1088 l 1129 1088 l 1129 308 l 836 308 l 836 586 l 717 586 q 529 403 650 454 q 267 351 408 351 q 83 368 181 351 l 83 600 m 146 806 q 199 803 185 803 q 281 828 250 803 q 331 922 311 853 q 263 866 290 881 q 193 849 236 851 l 193 1074 l 461 1074 q 472 928 472 988 q 425 719 472 786 q 313 638 378 653 q 146 624 249 624 l 146 806 m 576 390 l 799 390 l 799 308 l 576 308 l 576 390 z "},"껕":{"ha":1246,"x_min":83,"x_max":1163,"o":"m 403 317 l 1126 317 l 1126 208 l 696 208 l 696 174 l 1126 174 l 1126 107 l 696 107 l 696 72 l 1163 72 l 1163 -175 l 403 -175 l 403 317 m 83 611 q 117 610 92 611 q 169 608 142 608 q 476 674 336 608 q 633 929 615 739 q 565 874 592 888 q 494 857 539 860 l 494 1078 l 763 1078 q 774 958 772 1008 l 835 958 l 835 1088 l 1126 1088 l 1126 400 l 835 400 l 835 586 l 708 586 q 524 413 642 463 q 268 364 406 364 q 83 382 188 364 l 83 611 m 144 814 q 197 811 183 811 q 278 835 247 811 q 328 929 308 860 q 261 874 288 888 q 190 857 235 860 l 190 1078 l 458 1078 q 469 933 469 992 q 422 728 469 793 q 311 648 375 663 q 144 633 247 633 l 144 814 z "},"께":{"ha":1235,"x_min":83,"x_max":1151,"o":"m 1151 1088 l 1151 -175 l 922 -175 l 922 1088 l 1151 1088 m 83 333 q 228 358 139 333 q 402 463 317 382 q 500 700 488 544 q 459 657 481 668 q 403 649 438 646 l 403 1031 l 615 1031 q 625 768 626 871 l 660 768 l 660 1032 l 889 1032 l 889 -64 l 660 -64 l 660 479 l 604 479 q 502 183 571 293 q 353 29 433 72 q 192 -14 272 -14 q 83 8 128 -14 l 83 333 m 121 647 q 167 642 154 642 q 231 677 207 642 q 271 811 256 713 q 213 730 239 751 q 149 704 186 708 l 149 1031 l 374 1031 q 382 847 382 931 q 306 473 382 575 q 121 378 229 371 l 121 647 z "},"껙":{"ha":1235,"x_min":83,"x_max":1151,"o":"m 1151 -175 l 860 -175 l 860 22 q 691 -12 799 -4 q 433 -19 583 -19 l 378 -19 l 378 269 l 1151 269 l 1151 -175 m 83 528 q 227 546 138 528 q 402 625 317 564 q 500 801 488 686 q 459 769 481 778 q 403 763 438 761 l 403 1047 l 615 1047 q 625 875 625 960 l 660 875 l 660 1060 l 889 1060 l 889 325 l 660 325 l 660 586 l 589 586 q 424 342 535 414 q 192 269 313 269 q 83 286 126 269 l 83 528 m 121 763 q 168 758 146 758 q 232 785 208 758 q 271 883 256 811 q 213 824 239 840 q 149 804 186 807 l 149 1047 l 374 1047 q 382 911 382 972 q 306 632 382 708 q 121 561 229 556 l 121 763 m 922 1088 l 1151 1088 l 1151 325 l 922 325 l 922 1088 z "},"껜":{"ha":1274,"x_min":83,"x_max":1190,"o":"m 342 269 l 633 269 q 629 183 633 218 q 608 114 625 149 l 1190 114 l 1190 -175 l 342 -175 l 342 269 m 83 528 q 228 546 139 528 q 403 625 318 564 q 500 801 488 686 q 460 769 481 778 q 404 763 439 761 l 404 1047 l 615 1047 q 626 875 626 964 l 660 875 l 660 1060 l 889 1060 l 889 200 l 660 200 l 660 586 l 589 586 q 424 342 535 414 q 192 269 313 269 q 83 286 126 269 l 83 528 m 121 763 q 168 758 146 758 q 233 785 208 758 q 272 883 257 811 q 213 824 240 840 q 149 804 186 807 l 149 1047 l 375 1047 q 383 914 383 975 q 306 633 383 710 q 121 561 229 556 l 121 763 m 922 1088 l 1153 1088 l 1153 200 l 922 200 l 922 1088 z "},"껨":{"ha":1235,"x_min":83,"x_max":1151,"o":"m 1151 -175 l 860 -175 l 860 -106 q 685 -163 860 -151 q 350 -175 510 -175 l 350 289 l 1151 289 l 1151 -175 m 83 528 q 227 546 138 528 q 402 625 317 564 q 500 801 488 686 q 459 769 481 778 q 403 763 438 761 l 403 1047 l 615 1047 q 625 875 625 960 l 660 875 l 660 1060 l 889 1060 l 889 325 l 660 325 l 660 586 l 589 586 q 424 342 535 414 q 192 269 313 269 q 83 286 126 269 l 83 528 m 121 763 q 168 758 146 758 q 232 785 208 758 q 271 883 256 811 q 213 824 239 840 q 149 804 186 807 l 149 1047 l 374 1047 q 382 911 382 972 q 306 632 382 708 q 121 561 229 556 l 121 763 m 860 31 l 860 115 l 719 115 l 719 31 l 860 31 m 922 1088 l 1151 1088 l 1151 325 l 922 325 l 922 1088 z "},"껫":{"ha":1235,"x_min":83,"x_max":1151,"o":"m 303 183 q 440 168 372 168 q 649 207 556 168 q 801 303 743 246 l 954 303 q 957 239 958 268 l 1149 239 l 1149 -40 q 1109 -147 1149 -104 q 1011 -189 1069 -189 q 916 -147 956 -189 q 876 -40 876 -104 l 876 51 q 658 -118 794 -51 q 390 -185 521 -185 q 303 -175 342 -185 l 303 183 m 83 528 q 227 546 138 528 q 402 625 317 564 q 500 801 488 686 q 459 769 481 778 q 403 763 438 761 l 403 1047 l 615 1047 q 625 875 625 960 l 660 875 l 660 1060 l 889 1060 l 889 342 l 660 342 l 660 586 l 589 586 q 424 342 535 414 q 192 269 313 269 q 83 286 126 269 l 83 528 m 121 763 q 168 758 146 758 q 232 785 208 758 q 271 883 256 811 q 213 824 239 840 q 149 804 186 807 l 149 1047 l 374 1047 q 382 911 382 972 q 306 632 382 708 q 121 561 229 556 l 121 763 m 922 1088 l 1151 1088 l 1151 342 l 922 342 l 922 1088 z "},"껭":{"ha":1246,"x_min":83,"x_max":1163,"o":"m 732 -204 q 401 -133 504 -204 q 299 54 299 -62 q 401 242 299 171 q 732 313 504 313 q 1060 242 957 313 q 1163 54 1163 171 q 1060 -133 1163 -62 q 732 -204 957 -204 m 83 528 q 227 546 138 528 q 402 625 317 564 q 500 801 488 686 q 459 769 481 778 q 403 763 438 761 l 403 1047 l 615 1047 q 625 875 625 938 l 658 875 l 658 1060 l 889 1060 l 889 325 l 658 325 l 658 586 l 589 586 q 423 342 535 414 q 190 269 311 269 q 83 286 126 269 l 83 528 m 119 763 q 167 758 144 758 q 231 785 207 758 q 269 883 254 811 q 213 824 239 840 q 149 804 186 807 l 149 1047 l 372 1047 q 381 910 381 971 q 304 631 381 707 q 119 561 228 556 l 119 763 m 667 54 q 732 -18 667 -18 q 796 54 796 -18 q 732 126 796 126 q 667 54 667 126 m 922 1088 l 1151 1088 l 1151 325 l 922 325 l 922 1088 z "},"껴":{"ha":1213,"x_min":83,"x_max":1129,"o":"m 1129 1088 l 1129 -175 l 836 -175 l 836 232 l 650 232 q 451 44 567 100 q 218 -12 335 -12 q 83 8 136 -12 l 83 333 q 117 331 92 333 q 171 329 143 329 q 478 428 339 329 q 636 811 618 526 q 568 728 594 749 q 497 704 542 708 l 497 1036 l 765 1036 q 776 882 774 919 l 836 882 l 836 1088 l 1129 1088 m 146 639 q 199 635 175 635 q 281 672 250 635 q 331 811 311 708 q 263 729 290 750 q 193 704 236 708 l 193 1036 l 461 1036 q 472 832 472 914 q 425 533 472 632 q 314 408 378 435 q 146 369 250 382 l 146 639 m 836 521 l 836 593 l 767 593 q 754 521 761 546 l 836 521 z "},"껸":{"ha":1246,"x_min":83,"x_max":1163,"o":"m 315 269 l 607 269 q 603 183 607 218 q 583 114 599 149 l 1163 114 l 1163 -175 l 315 -175 l 315 269 m 83 574 q 112 572 92 574 q 169 571 132 571 q 476 642 336 571 q 633 917 615 713 q 565 857 592 872 q 494 839 539 842 l 494 1078 l 763 1078 q 768 1022 765 1058 l 771 993 l 835 993 l 835 1088 l 1126 1088 l 1126 190 l 835 190 l 835 399 l 746 399 l 746 646 q 560 382 692 456 q 267 308 428 308 q 83 326 168 308 l 83 574 m 144 793 q 199 789 174 789 q 278 815 249 789 q 328 917 308 842 q 261 857 288 872 q 190 839 235 842 l 190 1078 l 458 1078 q 469 922 469 985 q 422 700 469 771 q 311 614 375 629 q 144 599 247 599 l 144 793 m 835 660 l 835 732 l 765 732 q 751 660 757 682 l 835 660 z "},"껼":{"ha":1285,"x_min":83,"x_max":1201,"o":"m 365 125 l 835 125 l 835 149 l 365 149 l 365 358 l 1126 358 l 1126 58 l 658 58 l 658 35 l 1201 35 l 1201 -175 l 365 -175 l 365 125 m 83 632 q 113 631 92 632 q 171 629 133 629 q 476 692 338 629 q 635 936 615 754 q 567 883 593 896 q 497 867 540 869 l 497 1078 l 763 1078 q 774 993 768 1051 l 835 993 l 835 1088 l 1126 1088 l 1126 400 l 835 400 l 835 490 l 747 490 l 747 696 q 561 461 693 526 q 267 396 429 396 q 83 413 181 396 l 83 632 m 146 826 q 170 824 157 825 q 200 822 183 822 q 281 847 250 822 q 331 936 311 871 q 263 883 289 896 q 192 867 236 869 l 192 1078 l 458 1078 q 469 939 469 1007 q 422 744 469 806 q 311 668 375 682 q 146 654 247 654 l 146 826 m 835 711 l 835 772 l 765 772 l 753 711 l 835 711 z "},"꼇":{"ha":1213,"x_min":83,"x_max":1129,"o":"m 278 183 q 417 168 347 168 q 626 207 532 168 q 778 303 719 246 l 931 303 q 935 239 938 271 l 1125 239 l 1125 -40 q 1086 -147 1125 -104 q 989 -189 1047 -189 q 893 -147 932 -189 q 854 -40 854 -104 l 854 51 q 634 -118 771 -51 q 367 -185 497 -185 q 278 -175 317 -185 l 278 183 m 83 574 q 112 572 92 574 q 169 571 132 571 q 478 642 338 571 q 636 917 618 713 q 568 857 594 872 q 497 839 542 842 l 497 1078 l 765 1078 q 771 1022 768 1058 l 774 993 l 836 993 l 836 1088 l 1129 1088 l 1129 350 l 836 350 l 836 438 l 749 438 l 749 646 q 563 382 694 456 q 268 308 431 308 q 83 326 171 308 l 83 574 m 146 793 q 200 789 175 789 q 281 815 251 789 q 331 917 311 842 q 263 857 290 872 q 193 839 236 842 l 193 1078 l 461 1078 q 472 924 472 985 q 425 701 472 772 q 313 615 378 631 q 146 599 249 599 l 146 793 m 836 682 l 836 749 l 769 749 q 757 682 765 714 l 836 682 z "},"꼈":{"ha":1253,"x_min":83,"x_max":1169,"o":"m 692 183 q 765 168 731 168 q 853 207 822 168 q 889 303 883 246 l 1043 303 q 1063 185 1063 242 q 1058 132 1063 160 l 1169 132 l 1169 -76 q 1140 -157 1169 -125 q 1068 -189 1111 -189 q 994 -157 1024 -189 q 965 -76 965 -125 l 965 -71 q 865 -154 921 -124 q 751 -185 808 -185 q 692 -175 719 -185 l 692 183 m 83 574 q 112 572 92 574 q 169 571 132 571 q 477 642 338 571 q 635 917 617 713 q 567 857 593 872 q 497 839 540 842 l 497 1078 l 764 1078 q 772 993 771 1033 l 836 993 l 836 1088 l 1128 1088 l 1128 331 l 836 331 l 836 399 l 747 399 l 747 646 q 561 382 693 456 q 267 308 429 308 q 83 326 171 308 l 83 574 m 147 793 q 200 789 176 789 q 281 816 250 789 q 331 917 311 843 q 263 857 289 872 q 192 839 236 842 l 192 1078 l 460 1078 q 471 922 471 985 q 424 700 471 771 q 313 614 376 629 q 147 599 249 599 l 147 793 m 203 183 q 276 168 242 168 q 364 207 333 168 q 401 303 394 246 l 553 303 q 574 185 574 243 q 569 132 574 157 l 667 132 l 667 -76 q 638 -157 667 -125 q 567 -189 610 -189 q 496 -160 525 -189 q 464 -85 467 -131 q 368 -158 421 -132 q 263 -185 315 -185 q 203 -175 231 -185 l 203 183 m 836 660 l 836 732 l 767 732 q 753 660 758 682 l 836 660 z "},"꼉":{"ha":1224,"x_min":83,"x_max":1140,"o":"m 707 -204 q 378 -133 481 -204 q 275 54 275 -62 q 378 242 275 171 q 707 313 481 313 q 1038 242 935 313 q 1140 54 1140 171 q 1038 -133 1140 -62 q 707 -204 935 -204 m 83 574 q 112 572 92 574 q 169 571 132 571 q 477 642 338 571 q 635 917 617 713 q 567 857 594 872 q 497 839 540 842 l 497 1078 l 765 1078 l 774 993 l 836 993 l 836 1088 l 1128 1088 l 1128 331 l 836 331 l 836 399 l 749 399 l 749 646 q 563 382 694 456 q 268 308 431 308 q 83 326 171 308 l 83 574 m 146 793 q 200 789 175 789 q 281 816 250 789 q 331 917 311 843 q 263 857 289 872 q 193 839 236 842 l 193 1078 l 460 1078 q 471 924 471 985 q 424 701 471 772 q 312 615 376 631 q 146 599 247 599 l 146 793 m 643 54 q 707 -18 643 -18 q 774 54 774 -18 q 707 126 774 126 q 643 54 643 126 m 836 660 l 836 732 l 767 732 q 751 660 761 699 l 836 660 z "},"꼍":{"ha":1246,"x_min":83,"x_max":1163,"o":"m 403 317 l 1126 317 l 1126 208 l 696 208 l 696 174 l 1126 174 l 1126 107 l 696 107 l 696 72 l 1163 72 l 1163 -175 l 403 -175 l 403 317 m 83 604 q 112 603 92 604 q 168 601 132 601 q 476 667 336 601 q 633 926 615 733 q 565 870 592 885 q 494 853 539 856 l 494 1078 l 763 1078 q 771 993 769 1033 l 835 993 l 835 1088 l 1126 1088 l 1126 365 l 835 365 l 835 474 l 746 474 l 746 672 q 560 424 692 493 q 265 354 428 354 q 83 372 185 354 l 83 604 m 144 811 q 200 807 174 807 q 278 833 249 807 q 328 926 308 858 q 260 870 286 885 q 190 853 235 856 l 190 1078 l 458 1078 q 469 932 469 989 q 422 724 469 790 q 311 642 375 657 q 144 628 247 628 l 144 811 m 835 701 l 835 765 l 767 765 q 754 701 763 733 l 835 701 z "},"꼐":{"ha":1235,"x_min":83,"x_max":1151,"o":"m 1151 1088 l 1151 -175 l 922 -175 l 922 1088 l 1151 1088 m 83 333 q 228 358 139 333 q 402 463 317 382 q 500 700 488 544 q 459 657 481 668 q 403 649 438 646 l 403 1031 l 615 1031 q 624 875 621 978 l 660 875 l 660 1032 l 889 1032 l 889 -64 l 660 -64 l 660 211 l 579 211 l 579 372 q 415 74 522 163 q 192 -14 307 -14 q 83 8 128 -14 l 83 333 m 121 647 q 167 642 154 642 q 231 677 207 642 q 271 811 256 713 q 213 730 239 751 q 149 704 186 708 l 149 1031 l 374 1031 q 382 847 382 931 q 306 473 382 575 q 121 378 229 371 l 121 647 m 660 500 l 660 586 l 617 586 q 606 500 611 531 l 660 500 z "},"꼬":{"ha":1151,"x_min":42,"x_max":1110,"o":"m 1110 -18 l 42 -18 l 42 271 l 454 271 l 454 386 l 721 386 l 721 271 l 1110 271 l 1110 -18 m 114 1022 l 518 1022 q 549 876 536 958 q 561 708 561 793 q 500 426 561 533 l 226 426 l 242 464 q 299 630 279 550 q 319 839 319 710 q 246 760 301 783 q 114 732 190 738 l 114 1022 m 578 1022 l 983 1022 q 1025 710 1025 858 q 964 426 1025 533 l 690 426 l 707 467 q 763 633 743 553 q 782 839 782 713 q 710 760 765 783 q 578 732 656 738 l 578 1022 z "},"꼭":{"ha":1151,"x_min":42,"x_max":1110,"o":"m 932 -175 l 640 -175 l 640 22 q 472 -12 579 -4 q 214 -19 364 -19 l 158 -19 l 158 269 l 932 269 l 932 -175 m 42 576 l 429 576 l 429 621 l 249 621 q 263 664 256 647 q 287 754 279 715 q 294 853 294 793 q 231 774 276 796 q 114 746 185 751 l 114 1036 l 518 1036 q 539 876 539 961 q 496 667 539 757 l 694 667 l 694 576 l 1110 576 l 1110 315 l 42 315 l 42 576 m 578 1036 l 983 1036 q 1003 876 1003 958 q 933 621 1003 721 l 713 621 q 726 664 719 647 q 751 754 743 715 q 758 853 758 793 q 695 774 740 796 q 578 746 650 751 l 578 1036 z "},"꼰":{"ha":1151,"x_min":42,"x_max":1110,"o":"m 171 269 l 464 269 q 460 183 464 218 q 439 114 456 149 l 983 114 l 983 -175 l 171 -175 l 171 269 m 42 576 l 429 576 l 429 621 l 249 621 q 263 664 256 647 q 287 754 279 715 q 294 853 294 793 q 231 774 276 796 q 114 746 185 751 l 114 1036 l 518 1036 q 539 876 539 961 q 496 667 539 757 l 694 667 l 694 576 l 1110 576 l 1110 315 l 42 315 l 42 576 m 578 1036 l 983 1036 q 1003 876 1003 958 q 933 621 1003 721 l 713 621 q 726 664 719 647 q 751 754 743 715 q 758 853 758 793 q 695 774 740 796 q 578 746 650 751 l 578 1036 z "},"꼲":{"ha":1151,"x_min":42,"x_max":1110,"o":"m 767 -204 q 604 -154 654 -204 q 554 -21 554 -104 q 588 92 554 49 l 531 92 l 531 -175 l 147 -175 l 147 269 l 439 269 q 435 183 439 218 q 413 114 431 149 l 489 114 l 489 214 l 663 214 l 663 290 l 889 290 q 879 214 889 240 l 1046 214 l 1046 92 l 947 92 q 981 -21 981 49 q 931 -154 981 -104 q 767 -204 881 -204 m 42 576 l 429 576 l 429 621 l 249 621 q 263 664 256 647 q 287 754 279 715 q 294 853 294 793 q 231 774 276 796 q 114 746 185 751 l 114 1036 l 518 1036 q 539 876 539 961 q 496 667 539 757 l 694 667 l 694 576 l 1110 576 l 1110 315 l 42 315 l 42 576 m 578 1036 l 983 1036 q 1003 876 1003 958 q 933 621 1003 721 l 713 621 q 726 664 719 647 q 751 754 743 715 q 758 853 758 793 q 695 774 740 796 q 578 746 650 751 l 578 1036 m 753 -19 q 767 -111 753 -111 q 781 -19 781 -111 q 767 67 781 67 q 753 -19 753 67 z "},"꼳":{"ha":1151,"x_min":42,"x_max":1110,"o":"m 171 281 l 932 281 l 932 117 l 464 117 l 464 69 l 944 97 l 944 -178 l 171 -178 l 171 281 m 42 583 l 429 583 l 429 621 l 249 621 q 263 664 256 647 q 287 754 279 715 q 294 853 294 793 q 231 774 276 796 q 114 746 185 751 l 114 1036 l 518 1036 q 539 876 539 961 q 496 667 539 757 l 694 667 l 694 583 l 1110 583 l 1110 322 l 42 322 l 42 583 m 578 1036 l 983 1036 q 1003 876 1003 958 q 933 621 1003 721 l 713 621 q 726 664 719 647 q 751 754 743 715 q 758 853 758 793 q 695 774 740 796 q 578 746 650 751 l 578 1036 z "},"꼴":{"ha":1151,"x_min":42,"x_max":1110,"o":"m 1110 371 l 42 371 l 42 593 l 429 593 l 429 621 l 249 621 q 263 664 256 647 q 287 754 279 715 q 294 853 294 793 q 231 774 276 796 q 114 746 185 751 l 114 1036 l 518 1036 q 538 876 538 968 q 501 681 538 764 l 694 681 l 694 593 l 1110 593 l 1110 371 m 163 174 l 632 174 l 632 197 l 163 197 l 163 338 l 924 338 l 924 107 l 456 107 l 456 83 l 999 83 l 999 -175 l 163 -175 l 163 174 m 578 1036 l 983 1036 q 1003 876 1003 958 q 933 621 1003 721 l 713 621 q 726 664 719 647 q 751 754 743 715 q 758 853 758 793 q 695 774 740 796 q 578 746 650 751 l 578 1036 z "},"꼼":{"ha":1151,"x_min":42,"x_max":1110,"o":"m 932 -175 l 640 -175 l 640 -106 q 478 -163 639 -151 q 168 -175 317 -175 l 168 289 l 932 289 l 932 -175 m 42 572 l 429 572 l 429 621 l 249 621 q 263 664 256 647 q 287 754 279 715 q 294 853 294 793 q 231 774 276 796 q 114 746 185 751 l 114 1036 l 518 1036 q 539 876 539 961 q 496 667 539 757 l 694 667 l 694 572 l 1110 572 l 1110 336 l 42 336 l 42 572 m 640 31 l 640 171 l 575 171 l 575 31 l 640 31 m 578 1036 l 983 1036 q 1003 876 1003 958 q 933 621 1003 721 l 713 621 q 726 664 719 647 q 751 754 743 715 q 758 853 758 793 q 695 774 740 796 q 578 746 650 751 l 578 1036 z "},"꼽":{"ha":1151,"x_min":42,"x_max":1110,"o":"m 932 289 l 932 -175 l 640 -175 l 640 -106 q 478 -163 639 -151 q 168 -175 317 -175 l 168 289 l 575 289 l 575 219 l 640 219 l 640 289 l 932 289 m 42 576 l 429 576 l 429 621 l 249 621 q 263 664 256 647 q 287 754 279 715 q 294 853 294 793 q 231 774 276 796 q 114 746 185 751 l 114 1036 l 518 1036 q 539 876 539 961 q 496 667 539 757 l 694 667 l 694 576 l 1110 576 l 1110 336 l 42 336 l 42 576 m 640 31 l 640 101 l 575 101 l 575 31 l 640 31 m 578 1036 l 983 1036 q 1003 876 1003 958 q 933 621 1003 721 l 713 621 q 726 664 719 647 q 751 754 743 715 q 758 853 758 793 q 695 774 740 796 q 578 746 650 751 l 578 1036 z "},"꼿":{"ha":1151,"x_min":42,"x_max":1110,"o":"m 121 183 q 258 168 190 168 q 467 207 374 168 q 619 303 561 246 l 772 303 q 775 239 776 268 l 967 239 l 967 -40 q 927 -147 967 -104 q 829 -189 888 -189 q 733 -147 772 -189 q 694 -40 694 -104 l 694 51 q 476 -118 613 -51 q 208 -185 339 -185 q 121 -175 160 -185 l 121 183 m 42 575 l 429 575 l 429 621 l 249 621 q 263 664 256 647 q 287 754 279 715 q 294 853 294 793 q 231 774 276 796 q 114 746 185 751 l 114 1036 l 518 1036 q 539 876 539 961 q 496 667 539 757 l 694 667 l 694 575 l 1110 575 l 1110 339 l 42 339 l 42 575 m 578 1036 l 983 1036 q 1003 876 1003 958 q 933 621 1003 721 l 713 621 q 726 664 719 647 q 751 754 743 715 q 758 853 758 793 q 695 774 740 796 q 578 746 650 751 l 578 1036 z "},"꽁":{"ha":1151,"x_min":42,"x_max":1110,"o":"m 563 -204 q 356 -170 442 -204 q 225 -77 269 -136 q 181 54 181 -18 q 225 185 181 126 q 356 278 269 244 q 563 313 442 313 q 772 278 685 313 q 902 186 858 244 q 946 54 946 128 q 902 -78 946 -19 q 772 -170 858 -136 q 563 -204 685 -204 m 42 579 l 429 579 l 429 621 l 249 621 q 263 664 256 647 q 287 754 279 715 q 294 853 294 793 q 231 774 276 796 q 114 746 185 751 l 114 1036 l 518 1036 q 539 876 539 961 q 496 667 539 757 l 694 667 l 694 579 l 1110 579 l 1110 340 l 42 340 l 42 579 m 521 54 q 563 -14 521 -14 q 606 54 606 -14 q 563 122 606 122 q 521 54 521 122 m 578 1036 l 983 1036 q 1003 876 1003 958 q 933 621 1003 721 l 713 621 q 726 664 719 647 q 751 754 743 715 q 758 853 758 793 q 695 774 740 796 q 578 746 650 751 l 578 1036 z "},"꽂":{"ha":1151,"x_min":42,"x_max":1110,"o":"m 132 142 q 251 129 194 129 q 488 188 378 129 l 260 188 l 260 303 l 785 303 q 790 254 790 269 q 782 197 790 226 l 979 197 l 979 -40 q 940 -147 979 -104 q 843 -189 901 -189 q 747 -147 786 -189 q 708 -40 708 -104 l 708 51 q 488 -118 625 -51 q 221 -185 351 -185 q 132 -175 171 -185 l 132 142 m 42 583 l 429 583 l 429 621 l 249 621 q 263 664 256 647 q 287 754 279 715 q 294 853 294 793 q 231 774 276 796 q 114 746 185 751 l 114 1036 l 518 1036 q 539 876 539 961 q 496 667 539 757 l 694 667 l 694 583 l 1110 583 l 1110 339 l 42 339 l 42 583 m 578 1036 l 983 1036 q 1003 876 1003 958 q 933 621 1003 721 l 713 621 q 726 664 719 647 q 751 754 743 715 q 758 853 758 793 q 695 774 740 796 q 578 746 650 751 l 578 1036 z "},"꽃":{"ha":1151,"x_min":42,"x_max":1110,"o":"m 121 106 q 244 94 178 94 q 485 144 372 94 l 246 144 l 246 232 l 772 232 q 776 189 776 211 q 774 153 776 178 l 967 153 l 967 -62 q 927 -154 967 -118 q 829 -190 888 -190 q 733 -153 772 -190 q 694 -62 694 -117 l 694 17 q 475 -128 613 -71 q 207 -186 338 -186 q 121 -178 163 -186 l 121 106 m 42 594 l 429 594 l 429 639 l 249 639 q 263 681 257 667 q 286 766 278 728 q 294 861 294 804 q 231 785 276 807 q 114 760 185 764 l 114 1036 l 518 1036 q 539 882 539 965 q 494 681 539 765 l 694 681 l 694 594 l 1110 594 l 1110 379 l 42 379 l 42 594 m 457 339 l 772 339 l 772 264 l 457 264 l 457 339 m 578 1036 l 983 1036 q 1003 883 1003 961 q 933 639 1003 736 l 713 639 q 726 681 721 667 q 750 766 742 728 q 758 861 758 804 q 694 785 740 807 q 578 760 649 764 l 578 1036 z "},"꽅":{"ha":1151,"x_min":42,"x_max":1110,"o":"m 185 285 l 907 285 l 907 183 l 475 183 l 475 151 l 907 151 l 907 89 l 475 89 l 475 57 l 944 57 l 944 -175 l 185 -175 l 185 285 m 42 572 l 429 572 l 429 621 l 249 621 q 263 664 256 647 q 287 754 279 715 q 294 853 294 793 q 231 774 276 796 q 114 746 185 751 l 114 1036 l 518 1036 q 539 876 539 961 q 496 667 539 757 l 694 667 l 694 572 l 1110 572 l 1110 328 l 42 328 l 42 572 m 578 1036 l 983 1036 q 1003 876 1003 958 q 933 621 1003 721 l 713 621 q 726 664 719 647 q 751 754 743 715 q 758 853 758 793 q 695 774 740 796 q 578 746 650 751 l 578 1036 z "},"꽈":{"ha":1260,"x_min":28,"x_max":1232,"o":"m 1056 1088 l 1056 854 l 1232 854 l 1232 510 q 1147 519 1183 510 q 1084 565 1111 529 q 1056 676 1057 601 l 1056 -175 l 765 -175 l 765 188 q 613 56 703 106 q 388 -20 524 7 q 40 -60 251 -47 l 28 229 l 339 263 l 339 440 l 83 440 q 147 615 126 546 q 168 769 168 685 q 133 747 158 754 q 85 737 108 740 q 54 732 63 733 l 54 1022 l 354 1022 q 376 882 367 963 q 385 719 385 801 q 364 511 385 600 l 456 511 q 497 642 482 582 q 511 769 511 701 q 479 747 501 754 q 437 736 457 739 q 410 732 417 733 l 410 1022 l 697 1022 q 728 715 728 849 q 683 440 728 547 l 593 440 l 593 290 l 765 310 l 765 1088 l 1056 1088 z "},"꽉":{"ha":1260,"x_min":28,"x_max":1232,"o":"m 1056 1088 l 1056 854 l 1232 854 l 1232 510 q 1147 519 1183 510 q 1084 565 1111 529 q 1056 676 1057 601 l 1056 331 l 765 331 l 765 521 q 613 390 703 439 q 388 313 524 340 q 40 274 251 286 l 28 563 l 339 596 l 339 660 l 83 660 q 148 787 128 738 q 168 897 168 836 q 134 881 158 886 q 86 873 110 875 q 54 869 63 871 l 54 1078 l 354 1078 q 385 860 385 968 q 358 694 385 764 l 446 694 q 494 798 478 751 q 511 897 511 844 q 480 881 501 886 q 438 873 458 875 q 410 869 417 871 l 410 1078 l 697 1078 q 728 858 728 953 q 683 660 728 738 l 593 660 l 593 624 l 765 643 l 765 1088 l 1056 1088 m 283 269 l 1056 269 l 1056 -175 l 765 -175 l 765 22 q 596 -12 703 -4 q 339 -19 489 -19 l 283 -19 l 283 269 z "},"꽌":{"ha":1260,"x_min":28,"x_max":1232,"o":"m 1232 510 q 1147 519 1183 510 q 1084 565 1111 529 q 1056 676 1057 601 l 1056 190 l 765 190 l 765 521 q 613 390 703 439 q 388 313 524 340 q 40 274 251 286 l 28 563 l 339 596 l 339 660 l 83 660 q 148 787 128 738 q 168 897 168 836 q 134 881 158 886 q 86 873 110 875 q 54 869 63 871 l 54 1078 l 354 1078 q 385 860 385 968 q 358 694 385 764 l 446 694 q 494 798 478 751 q 511 897 511 844 q 480 881 501 886 q 438 873 458 875 q 410 869 417 871 l 410 1078 l 697 1078 q 728 858 728 953 q 683 660 728 738 l 593 660 l 593 624 l 765 643 l 765 1088 l 1056 1088 l 1056 854 l 1232 854 l 1232 510 m 246 269 l 538 269 q 533 183 538 218 q 513 114 529 149 l 1094 114 l 1094 -175 l 246 -175 l 246 269 z "},"꽐":{"ha":1260,"x_min":28,"x_max":1232,"o":"m 1056 1088 l 1056 854 l 1232 854 l 1232 510 q 1147 519 1183 510 q 1084 565 1111 529 q 1056 676 1057 601 l 1056 354 l 765 354 l 765 560 q 613 439 703 485 q 387 367 524 393 q 40 329 250 342 l 28 599 l 339 631 l 339 689 l 83 689 q 148 809 128 764 q 168 911 168 854 q 134 895 158 900 q 86 888 110 890 q 54 885 63 886 l 54 1079 l 354 1079 q 385 875 385 975 q 358 722 385 786 l 446 722 q 494 818 478 775 q 511 911 511 861 q 480 895 501 900 q 438 888 458 890 q 410 885 417 886 l 410 1079 l 697 1079 q 728 874 728 964 q 683 689 728 761 l 593 689 l 593 656 l 765 674 l 765 1088 l 1056 1088 m 296 104 l 765 104 l 765 125 l 296 125 l 296 321 l 1056 321 l 1056 42 l 589 42 l 589 19 l 1132 19 l 1132 -175 l 296 -175 l 296 104 z "},"꽜":{"ha":1260,"x_min":28,"x_max":1232,"o":"m 1056 1088 l 1056 854 l 1232 854 l 1232 510 q 1147 519 1183 510 q 1084 565 1111 529 q 1056 676 1057 601 l 1056 331 l 765 331 l 765 521 q 613 390 703 439 q 388 313 524 340 q 40 274 251 286 l 28 563 l 339 596 l 339 660 l 83 660 q 148 787 128 738 q 168 897 168 836 q 134 881 158 886 q 86 873 110 875 q 54 869 63 871 l 54 1078 l 354 1078 q 385 860 385 968 q 358 694 385 764 l 446 694 q 494 798 478 751 q 511 897 511 844 q 480 881 501 886 q 438 873 458 875 q 410 869 417 871 l 410 1078 l 697 1078 q 728 858 728 953 q 683 660 728 738 l 593 660 l 593 624 l 765 643 l 765 1088 l 1056 1088 m 132 183 q 206 168 172 168 q 293 207 263 168 q 329 303 324 246 l 483 303 q 501 186 501 247 q 497 132 501 160 l 597 132 l 597 -76 q 568 -157 597 -125 q 494 -189 539 -189 q 425 -160 454 -189 q 394 -85 396 -131 q 297 -158 350 -132 q 192 -185 244 -185 q 132 -175 160 -185 l 132 183 m 621 183 q 694 168 660 168 q 782 207 751 168 q 819 303 813 246 l 971 303 q 990 189 990 249 q 986 132 990 160 l 1099 132 l 1099 -76 q 1069 -157 1099 -125 q 996 -189 1040 -189 q 924 -157 953 -189 q 896 -76 896 -125 l 896 -71 q 792 -154 849 -124 q 679 -185 736 -185 q 621 -175 649 -185 l 621 183 z "},"꽝":{"ha":1260,"x_min":28,"x_max":1232,"o":"m 1056 1088 l 1056 854 l 1232 854 l 1232 510 q 1147 519 1183 510 q 1084 565 1111 529 q 1056 676 1057 601 l 1056 331 l 765 331 l 765 521 q 613 390 703 439 q 388 313 524 340 q 40 274 251 286 l 28 563 l 339 596 l 339 660 l 83 660 q 148 787 128 738 q 168 897 168 836 q 134 881 158 886 q 86 873 110 875 q 54 869 63 871 l 54 1078 l 354 1078 q 385 860 385 968 q 358 694 385 764 l 446 694 q 494 798 478 751 q 511 897 511 844 q 480 881 501 886 q 438 873 458 875 q 410 869 417 871 l 410 1078 l 697 1078 q 728 858 728 953 q 683 660 728 738 l 593 660 l 593 624 l 765 643 l 765 1088 l 1056 1088 m 204 54 q 307 242 204 171 q 636 313 410 313 q 967 242 864 313 q 1069 54 1069 171 q 967 -133 1069 -62 q 636 -204 864 -204 q 307 -133 410 -204 q 204 54 204 -62 m 572 54 q 636 -18 572 -18 q 703 54 703 -18 q 636 126 703 126 q 572 54 572 126 z "},"꽤":{"ha":1285,"x_min":83,"x_max":1201,"o":"m 1201 1088 l 1201 -175 l 972 -175 l 972 371 l 939 371 l 939 -175 l 708 -175 l 708 68 q 449 -6 601 21 q 85 -46 297 -33 l 85 243 l 311 265 l 311 396 l 565 396 l 565 290 l 708 304 l 708 1060 l 939 1060 l 939 799 l 972 799 l 972 1088 l 1201 1088 m 83 994 l 351 994 q 379 696 379 838 q 339 426 379 532 l 157 426 q 178 756 178 560 q 147 717 165 726 q 83 704 128 708 l 83 994 m 390 994 l 660 994 q 686 697 686 826 q 646 426 686 532 l 465 426 q 480 592 475 500 q 485 756 485 683 q 455 717 474 726 q 390 704 436 708 l 390 994 z "},"꽥":{"ha":1285,"x_min":83,"x_max":1201,"o":"m 1201 1088 l 1201 283 l 972 283 l 972 550 l 939 550 l 939 283 l 708 283 l 708 367 q 448 289 601 317 q 85 247 294 261 l 85 510 l 299 529 l 299 603 l 553 603 l 553 553 l 708 568 l 708 1058 l 939 1058 l 939 901 l 972 901 l 972 1088 l 1201 1088 m 83 1042 l 351 1042 q 371 905 363 983 q 379 750 379 826 q 371 622 379 683 l 172 622 q 178 825 178 710 q 147 790 165 799 q 83 778 129 782 l 83 1042 m 390 1042 l 660 1042 q 686 751 686 886 q 678 622 686 683 l 479 622 q 485 825 485 710 q 455 790 474 799 q 390 778 436 782 l 390 1042 m 417 256 l 1201 256 l 1201 -175 l 911 -175 l 911 17 q 738 -17 849 -10 q 472 -25 626 -25 l 417 -25 l 417 256 z "},"꽨":{"ha":1324,"x_min":83,"x_max":1240,"o":"m 1201 1086 l 1201 204 l 974 204 l 974 565 l 939 565 l 939 204 l 711 204 l 711 386 q 449 309 603 336 q 86 269 294 282 l 86 525 l 299 544 l 299 615 l 553 615 l 553 568 l 711 582 l 711 1060 l 939 1060 l 939 907 l 974 907 l 974 1086 l 1201 1086 m 83 1043 l 351 1043 q 371 908 363 986 q 379 753 379 829 q 372 635 379 682 l 172 635 q 179 832 179 715 q 147 797 165 806 q 83 786 128 789 l 83 1043 m 354 269 l 646 269 q 642 183 646 218 q 622 114 638 149 l 1240 114 l 1240 -175 l 354 -175 l 354 269 m 390 1043 l 660 1043 q 678 910 671 988 q 686 757 686 833 q 679 635 686 683 l 479 635 q 486 832 486 715 q 454 797 474 806 q 390 786 435 789 l 390 1043 z "},"꽸":{"ha":1328,"x_min":83,"x_max":1244,"o":"m 1203 1086 l 1203 290 l 974 290 l 974 533 l 940 533 l 940 290 l 711 290 l 711 386 q 449 304 603 333 q 86 261 294 275 l 86 532 l 300 553 l 300 607 l 172 607 q 179 815 179 721 q 147 779 165 788 q 83 767 128 771 l 83 1039 l 353 1039 q 379 731 379 878 q 375 626 379 676 l 481 626 q 486 815 486 714 q 455 779 474 788 q 390 767 436 771 l 390 1039 l 660 1039 q 678 900 671 982 q 686 738 686 818 q 679 607 686 660 l 554 607 l 554 576 l 711 592 l 711 1058 l 940 1058 l 940 894 l 974 894 l 974 1086 l 1203 1086 m 278 183 q 375 165 336 165 q 453 193 429 165 q 475 261 476 221 l 629 261 q 647 132 653 186 l 743 132 l 743 -76 q 714 -157 743 -125 q 642 -189 685 -189 q 576 -165 603 -189 q 543 -101 550 -140 q 448 -164 500 -142 q 346 -186 396 -186 q 278 -175 314 -186 l 278 183 m 767 183 q 864 165 825 165 q 941 193 917 165 q 965 261 965 221 l 1117 261 q 1136 132 1140 197 l 1244 132 l 1244 -76 q 1215 -157 1244 -125 q 1143 -189 1186 -189 q 1074 -161 1103 -189 q 1043 -90 1046 -133 q 944 -160 999 -135 q 835 -186 889 -186 q 767 -175 803 -186 l 767 183 z "},"꽹":{"ha":1299,"x_min":83,"x_max":1215,"o":"m 1203 1088 l 1203 335 l 974 335 l 974 496 l 939 496 l 939 335 l 710 335 l 710 378 q 449 296 603 325 q 85 253 296 267 l 85 525 l 299 546 l 299 601 l 172 601 q 179 811 179 686 q 147 775 165 783 q 83 763 128 767 l 83 1036 l 351 1036 q 371 895 363 976 q 379 735 379 814 q 374 621 379 671 l 481 621 q 486 811 486 708 q 456 775 475 783 q 390 763 436 767 l 390 1036 l 660 1036 q 678 897 671 979 q 686 732 686 814 q 679 601 686 654 l 554 601 l 554 571 l 710 585 l 710 1060 l 939 1060 l 939 882 l 974 882 l 974 1088 l 1203 1088 m 428 54 q 474 185 428 126 q 608 278 519 244 q 821 313 696 313 q 1036 278 947 313 q 1170 185 1125 244 q 1215 54 1215 126 q 1170 -77 1215 -18 q 1036 -170 1125 -136 q 821 -204 947 -204 q 608 -170 696 -204 q 474 -77 519 -136 q 428 54 428 -18 m 782 54 q 821 -19 782 -19 q 863 54 863 -19 q 821 128 863 128 q 782 54 782 128 z "},"꾀":{"ha":1139,"x_min":28,"x_max":1056,"o":"m 1056 1088 l 1056 -175 l 764 -175 l 764 188 q 613 57 703 107 q 386 -20 522 7 q 39 -60 250 -47 l 28 229 l 338 263 l 338 440 l 83 440 q 148 619 128 551 q 168 769 168 686 q 132 747 157 754 q 84 737 107 740 q 53 732 61 733 l 53 1022 l 353 1022 q 385 715 385 874 q 364 511 385 599 l 454 511 q 495 642 481 582 q 510 769 510 701 q 478 747 500 754 q 435 736 456 739 q 408 732 415 733 l 408 1022 l 697 1022 q 726 718 726 857 q 682 440 726 547 l 592 440 l 592 290 l 764 310 l 764 1088 l 1056 1088 z "},"꾄":{"ha":1176,"x_min":28,"x_max":1093,"o":"m 246 269 l 538 269 q 533 183 538 218 q 511 114 529 149 l 1093 114 l 1093 -175 l 246 -175 l 246 269 m 338 596 l 338 660 l 83 660 q 116 718 89 669 q 156 810 143 767 q 169 897 169 854 q 134 881 158 886 q 87 873 110 875 q 56 869 64 871 l 56 1078 l 354 1078 q 375 976 367 1035 q 383 858 383 918 q 358 694 383 764 l 446 694 q 494 799 478 754 q 511 897 511 844 q 480 881 501 886 q 438 873 458 875 q 410 869 417 871 l 410 1078 l 697 1078 q 726 861 726 961 q 682 660 726 738 l 592 660 l 592 624 l 764 643 l 764 1088 l 1057 1088 l 1057 190 l 764 190 l 764 521 q 613 390 703 440 q 386 313 522 340 q 39 274 250 286 l 28 563 l 338 596 z "},"꾈":{"ha":1215,"x_min":28,"x_max":1132,"o":"m 296 108 l 765 108 l 765 131 l 296 131 l 296 331 l 1057 331 l 1057 46 l 588 46 l 588 24 l 1132 24 l 1132 -175 l 296 -175 l 296 108 m 338 628 l 338 688 l 83 688 q 149 807 129 761 q 169 910 169 853 q 135 894 158 899 q 88 887 111 889 q 56 883 65 885 l 56 1078 l 356 1078 q 385 874 385 979 q 358 719 385 783 l 446 719 q 497 821 481 781 q 513 910 513 861 q 480 894 501 899 q 438 887 458 889 q 410 883 417 885 l 410 1078 l 699 1078 q 726 875 726 972 q 683 688 726 761 l 594 688 l 594 653 l 765 671 l 765 1088 l 1057 1088 l 1057 364 l 765 364 l 765 557 q 613 435 703 481 q 386 363 522 389 q 40 325 250 338 l 28 596 l 338 628 z "},"꾐":{"ha":1139,"x_min":28,"x_max":1056,"o":"m 1056 -175 l 764 -175 l 764 -106 q 588 -163 763 -151 q 256 -175 414 -175 l 256 289 l 1056 289 l 1056 -175 m 338 596 l 338 660 l 83 660 q 149 789 129 742 q 168 897 168 836 q 133 881 157 886 q 85 873 108 875 q 53 869 61 871 l 53 1078 l 353 1078 q 383 860 383 968 q 357 694 383 764 l 446 694 q 494 799 478 753 q 510 897 510 844 q 478 881 500 886 q 436 873 457 875 q 408 869 415 871 l 408 1078 l 697 1078 q 726 860 726 961 q 682 660 726 738 l 592 660 l 592 624 l 764 643 l 764 1088 l 1056 1088 l 1056 331 l 764 331 l 764 521 q 613 390 703 440 q 386 313 522 340 q 39 274 250 286 l 28 563 l 338 596 m 764 31 l 764 115 l 624 115 l 624 31 l 764 31 z "},"꾑":{"ha":1139,"x_min":28,"x_max":1056,"o":"m 1056 289 l 1056 -175 l 764 -175 l 764 -106 q 592 -163 763 -151 q 267 -175 422 -175 l 267 289 l 635 289 l 635 219 l 764 219 l 764 289 l 1056 289 m 338 596 l 338 660 l 83 660 q 149 789 129 742 q 168 897 168 836 q 133 881 157 886 q 85 873 108 875 q 53 869 61 871 l 53 1078 l 353 1078 q 383 860 383 968 q 357 694 383 764 l 446 694 q 494 799 478 753 q 510 897 510 844 q 478 881 500 886 q 436 873 457 875 q 408 869 415 871 l 408 1078 l 697 1078 q 726 860 726 961 q 682 660 726 738 l 592 660 l 592 624 l 764 643 l 764 1088 l 1056 1088 l 1056 331 l 764 331 l 764 521 q 613 390 703 440 q 386 313 522 340 q 39 274 250 286 l 28 563 l 338 596 m 764 31 l 764 101 l 635 101 l 635 31 l 764 31 z "},"꾕":{"ha":1154,"x_min":28,"x_max":1071,"o":"m 638 -204 q 308 -133 411 -204 q 206 54 206 -62 q 308 242 206 171 q 638 313 411 313 q 967 242 864 313 q 1071 54 1071 171 q 967 -133 1071 -62 q 638 -204 864 -204 m 339 596 l 339 660 l 85 660 q 149 787 129 738 q 169 897 169 836 q 135 881 158 886 q 88 873 111 875 q 56 869 64 871 l 56 1078 l 356 1078 q 386 857 386 968 q 360 694 386 763 l 447 694 q 496 798 479 751 q 513 897 513 844 q 480 880 501 885 q 438 873 458 875 q 411 869 418 871 l 411 1078 l 699 1078 q 726 858 726 967 q 685 660 726 736 l 594 660 l 594 624 l 765 643 l 765 1088 l 1057 1088 l 1057 331 l 765 331 l 765 521 q 613 390 703 439 q 388 313 524 340 q 42 274 253 286 l 28 563 l 339 596 m 572 54 q 638 -18 572 -18 q 704 54 704 -18 q 638 126 704 126 q 572 54 572 126 z "},"꾜":{"ha":1151,"x_min":42,"x_max":1110,"o":"m 1110 -32 l 42 -32 l 42 257 l 292 257 l 292 393 l 558 393 l 558 257 l 606 257 l 606 393 l 872 393 l 872 257 l 1110 257 l 1110 -32 m 114 1022 l 518 1022 q 549 876 536 958 q 561 708 561 793 q 500 426 561 533 l 226 426 l 242 464 q 299 630 279 550 q 319 839 319 710 q 246 760 301 783 q 114 732 190 738 l 114 1022 m 578 1022 l 983 1022 q 1025 710 1025 858 q 964 426 1025 533 l 690 426 l 707 467 q 763 633 743 553 q 782 839 782 713 q 710 760 765 783 q 578 732 656 738 l 578 1022 z "},"꾸":{"ha":1151,"x_min":42,"x_max":1110,"o":"m 1110 107 l 735 107 l 735 -175 l 392 -175 l 392 107 l 42 107 l 42 396 l 1110 396 l 1110 107 m 114 1064 l 518 1064 q 561 758 561 907 q 500 482 561 589 l 226 482 q 278 604 263 563 q 307 715 294 646 q 319 881 319 783 q 246 802 301 825 q 114 774 190 779 l 114 1064 m 578 1064 l 983 1064 q 1025 760 1025 900 q 964 482 1025 589 l 690 482 q 742 603 725 560 q 770 714 758 646 q 782 881 782 782 q 710 802 765 825 q 578 774 656 779 l 578 1064 z "},"꾹":{"ha":1151,"x_min":42,"x_max":1110,"o":"m 1110 319 l 735 319 l 735 269 l 932 269 l 932 -175 l 640 -175 l 640 22 q 472 -12 579 -4 q 214 -19 364 -19 l 158 -19 l 158 269 l 392 269 l 392 319 l 42 319 l 42 581 l 1110 581 l 1110 319 m 114 1036 l 518 1036 q 539 874 539 961 q 469 621 539 721 l 249 621 q 263 664 256 647 q 287 754 279 715 q 294 853 294 793 q 231 774 276 796 q 114 746 185 751 l 114 1036 m 578 1036 l 983 1036 q 1003 876 1003 958 q 933 621 1003 721 l 713 621 q 726 664 719 647 q 751 754 743 715 q 758 853 758 793 q 695 774 740 796 q 578 746 650 751 l 578 1036 z "},"꾼":{"ha":1151,"x_min":42,"x_max":1110,"o":"m 171 269 l 464 269 q 460 183 464 218 q 439 114 456 149 l 983 114 l 983 -175 l 171 -175 l 171 269 m 42 576 l 1110 576 l 1110 315 l 872 315 l 872 172 l 529 172 l 529 315 l 42 315 l 42 576 m 114 1036 l 518 1036 q 539 874 539 961 q 469 621 539 721 l 249 621 q 263 664 256 647 q 287 754 279 715 q 294 853 294 793 q 231 774 276 796 q 114 746 185 751 l 114 1036 m 578 1036 l 983 1036 q 1003 876 1003 958 q 933 621 1003 721 l 713 621 q 726 664 719 647 q 751 754 743 715 q 758 853 758 793 q 695 774 740 796 q 578 746 650 751 l 578 1036 z "},"꿀":{"ha":1151,"x_min":42,"x_max":1110,"o":"m 1110 378 l 735 378 l 735 338 l 924 338 l 924 107 l 456 107 l 456 83 l 999 83 l 999 -175 l 163 -175 l 163 174 l 632 174 l 632 197 l 163 197 l 163 338 l 392 338 l 392 378 l 42 378 l 42 604 l 1110 604 l 1110 378 m 114 1036 l 518 1036 q 539 874 539 961 q 469 621 539 721 l 249 621 q 263 664 256 647 q 287 754 279 715 q 294 853 294 793 q 231 774 276 796 q 114 746 185 751 l 114 1036 m 578 1036 l 983 1036 q 1003 876 1003 958 q 933 621 1003 721 l 713 621 q 726 664 719 647 q 751 754 743 715 q 758 853 758 793 q 695 774 740 796 q 578 746 650 751 l 578 1036 z "},"꿇":{"ha":1151,"x_min":42,"x_max":1110,"o":"m 133 106 l 251 106 l 251 128 l 133 128 l 133 325 l 544 325 l 544 272 l 676 272 l 676 344 l 903 344 q 896 272 903 299 l 1057 272 l 1057 132 l 960 132 q 993 4 993 83 q 943 -147 993 -90 q 779 -204 893 -204 q 617 -147 667 -204 q 568 4 568 -90 q 599 132 568 82 l 544 132 l 544 43 l 426 43 l 426 21 l 544 21 l 544 -176 l 133 -176 l 133 106 m 42 657 l 261 657 q 287 752 279 714 q 294 853 294 790 q 231 774 276 796 q 114 746 185 751 l 114 1036 l 518 1036 q 539 874 539 961 q 492 657 539 750 l 724 657 q 750 749 742 710 q 758 853 758 789 q 695 774 740 796 q 578 746 650 751 l 578 1036 l 983 1036 q 1001 875 1001 961 q 956 657 1001 747 l 1110 657 l 1110 429 l 735 429 l 735 358 l 392 358 l 392 429 l 42 429 l 42 657 m 765 6 q 779 -97 765 -97 q 790 -74 786 -97 q 793 6 793 -51 q 790 82 793 60 q 779 104 786 104 q 765 6 765 104 z "},"꿈":{"ha":1151,"x_min":42,"x_max":1110,"o":"m 1110 329 l 735 329 l 735 289 l 932 289 l 932 -175 l 640 -175 l 640 -106 q 478 -163 639 -151 q 168 -175 317 -175 l 168 289 l 392 289 l 392 329 l 42 329 l 42 590 l 1110 590 l 1110 329 m 114 1036 l 518 1036 q 539 874 539 961 q 469 621 539 721 l 249 621 q 263 664 256 647 q 287 754 279 715 q 294 853 294 793 q 231 774 276 796 q 114 746 185 751 l 114 1036 m 640 31 l 640 171 l 575 171 l 575 31 l 640 31 m 578 1036 l 983 1036 q 1003 876 1003 958 q 933 621 1003 721 l 713 621 q 726 664 719 647 q 751 754 743 715 q 758 853 758 793 q 695 774 740 796 q 578 746 650 751 l 578 1036 z "},"꿉":{"ha":1151,"x_min":42,"x_max":1110,"o":"m 932 289 l 932 -175 l 640 -175 l 640 -106 q 478 -163 639 -151 q 168 -175 317 -175 l 168 289 l 575 289 l 575 219 l 640 219 l 640 289 l 932 289 m 42 632 l 251 632 q 263 664 256 646 q 287 754 279 715 q 294 853 294 793 q 231 774 276 796 q 114 746 185 751 l 114 1036 l 518 1036 q 539 872 539 961 q 476 632 539 729 l 715 632 q 726 664 719 646 q 751 754 743 715 q 758 853 758 793 q 695 774 740 796 q 578 746 650 751 l 578 1036 l 983 1036 q 1001 875 1001 964 q 940 632 1001 728 l 1110 632 l 1110 371 l 735 371 l 735 311 l 392 311 l 392 371 l 42 371 l 42 632 m 640 31 l 640 101 l 575 101 l 575 31 l 640 31 z "}}}
